<svg xmlns="http://www.w3.org/2000/svg" xmlns:xlink="http://www.w3.org/1999/xlink" width="800" height="244" viewBox="0 0 800 244">
  <defs>
    <clipPath id="clip-path">
      <rect id="Rectangle_5606" data-name="Rectangle 5606" width="800" height="244" transform="translate(0 1370)" fill="#fff"/>
    </clipPath>
    <clipPath id="clip-path-2">
      <rect id="Rectangle_5559" data-name="Rectangle 5559" width="877" height="656" transform="translate(0 1370)" fill="#fff"/>
    </clipPath>
  </defs>
  <g id="mask1" transform="translate(0 -1370)" clip-path="url(#clip-path)">
    <g id="Mask_Group_30" data-name="Mask Group 30" opacity="0.05" clip-path="url(#clip-path-2)">
      <g id="Group_28722" data-name="Group 28722" transform="matrix(0.966, -0.259, 0.259, 0.966, -521.815, 1178.919)">
        <g id="Group_28719" data-name="Group 28719" transform="translate(193.568 326.321)">
          <path id="Path_16309" data-name="Path 16309" d="M771.767,544.426c-5.467,5.7-10.166,10.925-15.266,15.722a10.472,10.472,0,0,1-6.483,2.652q-45.006.251-90-.009a10.56,10.56,0,0,1-6.433-2.783c-5.024-4.658-9.669-9.732-15.244-15.443-5.141,5.318-9.822,10.513-14.927,15.248a11.245,11.245,0,0,1-6.881,2.973q-93.529.237-187.054,0a11.293,11.293,0,0,1-6.931-2.86c-5.033-4.636-9.623-9.754-15.14-15.461-5.137,5.331-9.641,10.459-14.679,15.009a13.04,13.04,0,0,1-7.821,3.289c-25.834.24-51.668.145-78.355.145,0,8.056-.587,15.976.154,23.774.854,9.022-1.961,15.546-8.837,21.542-9.1,7.943-17.15,17.083-25.911,25.436a11.413,11.413,0,0,1-6.926,2.869c-9.931.312-19.884.285-29.814.013a10.567,10.567,0,0,1-6.533-2.557c-10.9-10.563-21.591-21.339-32.231-32.164-1.256-1.279-2.526-3.271-2.53-4.938-.136-48.614-.108-97.232-.108-146.288h38.9V598.466h35.7V402.787h38.037V524.619h82.331V402.887h38.037V524.71h86.912v-5.616c0-24.944-.09-49.888.135-74.827a11.823,11.823,0,0,1,3.045-7.382C527.181,426.2,537.7,415.763,548.3,405.408c1.5-1.459,3.885-2.833,5.869-2.842,33.794-.167,67.593-.113,101.388-.095a21.823,21.823,0,0,1,2.178.285V524.674h95.537V451.636h37.852v72.943h90.116V451.536h38.936v73.142h91.318V513.229c0-22.771.063-45.546-.063-68.321a10.6,10.6,0,0,1,3.389-8.507c10.5-10.193,20.719-20.683,31.169-30.935,1.405-1.378,3.511-2.883,5.3-2.9,25.834-.185,51.672-.126,77.935-.126v37.843h-79.553V524.8h79.647v38.118H1123.8q-100.035,0-200.07.068c-3.5,0-6.1-.8-8.471-3.47-4.405-4.97-9.135-9.664-14.34-15.113-5.616,5.819-10.491,11.105-15.668,16.079a8.929,8.929,0,0,1-5.544,2.336q-43.373.217-86.745,0a8.91,8.91,0,0,1-5.544-2.34C782.235,555.5,777.36,550.223,771.767,544.426ZM619.66,524.895V440.752h-66.5v84.143Z" transform="translate(-192.713 -58.552)" fill="#735c48"/>
          <path id="Path_16310" data-name="Path 16310" d="M653.58,641.956h72.735V446.314h37.829c.081,1.712.239,3.456.239,5.2q.02,93.8-.127,187.6a12.54,12.54,0,0,1-3.235,7.839c-9.863,10.319-19.992,20.385-30.244,30.316A10.315,10.315,0,0,1,724.332,680q-34.149.291-68.3,0a10.666,10.666,0,0,1-6.479-2.679c-5.178-4.708-9.98-9.827-15.573-15.438-5.178,5.4-9.867,10.626-14.959,15.429A10.46,10.46,0,0,1,612.552,680q-34.156.291-68.307,0a10.6,10.6,0,0,1-6.447-2.738c-5.038-4.645-9.691-9.709-15.18-15.307-5.254,5.34-10.134,10.559-15.338,15.433a9.757,9.757,0,0,1-5.964,2.62q-100.292.2-200.585.1c-1.053,0-2.1-.1-3.4-.172V642.395h94.814V554.457h-94.7V516.646c1.762-.081,3.51-.24,5.259-.24,28.549-.014,57.1-.095,85.652.136a12.558,12.558,0,0,1,7.825,3.271q15.845,15.194,31.048,31.048a11.831,11.831,0,0,1,3.027,7.391c.217,25.838.131,51.686.131,77.529v6.126H503.9V568.824h38.032V641.8h72.744V446.192h38.9Z" transform="translate(171.461 95.384)" fill="#735c48"/>
          <path id="Path_16311" data-name="Path 16311" d="M631.116,507.841c0,11.593.167,22.423-.126,33.234a11.343,11.343,0,0,1-2.81,6.953q-15.045,15.607-30.65,30.677a10.285,10.285,0,0,1-6.434,2.77q-152.062.2-304.119.108c-1.062,0-2.128-.09-3.551-.154V543.858H592.934V342.32h38.014V469.505h73.959v-5.643c0-26.385.09-52.77-.1-79.155a11.729,11.729,0,0,1,3.971-9.362c10.373-10.066,20.466-20.421,30.772-30.559,1.292-1.274,3.212-2.706,4.848-2.716,23.823-.176,47.647-.122,71.89-.122.1,2.083.258,3.822.262,5.562.013,39.4.072,78.794-.131,118.191a12.565,12.565,0,0,1-3.208,7.852c-9.989,10.446-20.4,20.48-30.488,30.835a10.671,10.671,0,0,1-8.449,3.529q-68.034-.176-136.068-.077ZM743.207,380.1v89.379h35.15V380.1Z" transform="translate(122.55 -271.368)" fill="#735c48"/>
          <path id="Path_16312" data-name="Path 16312" d="M393.092,450.178h37.834v74.334H664.067V487.957h-6.018c-37.228,0-74.452-.059-111.676.09a11.268,11.268,0,0,1-8.9-3.777c-11.006-11.223-22.21-22.247-33.573-33.573,1.211-1.265,2.264-2.4,3.357-3.5q58.648-58.662,117.246-117.364a10.708,10.708,0,0,1,8.453-3.51c15.9.181,31.8.077,47.38.077q-60.763,60.776-121.7,121.71l1.107,1.934h5.634c31.621,0,63.247-.077,94.869.145a12.56,12.56,0,0,1,7.83,3.262q15.845,15.187,31.043,31.043a12.159,12.159,0,0,1,3.036,7.387q.515,14.625-.009,29.268A12.178,12.178,0,0,1,699,528.484c-9.89,10.292-20.177,20.2-30.108,30.456a11.775,11.775,0,0,1-9.37,3.944q-110.594-.183-221.183-.09h-7.147c0,10.558-.154,20.792.077,31.011a10.969,10.969,0,0,1-3.578,8.982c-10.513,10.183-20.715,20.683-31.174,30.921-1.387,1.36-3.569,2.715-5.385,2.72q-76.709.183-153.417.041a6.33,6.33,0,0,1-1.337-.393V598.743h156.72Z" transform="translate(-42.982 -326.321)" fill="#735c48"/>
          <path id="Path_16313" data-name="Path 16313" d="M364.743,461.886h37.825v125.3h73.824V462.2h38.145v5.611q0,58.282.059,116.559a10.014,10.014,0,0,1-3.2,8.033c-10.116,9.809-19.874,19.992-30.063,29.724a12.64,12.64,0,0,1-7.852,3.2c-22.043.253-44.086.077-66.134.212-3.479.018-6.1-.741-8.485-3.434-4.405-4.979-9.149-9.655-14.29-15.018-5.471,5.593-10.215,10.753-15.339,15.506a10.529,10.529,0,0,1-6.438,2.756q-63.968.237-127.931,0a10.281,10.281,0,0,1-6.488-2.648q-16.346-15.845-32.209-32.181a9.586,9.586,0,0,1-2.476-6.032q-.237-40.926,0-81.861a9.581,9.581,0,0,1,2.53-6c10.586-10.875,21.357-21.569,32.159-32.231,1.184-1.17,2.9-2.494,4.4-2.53,9.158-.235,18.32-.117,27.736-.117v37.784H231.787v87.585H364.743Z" transform="translate(-193.568 150.031)" fill="#735c48"/>
          <path id="Path_16314" data-name="Path 16314" d="M379.988,469.24V342.013h37.888v5.024c0,39.578.054,79.155-.131,118.728a11.789,11.789,0,0,1-3.05,7.382q-15.4,16.014-31.409,31.445a11.1,11.1,0,0,1-6.926,2.869c-23.114.208-46.233.127-70.182.127,0,8.8-.488,17.426.145,25.969.556,7.464-1.712,12.763-7.315,17.81-9.519,8.575-18.167,18.112-27.429,26.981a11.432,11.432,0,0,1-6.935,2.86c-9.564.316-19.152.289-28.721.014a10.548,10.548,0,0,1-6.529-2.562c-10.9-10.558-21.6-21.32-32.218-32.168a8.841,8.841,0,0,1-2.544-5.467q-.2-72.371-.086-144.752a18.9,18.9,0,0,1,.3-2.264H232.3V543.118h35.669V342.081h38.01V469.24Z" transform="translate(-190.172 -271.116)" fill="#735c48"/>
          <path id="Path_16315" data-name="Path 16315" d="M729.177,520.262V501.887h35.286v55.725H297.809v-37.35Z" transform="translate(173.153 291.319)" fill="#735c48"/>
          <path id="Path_16316" data-name="Path 16316" d="M332.769,364.727c7.825-8.783,14.932-16.744,22.021-24.722,2.367-2.67,4.658-5.408,7.035-8.078,2.9-3.258,5.819-5.4,10.924-5.386q131.175.352,262.355.172h6.357v52.757H606.433V364.727Z" transform="translate(296.142 -325.546)" fill="#735c48"/>
          <path id="Path_16317" data-name="Path 16317" d="M265.609,699.531v-37.7h77.7V461.813h38.163v5.9q0,94.857.086,189.715a11.249,11.249,0,0,1-3.7,8.928c-10.486,10.2-20.7,20.688-31.161,30.921a8.91,8.91,0,0,1-5.431,2.612c-24.569.162-49.142.1-73.711.072A10.837,10.837,0,0,1,265.609,699.531Z" transform="translate(59.874 150.339)" fill="#735c48"/>
          <path id="Path_16318" data-name="Path 16318" d="M194.559,378.939V326.675H417.386v37.418H233.581v14.846Z" transform="translate(-190.079 -325.075)" fill="#735c48"/>
          <path id="Path_16319" data-name="Path 16319" d="M287.515,561.43H250.282V326.639h37.233Z" transform="translate(5.953 -325.201)" fill="#735c48"/>
          <path id="Path_16320" data-name="Path 16320" d="M265.129,364.16V326.674H500.475c-8.281,8.241-16.789,15.325-23.566,23.8-8.927,11.164-19.432,14.254-33.578,14.042-57.085-.854-114.192-.352-171.29-.352Z" transform="translate(58.185 -325.078)" fill="#735c48"/>
          <path id="Path_16321" data-name="Path 16321" d="M194.631,501.852h38.362v20.4h46.54V559.84h-84.9Z" transform="translate(-189.826 291.196)" fill="#735c48"/>
        </g>
        <g id="Group_28720" data-name="Group 28720" transform="translate(193.568 396.895)">
          <rect id="Rectangle_5542" data-name="Rectangle 5542" width="37.895" height="37.895" transform="translate(350.367)" fill="#d9bb96"/>
          <rect id="Rectangle_5543" data-name="Rectangle 5543" width="37.895" height="37.895" transform="translate(137.049 201.852)" fill="#d9bb96"/>
          <rect id="Rectangle_5544" data-name="Rectangle 5544" width="37.895" height="37.895" transform="translate(688.078 273.31)" fill="#d9bb96"/>
          <rect id="Rectangle_5545" data-name="Rectangle 5545" width="37.895" height="37.895" transform="translate(623.369 273.31)" fill="#d9bb96"/>
          <rect id="Rectangle_5546" data-name="Rectangle 5546" width="37.895" height="37.895" transform="translate(558.659 273.31)" fill="#d9bb96"/>
          <rect id="Rectangle_5547" data-name="Rectangle 5547" width="37.895" height="37.895" transform="translate(0 273.31)" fill="#d9bb96"/>
          <rect id="Rectangle_5548" data-name="Rectangle 5548" width="37.895" height="37.895" transform="translate(519.944 470.323)" fill="#d9bb96"/>
          <rect id="Rectangle_5549" data-name="Rectangle 5549" width="37.895" height="37.895" transform="translate(675.815 538.092)" fill="#d9bb96"/>
          <rect id="Rectangle_5550" data-name="Rectangle 5550" width="37.895" height="37.895" transform="translate(624.659 538.092)" fill="#d9bb96"/>
          <rect id="Rectangle_5551" data-name="Rectangle 5551" width="37.895" height="37.895" transform="translate(252.225 740.461)" fill="#d9bb96"/>
          <rect id="Rectangle_5552" data-name="Rectangle 5552" width="37.895" height="37.895" transform="translate(201.07 740.461)" fill="#d9bb96"/>
          <rect id="Rectangle_5553" data-name="Rectangle 5553" width="37.895" height="37.895" transform="translate(125.246 740.461)" fill="#d9bb96"/>
          <rect id="Rectangle_5554" data-name="Rectangle 5554" width="37.895" height="37.895" transform="translate(176.401 470.323)" fill="#d9bb96"/>
          <rect id="Rectangle_5555" data-name="Rectangle 5555" width="37.895" height="37.895" transform="translate(125.246 470.323)" fill="#d9bb96"/>
          <rect id="Rectangle_5556" data-name="Rectangle 5556" width="37.895" height="37.895" transform="translate(4.361)" fill="#d9bb96"/>
          <rect id="Rectangle_5557" data-name="Rectangle 5557" width="37.895" height="37.895" transform="translate(468.789 470.323)" fill="#d9bb96"/>
        </g>
      </g>
    </g>
  </g>
</svg>
