<svg xmlns="http://www.w3.org/2000/svg" width="44.624" height="31.171" viewBox="0 0 44.624 31.171">
  <path id="books" d="M11.663,8.571H3.87a1.3,1.3,0,0,0-1.3,1.3V38.444a1.3,1.3,0,0,0,1.3,1.3h7.793a1.3,1.3,0,0,0,1.3-1.3V9.87a1.3,1.3,0,0,0-1.3-1.3Zm-1.3,7.793h-5.2v-2.6h5.2v2.6ZM24.651,8.571H16.858a1.3,1.3,0,0,0-1.3,1.3V38.444a1.3,1.3,0,0,0,1.3,1.3h7.793a1.3,1.3,0,0,0,1.3-1.3V9.87a1.3,1.3,0,0,0-1.3-1.3Zm-1.3,7.793h-5.2v-2.6h5.2ZM33.625,10.58l-6.959,3.507a1.3,1.3,0,0,0-.575,1.744l11.688,23.2a1.3,1.3,0,0,0,1.744.575L46.482,36.1a1.3,1.3,0,0,0,.575-1.744l-11.688-23.2A1.3,1.3,0,0,0,33.625,10.58Zm6.612,27.864a1.3,1.3,0,1,1-1.3-1.3A1.3,1.3,0,0,1,40.237,38.444Z" transform="translate(-2.571 -8.571)" fill="#d9bb96"/>
</svg>
