<svg xmlns="http://www.w3.org/2000/svg" width="28" height="30.778">
  <defs>
    <style>
      .a {
        fill: #0f3c6c
      }
    </style>
  </defs>
  <path class="a"
    d="M20.976 13.323V7.5a.674.674 0 00-.186-.443L14.26.2a.651.651 0 00-.468-.2H3.438A3.45 3.45 0 000 3.47v19.578a3.428 3.428 0 003.438 3.445h8.172a8.822 8.822 0 109.365-13.169zM14.433 2.252l4.381 4.612h-2.841a1.549 1.549 0 01-1.539-1.546zM3.438 25.21a2.149 2.149 0 01-2.155-2.162V3.47a2.167 2.167 0 012.155-2.187h9.712v4.035a2.828 2.828 0 002.822 2.829h3.72v5.01c-.192-.006-.346-.026-.513-.026a8.951 8.951 0 00-5.85 2.207H5.183a.641.641 0 100 1.283h6.954a10.206 10.206 0 00-1.129 1.989H5.183a.642.642 0 100 1.283h5.408a8.8 8.8 0 00.385 5.324H3.438zm15.736 4.29a7.537 7.537 0 117.537-7.537 7.545 7.545 0 01-7.537 7.537z" />
  <path class="a"
    d="M5.137 13.438h6.768a.668.668 0 100-1.336H5.137a.668.668 0 100 1.336zM22.496 21.456l-2.746 2.96v-7.3a.668.668 0 10-1.336 0v7.3l-2.766-2.96a.674.674 0 00-.949-.033.666.666 0 00-.033.942l3.909 4.2a.663.663 0 00.975 0l3.916-4.2a.664.664 0 10-.969-.909z" />
</svg>