<svg xmlns="http://www.w3.org/2000/svg" width="32" height="32" viewBox="0 0 32 32"><defs><style>.a{fill:#b28d70;}</style></defs><path class="a" d="M93.133.938A1.076,1.076,0,0,0,91,.938v.938h2.133Z" transform="translate(-86.733)"/><path class="a" d="M153.133.938a1.076,1.076,0,0,0-2.133,0v.938h2.133Z" transform="translate(-142.467)"/><path class="a" d="M213.133.938a1.076,1.076,0,0,0-2.133,0v.938h2.133Z" transform="translate(-198.2)"/><path class="a" d="M273.133.938a1.076,1.076,0,0,0-2.133,0v.938h2.133Z" transform="translate(-253.933)"/><path class="a" d="M391,181h6.4v13.125H391Z" transform="translate(-365.4 -169.687)"/><path class="a" d="M397.4,93.813a3.227,3.227,0,0,0-6.4,0v.938h6.4Z" transform="translate(-365.4 -85.312)"/><path class="a" d="M397.115,426.082a.934.934,0,0,0,.34.4.976.976,0,0,0,.1.049,1.064,1.064,0,0,0,.207.1,1.2,1.2,0,0,0,.675,0,1.064,1.064,0,0,0,.207-.1.979.979,0,0,0,.1-.049.934.934,0,0,0,.34-.4c.007-.015.024-.021.03-.036L401,421h-5.8l1.89,5.047C397.091,426.062,397.109,426.068,397.115,426.082Z" transform="translate(-369.297 -394.687)"/><path class="a" d="M31,172.625a1,1,0,0,0,1.067.938H53.4a1,1,0,0,0,1.067-.937V151H31Zm9.6-17.875h8.533a.945.945,0,1,1,0,1.875H40.6a.945.945,0,1,1,0-1.875Zm-4.267,3.75h12.8a.945.945,0,1,1,0,1.875h-12.8a.945.945,0,1,1,0-1.875Zm0,3.75h12.8a.945.945,0,1,1,0,1.875h-12.8a.945.945,0,1,1,0-1.875Zm0,3.75h8.533a.945.945,0,1,1,0,1.875H36.333a.945.945,0,1,1,0-1.875Z" transform="translate(-31 -141.563)"/><path class="a" d="M54.467,30.938A1,1,0,0,0,53.4,30H50.2v1.875a1.076,1.076,0,0,1-2.133,0V30H45.933v1.875a1.076,1.076,0,0,1-2.133,0V30H41.667v1.875a1.076,1.076,0,0,1-2.133,0V30H37.4v1.875a1.076,1.076,0,0,1-2.133,0V30h-3.2A1,1,0,0,0,31,30.938v4.75H54.467Z" transform="translate(-31 -28.125)"/></svg>