<svg xmlns="http://www.w3.org/2000/svg" xmlns:xlink="http://www.w3.org/1999/xlink" width="366.194" height="156.417" viewBox="0 0 366.194 156.417">
  <defs>
    <clipPath id="clip-path">
      <rect id="Rectangle_12778" data-name="Rectangle 12778" width="102.102" height="123.004" fill="none"/>
    </clipPath>
  </defs>
  <g id="logo_f" transform="translate(-1278.411 -5115.166)">
    <g id="logo_h" transform="translate(209.409 5034.504)">
      <g id="Group_28694" data-name="Group 28694" transform="translate(1125.426 95.465)">
        <text id="الموقع_الرسمي_لمؤسسة_الشيخ" data-name="الموقع الرسمي لمؤسسة الشيخ" transform="translate(65 17)" fill="#352724" font-size="15" font-family="Amiri-Bold, Amiri" font-weight="700"><tspan x="-64" y="0">الموقع الرسمي لمؤسسة الشيخ</tspan></text>
        <text id="رحمه_الله_تعالى" data-name="رحمه الله تعالى" transform="translate(67.537 115.829)" fill="#352724" font-size="15" font-family="Amiri-Bold, Amiri" font-weight="700"><tspan x="-34" y="0">رحمه الله تعالى</tspan></text>
      </g>
      <path id="Path_16180" data-name="Path 16180" d="M201.126,63.654a6.5,6.5,0,0,1-6.337,3.629c-1.088-.019-1.37.328-1.657,1.082-1.981,5.227-5.681,9.513-9.944,13.386-5.076,4.6-11.328,5.624-18.036,3.706-6.337-1.812-8.316-7.065-5.068-12.94a26.417,26.417,0,0,1,3.9-5.39c2.327-2.463,2.3-2.487,1.618-6.092a23.575,23.575,0,0,1-6.767,3.278c-4.485,1.111-6.719-.519-6.257-4.616.447-3.952,2.619-7.38,4.388-10.924,2.275-4.563,4.383-9.2,7.417-13.439.448-.624.967-1.2,1.455-1.8l.64.314c-1.395,2.825-2.8,5.647-4.176,8.48-1.558,3.206-3.119,6.411-4.611,9.64a8.948,8.948,0,0,0-.575,3.97c.042,3.259,3.606,5.689,7.325,3.491.82-.484,1.715-.867,2.569-1.307,1.22-.624,2.2-.766,3.182.472,1.087,1.362,2.357,1.237,3.762-.006a24.043,24.043,0,0,1,8.96-5.134c1.675-.513,3.442-.8,4.743.476,1.454,1.423.122,2.756-.828,3.812-4.437,4.933-9.71,8.477-17.361,7.652-.683-.074-1.465-.336-2.013.269-2.013,2.23-4.171,4.419-4.512,7.411-.344,3.021,1.589,5.383,5.385,6.79,8.866,3.288,18.763-.764,21.847-8.919.823-2.174,1.223-4.478,2.664-6.467.744-1.026,1.4-1.487,2.777-.648a4.038,4.038,0,0,0,5.248-.759C201.309,63.138,201.583,63.265,201.126,63.654ZM120.989,42.706c-.126-.375-.548-.484-1-.309-1.812.711-4.107.669-4.951-.55-1.381-1.994-2.415-1.044-3.751-.349-1.861.971-3.406.9-4.378-1.007-.991-1.944-2.718-2.283-4.871-1.76a31.85,31.85,0,0,0-9.419,3.975c-.886.553-1.7,1.913-2.789,1.383-1.274-.619-1.426-2.15-1.433-3.409A8.114,8.114,0,0,1,89.881,36.4a4.394,4.394,0,0,0,.975-2.65c-2,1.547-3.943,3.216-6.157,1.949-2.391-1.371-3.153-.064-4,1.309a24.773,24.773,0,0,0-1.436,3.333c-3.4,7.879-10.789,12.029-20.121,11.3-5.578-.434-8.905-4.089-8.278-8.988.267-2.09,1.59-3.643,2.979-5.216,2.215-2.513,5.128-4.518,7.231-7.48-.606.079-.926.032-1.079.151-5.45,4.192-10.44,8.728-13.349,14.7-1.868,3.832.2,8.879,4.313,10.878a15.7,15.7,0,0,0,10.123.926c8.995-1.754,14.383-7.377,18.594-14.082,2.131-3.4,1.954-3.483,6.408-3.131-.413.952-.879,1.891-1.232,2.859-2.01,5.491,0,8.348,6.377,9.088a8.282,8.282,0,0,0,8.179-4.375c1.251-2.271-1.806-2.4-2.667-3.647-.086-.124-.3-.18-.407-.3-.362-.383-.206-.646.2-.968,2.156-1.717,6.008-1.428,7.43.719,1.344,2.018,3.014,2.491,5.33,1.339a2.74,2.74,0,0,1,2.775-.249c2.891,1.779,5.56.891,8.212-.519C120.741,43.325,121.132,43.14,120.989,42.706Zm30.125,29.1c-5.83,2.277-11.741,3.317-17.8.918-3.175-1.257-5.239-3.106-5.322-6.586-.08-3.253,1.611-5.539,3.856-7.752.494-.653.162-.952-.575-1.079a23.734,23.734,0,0,0-7.587,7.552c-3.2,5.076-1.325,10.027,4.7,12.169,8.7,3.1,16.511,1.394,23.574-3.915C152.366,72.327,152.075,71.9,151.115,71.809ZM12.339,40.738A38.05,38.05,0,0,0,20.8,35.792c3.9-2.8,8.145-3.272,12.76-2a3.164,3.164,0,0,0,2.565.051c4.782-2.764,10.4-4.23,14.812-7.562.592-.45,1.6-.8,1.452-1.563-.189-.934-1.395-.785-2.191-.962-2.177-.484-4.616-.172-6.457-1.653.427-.759.16-1.19-.774-1.307A18.464,18.464,0,0,0,41,21.982c-2.233,1.756-1.989,2.889.788,3.939,1.069.4,2.346.41,3.375,1.187-2.658,1.357-5.088,2.505-7.853.781a3.679,3.679,0,0,0-1.561-.2,20.563,20.563,0,0,0-13.328,4.166c-3.631,2.577-7.027,5.419-10.968,7.643C10.566,40.577,11.328,40.727,12.339,40.738ZM212.722,75l-2.831,2.132c-.646.487-1.021,1.645-1.976,1.315-.936-.325-.947-1.449-.987-2.3a5.684,5.684,0,0,1,1.438-3.756c.385-.492,1.009-.9.522-1.923-2.578,2.182-4.5,4.769-7.342,6.531-2.792,1.73-6.386,2.031-8.98,4.15,2.435.18,4.879.293,7.031-.691,2-.915,2.908-1.182,3.319,1.3.394,2.368,3.157,3.968,5.843,4.078a8.842,8.842,0,0,0,7.906-4.888c1.114-2.412-2.091-2.5-2.882-3.92-.072-.13-.252-.214-.384-.317C212.8,76.257,214.221,75.162,212.722,75Zm6.829-1.534c2.4-.1,4.8-.164,7.189-.3,1.671-.1,3.1-.881,3.315-2.309.192-1.306-1.269-1.9-2.521-2.406-1.029-.416-2.39-.323-3.224-1.489a13.525,13.525,0,0,1,6.718-.167c3.912.773,7.054-.436,8.787-3.05,1.145-1.727.052-3.057-.8-4.383-.546-.844-1.336-1.936-2.687-1.518-2,.619-4.094,1.187-5.48,2.827-1.2,1.423.264,2.56.7,3.965a25.771,25.771,0,0,0-11.614,2.288c-.611.275-1.428.622-1.381,1.307.053.828,1.071.64,1.685.841,2.224.725,4.832.556,7.075,2.219-2.911.473-5.52.426-7.988,1.148C218.979,72.856,219.148,73.183,219.551,73.467Zm-75.258-19.8a9.025,9.025,0,0,0,5.29-2.106c1.066-1.013,1.24-1.96-.449-2.566-1.629-.581-3.28-1.113-5.372-1.823,5.97-4.406,6.5-11.32,11-16.506-1.443-.083-1.982.745-2.695,1.285-3.933,2.978-5.7,7.043-7.121,11.241a4.518,4.518,0,0,1-3.854,3.469,6.278,6.278,0,0,0-4.356,2.6c2.779,1.341,6.237.616,8.992,2.685-5.411,1.063-10.418,2.209-14.453,5.364l.575,1.079A29.329,29.329,0,0,1,144.293,53.664ZM.931,26.691c2.052-1.108,4.061-2.153,6.023.119.259.3.981.344,1.5.392,3.893.344,9.908-4.819,9.755-8.417-.311.215-.619.385-.872.6-2.824,2.431-2.872,2.428-6.152.667a3.089,3.089,0,0,0-2.3-.413C4.7,20.843,2.1,23.623,0,26.961A4.5,4.5,0,0,0,.931,26.691Zm107.122,3.338a1.743,1.743,0,0,0,2.737.088c2.008-1.836,3.664-1.63,4.881.619.729,1.351,1.581,1.208,2.662.391.546-.413,1.125-.788,1.67-1.2,1.169-.883,2.6-1.7.92-3.221-1.328-1.2-2.271-3.327-4.713-1.093-.861.788-1.9,1.513-3.09.132-.82-.952-1.516-2.6-3.513-1.275-1.285.852-2.594,1.68-4.023,2.6C105.8,28.51,107.224,29.095,108.052,30.028Zm-2.4,30.663c1.024-.672,2.454-1.5.786-2.75-1.264-.953-2.018-3.507-4.478-1.473-1.568,1.3-2.671,1.2-3.822-.32-.921-1.212-2.011-1.288-3.223-.182-.552.508-1.314.833-1.886,1.327-.586.511-1.927.926-1.317,1.773.87,1.206,2.534,3.3,3.36,2.9,2.829-1.391,5.122-2.7,6.834.836C103.587,62.459,104.529,61.432,105.653,60.691ZM85.086,54.349c-.736-.744-1.42-.543-2.326-.045-.957.526-2.023,2.2-3.279.561-2.048-2.664-3.872-1.521-5.775.087-.682.577-2.165.987-1.761,1.857.666,1.436,2.267,2.364,3.666,3.269.909.587,1.621-.417,2.185-.947,1.118-1.052,1.984-1.1,2.993.088.6.7,1.352,1.883,2.495,1.282a32.8,32.8,0,0,0,4.264-3.113C87.419,55.817,85.983,55.254,85.086,54.349Zm-66.18-47.5c1.278-1.688.3-3.042-.97-4.2-1.336-1.219-2.267.013-3.1.725-.981.831-1.669,1.021-2.418-.171-1.224-1.958-2.666-1.931-4.248-.233-.624.672-1.407,1.233-2,1.926-1.016,1.193.259,1.868.9,2.623.557.656,1.3,1.76,2.306.934C11.4,6.787,13,6.573,14.508,8.794c.036.056.153.072.366.162A4.335,4.335,0,0,0,18.906,6.845ZM37.031,43.126c1.41-1.838-.631-2.912-1.472-4.063-.82-1.124-1.569.331-2.33.675-.823.375-1.365,1.486-2.447.015-1.7-2.314-2.02-2.229-4.4-.271-.591.484-1.124,1.018-1.712,1.5a1.208,1.208,0,0,0-.09,2.058c.8.772,1.394,2.476,2.664,1.869,2.343-1.121,4.342-2.739,5.541.72A5.13,5.13,0,0,0,37.031,43.126Zm84.052.815c2.426,2.923,3.68,3.135,7,1.079a23.642,23.642,0,0,0,2.258-1.669c5.587-4.444,7.692-10.693,11.163-16.293-1-.3-1.354.246-1.786.611a23.2,23.2,0,0,0-6.816,9.81c-1.086,2.907-2.759,5.386-6.42,6.137-1.5.309-3.205.529-2.833-1.722-.873-1.437-2.042-.934-3.222-.352l-.436.854c.45.233.566.55.288.962A4.081,4.081,0,0,1,121.084,43.941Zm7.639-6.745c-.539-1.645-4.316-2.978-7.173-2.532a2.21,2.21,0,0,0-.778.152,12.086,12.086,0,0,0-3.093,2.195c-.444.577,1.094.97,1.384,1.728.373.962.906,1.872,1.368,2.8,1,.617,2.125.389,3.222.352C127.242,40.73,129.267,38.852,128.723,37.2ZM38.849,51.673c7.376-5.74,8.8-14.209,12.744-21.541C44.007,35.8,43.013,44.444,38.849,51.673Zm9.72-30.92c7.44-.664,12.831-4.417,17.664-9.04,1.014-.971,3.288-2.05,2.153-3.262-.781-.833-2.408,1.018-3.348,1.944A27.982,27.982,0,0,1,50.1,18.219a19.014,19.014,0,0,0-7.134,2.573l.774,1.307A26.556,26.556,0,0,1,48.569,20.752Zm73.17,26.624a18.489,18.489,0,0,0-5.435,7.2c-1.42,3.822-3.293,7.514-4.97,11.263-.5,1.111-1.558,2.065-1.37,3.856,6.4-6.171,8.472-13.762,11.8-20.795C122.027,48.39,122.935,47.858,121.739,47.377ZM14.356,30.907c-1.2-.952-1.872.33-2.74.706-.613.264-1.159,1.354-1.844.2-1.5-2.513-2.983-1.624-4.641-.092-1.109,1.021-2.022,1.695-.655,3.3s2.289.841,3.463.151c.857-.505,1.587-1.016,2.311.183.484.8,1.093,1.817,2.447,1.312A4.686,4.686,0,0,0,15.584,34.2,2.8,2.8,0,0,0,14.356,30.907ZM116.228,17.7c-1.719.957-3.631,1.9-4.795,3.3-.693.83,1.219,1.624,1.959,2.422.566.611,1.145,1.847,2.129,1.373a32.856,32.856,0,0,0,4.406-2.923C120.184,20.835,116.828,17.364,116.228,17.7ZM65.272,37.6c-.547-.175-4.713,2.75-5.031,3.533-.237.584,2.278,3.38,3.3,3.661.687.19,4.369-2.428,4.792-3.41C68.579,40.818,66.22,37.9,65.272,37.6ZM176.6,69.084c-.733-.164-5.142,2.555-5.333,3.29-.106.407,2.724,3.621,3.314,3.758.738.178,4.658-2.507,4.9-3.357C179.662,72.147,177.419,69.272,176.6,69.084Zm14.864,15.225c-.539-.122-5.048,2.552-5.245,3.11-.212.59,2.337,3.732,3.129,3.864.692.113,4.938-2.587,5.13-3.267C194.638,87.472,192.2,84.473,191.467,84.309ZM48.181,15.582c.774.577,3.811-1.545,4.347-2.933.456-1.174-.928-3.574-2.253-3.9-.955-.238-4.234,2.094-4.869,3.642C45.419,13.876,46.975,14.685,48.181,15.582ZM33.593,7.864C38.449,8.887,49.347,3.978,51.389,0,45.705,2.645,40.129,5.483,33.593,7.864ZM138.115,23.618c.548-.823,1.074-1.812.227-2.643-1.036-1.016-2.139-.219-3.105.286s-2.28,1.068-1.295,2.343c1.042,1.349.214,1.9-.989,2.573a29.891,29.891,0,0,1-5.885,2.018C130.416,29.108,136.068,26.68,138.115,23.618Zm49.027,19.845c.6-.056,1.365-.3,1.246-.976-.142-.809-1.048-.463-1.542-.41-4.227.445-8.442.989-12.673,1.444a2.855,2.855,0,0,0-2.435,1.708C177.152,44.335,182.151,43.925,187.142,43.462ZM27.344,17.486a4.439,4.439,0,0,0,2.592-.354c1.436-.764,2.869-1.772,2.058-3.378-.839-1.661-2.69-1.51-4.42-1.074-.762.193-1.327.725-1.27,1.371.077.857.953.375,1.492.423.844.073,1.761.275,1.772,1.1.007.769-1,.761-1.664.9a9.991,9.991,0,0,1-1.307.119C26.083,17.4,26.923,17.3,27.344,17.486ZM229.758,51.667c-4.433.468-9.061.227-12.826,2.819C221.1,53.093,226.016,54.3,229.758,51.667ZM199.97,48.713c2.643.019,5.269-.069,7.488-1.8.419-.328,1.085-.693.527-1.333-1.207-1.383-4.384-1.273-5.883.281,1.061.233,2.329.034,3.039,1.222l-5.248.955ZM.986,43.388c3.289.426,7.515-.621,11.353-2.65a1.731,1.731,0,0,1-.884-1.243Zm220.2,46.268c-.8,1.045-3.951,1.418-1.418,3.41,1.5,1.185,5.409.9,7.509-.413-1.675-.214-3.217-.386-4.748-.616-1.049-.158-1.9-.526-1.494-1.716C221.334,90.144,221.383,89.921,221.186,89.656ZM70.9,12.09c-1.933,1.563-3.721,3.2-4,5.735-.067.618.037,1.156.788,1.285a2.084,2.084,0,0,0,1.984-.987c.2-.236.867-.571,0-.836-1.831-.555-.746-1.46-.25-2.2.609-.91,1.351-1.754,2.038-2.627Zm149.628,48.49c-1.245.13-2.29-1.079-3.789-.082-.958.637-.68-.9-1.111-1.479-.987,1.111-2.357,2.722-.73,2.915,1.558.185,3.938,1.438,5.486-.553A.527.527,0,0,0,220.526,60.581ZM1.941,16.925A1.218,1.218,0,0,0,3,18.341a1.845,1.845,0,0,0,2.1-.688c.666-1.037-.564-.6-.929-.836-.74-.476-.262-1.015-.008-1.463C4.75,14.33,5.877,13.8,7.552,12.913,4.658,13.3,2.084,15.37,1.941,16.925Zm91.423,4.192a3.38,3.38,0,0,0,2.859-2.166c.206-.656-.455-.711-.925-.879-1.654-.584-3.22-.78-4.431.82.831.219,1.661.4,2.455.653.65.209.632.252-.4.976C92.746,20.911,92.711,21.215,93.365,21.117ZM223.929,88.435c.866-.558,2.372-1.124.879-2.161-1.188-.823-2.818-1.63-4.362-.527-.844.6-.482,1.336.634,1.378a2.461,2.461,0,0,1,2.341,1.158C223.482,88.615,223.651,88.662,223.929,88.435ZM212.722,75l.677,1.707c-.031-.939.7-1.31,1.5-1.723a29.13,29.13,0,0,1,4.655-1.518l-.226-1.029A14.751,14.751,0,0,0,212.722,75Zm-56.071-6.385c-1.751,1.243-3.762,2.063-5.536,3.192l.846,1.306A11.855,11.855,0,0,0,156.651,68.616Zm64.535,21.04-.152.664c1.1-.463,2.383-.706,2.894-1.886l-.508-.151ZM25.535,16.793c.169.836,1.079.691,1.809.693l-.746-.891C26.172,16.441,25.468,16.47,25.535,16.793ZM91.011,21.44a3.058,3.058,0,0,0,2.353-.323l-.439-.595C92.254,20.644,91.413,20.5,91.011,21.44Zm31.51,25.788c-.144-.281-.569-.151-.782.148l.027,1.527C122.3,48.438,122.882,47.94,122.521,47.229ZM221.783,59.76a1.22,1.22,0,0,0-1.257.82l-.145.8C221.056,61,221.752,60.62,221.783,59.76Zm-46.5.474a9.414,9.414,0,0,0,8.034-3.153A9.1,9.1,0,0,0,175.284,60.234ZM95.179,48.416c-.168-.048-.452.111-.616.241-.074.058-.008.4.05.41a2.845,2.845,0,0,0,.629.006C95.5,48.75,95.451,48.493,95.179,48.416ZM51.627,53.624a2.674,2.674,0,0,0-.642-.058c.02.13-.006.333.073.37a2.712,2.712,0,0,0,.664.137C51.682,53.863,51.7,53.646,51.627,53.624ZM107.682,43.5c-.111-.09-.251-.267-.331-.249a2.037,2.037,0,0,0-.519.288l.4.332ZM43.526,24.331c.1.016.225-.137.341-.214-.122-.093-.236-.241-.373-.262-.095-.016-.23.14-.352.225C43.269,24.173,43.384,24.313,43.526,24.331Zm33.355,30c-.161-.056-.409.087-.619.143.093.177.138.429.293.51s.412-.034.752-.079C77.122,54.64,77.045,54.388,76.881,54.333Z" transform="translate(1069.001 146.9) rotate(-16)" fill="#352724"/>
      <g id="Group_35166" data-name="Group 35166" transform="translate(1333.094 97.368)">
        <g id="Group_35165" data-name="Group 35165" clip-path="url(#clip-path)">
          <path id="Path_69104" data-name="Path 69104" d="M60.63,11.663C53.56,46.238,49.437,88.74,48.939,126.024a54.892,54.892,0,0,1,12.906-1.434c-.033-16.914.519-35.1,2-54.382,1.407-18.328,3.5-36.507,6.107-53.486-1.226-.527-2.509-1.129-3.835-1.816a58.126,58.126,0,0,1-5.486-3.242" transform="translate(-28.385 -6.765)" fill="#4b3834" fill-rule="evenodd"/>
          <path id="Path_69105" data-name="Path 69105" d="M15.2,23.8C7.508,59.713,2.649,89.687,0,126.633A38.556,38.556,0,0,1,10.655,125.4c1.055-33.281,5.258-60.726,12.189-96.556A29.963,29.963,0,0,1,15.2,23.8" transform="translate(0 -13.806)" fill="#6e514c" fill-rule="evenodd"/>
          <path id="Path_69106" data-name="Path 69106" d="M151.02,117.945l-.418.019-.8.061a406.308,406.308,0,0,0-44,4.979c-.157-4.96-.257-10.077-.3-15.3V96.037c.26-32.445,2.57-67.479,6.454-96.037a192.142,192.142,0,0,0,16.557,11.093c5.871,3.507,11.5,6.442,16.723,8.9a569.119,569.119,0,0,0,4.562,89.268c.26,1.911.517,3.823.8,5.734.139.976.28,1.972.418,2.949" transform="translate(-61.197)" fill="#352724" fill-rule="evenodd"/>
          <path id="Path_69107" data-name="Path 69107" d="M217.629,209.627a14.78,14.78,0,0,0-6.545-1.368,14.285,14.285,0,0,0-2.843.365l-1.372-15.053a12.045,12.045,0,0,1,8.537,2.06q1.111,7,2.223,14" transform="translate(-119.985 -112.209)" fill="#4b3834" fill-rule="evenodd"/>
          <path id="Path_69108" data-name="Path 69108" d="M210.491,110.02a8.608,8.608,0,0,0-1.512-1.108,9.627,9.627,0,0,0-6.014-1.091q-.208-7.731-.415-15.462c.537.129,1.4.338,2.48.6,2.483.613,3.324.847,4.122,1.577A4.62,4.62,0,0,1,210,95.578q-.026,3.093.066,6.384c.082,2.792.23,5.48.429,8.058" transform="translate(-117.48 -53.569)" fill="#4b3834" fill-rule="evenodd"/>
          <path id="Path_69109" data-name="Path 69109" d="M213.191,252.581q-1.38-10.3-2.759-20.607a16.158,16.158,0,0,1,9.617,1.1l4.1,19.351a25.785,25.785,0,0,1-10.962.156" transform="translate(-122.052 -134.377)" fill="#4b3834" fill-rule="evenodd"/>
          <path id="Path_69110" data-name="Path 69110" d="M213.239,158.891a12.1,12.1,0,0,0-8.558-1.763q-.369-5.723-.654-11.61-.316-6.553-.506-12.915a9.333,9.333,0,0,1,7.36,2.239q.525,5.076,1.032,10.192.689,6.961,1.327,13.857" transform="translate(-118.043 -76.865)" fill="#4b3834" fill-rule="evenodd"/>
          <path id="Path_69111" data-name="Path 69111" d="M210.327,53.279c-.139,1.931-.221,7.263-.287,14.664a6.037,6.037,0,0,0-1.1-.982,8.565,8.565,0,0,0-3.266-1.171c-1.28-.3-2.38-.535-3.24-.715q.076-9,.153-18.01c1.827,1,3.3,1.74,4.321,2.238,1.688.827,2.8,1.417,3.249,2.616a3.145,3.145,0,0,1,.169,1.359" transform="translate(-117.413 -27.298)" fill="#4b3834" fill-rule="evenodd"/>
          <path id="Path_69112" data-name="Path 69112" d="M148.921,94.68a.287.287,0,0,0,.318.191.6.6,0,0,0,.35-.26.925.925,0,0,0,.142-.426c.028-.273.065-.542.118-.8.025-.123.078-.227.11-.345a.394.394,0,0,1,.052-.1q.1-.169.2-.335c.016-.025.032-.066.066-.043s.01.064.008.1a.218.218,0,0,1-.018.064,3.629,3.629,0,0,0-.155.706,3.526,3.526,0,0,1-.175.753c-.039.1-.09.187-.135.281s-.084.173-.124.26a.99.99,0,0,1-.315.4.642.642,0,0,1-.2.082.154.154,0,0,1-.141-.036.815.815,0,0,1-.269-.329.152.152,0,0,0-.018-.025c-.029.02-.058.038-.084.06a1.616,1.616,0,0,1-.4.194.3.3,0,0,1-.27-.062.8.8,0,0,1-.118-.091c-.03-.026-.051-.027-.076-.009a1.062,1.062,0,0,1-.213.108.579.579,0,0,1-.189.043.285.285,0,0,1-.275-.2c-.012-.029-.021-.06-.031-.09-.041-.118-.1-.176-.2-.184a.494.494,0,0,0-.259.046,2.316,2.316,0,0,0-.284.173c-.058.039-.056.062,0,.124a.536.536,0,0,0,.113.087,1.844,1.844,0,0,1,.277.207.174.174,0,0,1,.053.236c-.084.152-.173.3-.262.449a.329.329,0,0,1-.268.158,1.067,1.067,0,0,1-.376-.02.85.85,0,0,1-.646-.73,1.323,1.323,0,0,1,.008-.583,2.689,2.689,0,0,1,.089-.354.025.025,0,0,0-.006-.028c-.018-.01-.024.01-.034.02a.379.379,0,0,1-.438.1c-.039-.015-.056-.01-.063.039-.018.133-.039.266-.066.4a2.541,2.541,0,0,1-.178.53.417.417,0,0,0-.03.07,1.54,1.54,0,0,1-.188.425c-.042.071-.07.154-.118.22a2.239,2.239,0,0,1-.8.738,1.488,1.488,0,0,1-.984.134,1.361,1.361,0,0,1-1-1.257,2.163,2.163,0,0,1,.1-.769,3.822,3.822,0,0,1,.244-.619c.082-.161.179-.309.272-.459.108-.173.225-.339.338-.508a.192.192,0,0,1,.076-.068c.015-.008.03-.012.044.008a.041.041,0,0,1,0,.044,1.7,1.7,0,0,1-.106.231c-.044.067-.081.139-.121.209-.09.161-.184.318-.281.474a1.533,1.533,0,0,0-.231.741,1.181,1.181,0,0,0,.2.736,1.373,1.373,0,0,0,.362.355,1.041,1.041,0,0,0,.58.188,1.58,1.58,0,0,0,1.11-.363,1.6,1.6,0,0,0,.436-.642,3.24,3.24,0,0,0,.175-.763c.019-.13.032-.262.061-.388a.558.558,0,0,1,.1-.239c.042-.049.063-.044.105.025a.176.176,0,0,0,.089.07.373.373,0,0,0,.4-.046.534.534,0,0,0,.163-.189c.019-.037.039-.108.092-.07s0,.081,0,.126a.149.149,0,0,1-.024.081,1.213,1.213,0,0,0-.113.516.989.989,0,0,0,.256.688c.041.045.043.047.072,0a1.739,1.739,0,0,1,.418-.451,2.11,2.11,0,0,1,.678-.386.471.471,0,0,1,.157-.018.243.243,0,0,1,.206.184c.012.036.02.073.029.11.034.149.116.211.232.213a.3.3,0,0,0,.233-.1.9.9,0,0,1,.175-.168.709.709,0,0,1,.064-.037.036.036,0,0,1,.044.01.054.054,0,0,1,.01.051c-.005.036-.039.062-.01.108a.273.273,0,0,0,.11.1.318.318,0,0,0,.227.037,1.473,1.473,0,0,0,.249-.089c.054-.027.055-.036.023-.108a2.682,2.682,0,0,0-.246-.422c-.033-.049-.075-.091-.13-.076-.019.005-.036-.005-.047-.028a.053.053,0,0,1,0-.058c.092-.133.18-.272.342-.3a.774.774,0,0,1,.472.037.953.953,0,0,1,.167.1.353.353,0,0,1,.126.388.715.715,0,0,1-.333.408c-.016.011-.035.018-.052.027s-.034.008-.042.027" transform="translate(-82.014 -53.683)" fill="#fff"/>
          <path id="Path_69113" data-name="Path 69113" d="M168.418,98.423a.452.452,0,0,1-.117-.344.24.24,0,0,0-.031-.148c-.016-.026-.033-.038-.058-.034a.158.158,0,0,0-.118.072c-.063.1-.126.19-.191.283a.739.739,0,0,1-.257.236.343.343,0,0,1-.21.037.311.311,0,0,1-.195-.11A1.02,1.02,0,0,1,167,97.9a2.332,2.332,0,0,1,.01-.664c.026-.226.06-.45.093-.673.03-.2.067-.391.1-.587q.066-.447.144-.887a2.318,2.318,0,0,1,.111-.383c.025-.068.042-.14.063-.21.01-.034.02-.092.058-.073s.018.074.013.108c-.033.231-.069.462-.106.693-.045.287-.094.572-.135.862-.026.189-.042.383-.063.575-.011.109-.022.218-.026.33a1.146,1.146,0,0,0,.229.736.36.36,0,0,0,.461.163.652.652,0,0,0,.21-.174.61.61,0,0,1,.244-.184c.068-.024.115,0,.153.089a.222.222,0,0,0,.063.084.431.431,0,0,0,.075.051c.111.058.11.058.168-.044a2.453,2.453,0,0,1,.541-.677.824.824,0,0,1,.32-.178.266.266,0,0,1,.237.022.335.335,0,0,1,.143.372,2.024,2.024,0,0,1-.489.888,1.154,1.154,0,0,1-.559.339,1.541,1.541,0,0,1-.181.05.582.582,0,0,1-.317-.043.043.043,0,0,0-.066.023,1.987,1.987,0,0,0-.236.837,1.056,1.056,0,0,0,.376.872,1.233,1.233,0,0,0,.6.287,1.187,1.187,0,0,0,.91-.193,1.15,1.15,0,0,0,.439-.6,2.731,2.731,0,0,0,.131-.958.909.909,0,0,1,.013-.126,2.291,2.291,0,0,1,.044-.353.463.463,0,0,1,.086-.169c.021-.026.047-.034.071.009a.163.163,0,0,0,.088.068.476.476,0,0,0,.177.043.253.253,0,0,0,.252-.192c.02-.051.035-.106.054-.157a.192.192,0,0,1,.049-.083c.01-.009.025-.009.039.008a.035.035,0,0,1,0,.039,2.964,2.964,0,0,1-.158.438.452.452,0,0,1-.5.3c-.032-.005-.05,0-.05.045,0,.015,0,.029,0,.043a3.666,3.666,0,0,1-.223,1.131,4.212,4.212,0,0,1-.207.534c-.04.085-.079.171-.127.25a1.288,1.288,0,0,1-.835.614,1.26,1.26,0,0,1-.822-.113.706.706,0,0,1-.16-.1,1.934,1.934,0,0,1-.259-.259,1.213,1.213,0,0,1-.252-.68,2.188,2.188,0,0,1,.108-.843,4.779,4.779,0,0,1,.194-.524c.036-.086.081-.165.124-.252m.48-.619a.763.763,0,0,0,.6-.024.8.8,0,0,0,.328-.273.217.217,0,0,0-.089-.291.367.367,0,0,0-.361.025,1.322,1.322,0,0,0-.347.354,1.392,1.392,0,0,0-.133.209" transform="translate(-96.849 -54.762)" fill="#fff"/>
          <path id="Path_69114" data-name="Path 69114" d="M162.244,95.809l.181.042a1.546,1.546,0,0,1,.386.13.284.284,0,0,1,.055.037c.1.091.11.121.056.235a.624.624,0,0,1-.411.344,1.989,1.989,0,0,0-.588.234,1.687,1.687,0,0,0-.451.423,1.526,1.526,0,0,0-.261.575,1.293,1.293,0,0,0,.231,1.015,1.1,1.1,0,0,0,.436.349,1.419,1.419,0,0,0,.879.136,1.94,1.94,0,0,0,.887-.417,1.48,1.48,0,0,0,.26-.288c.029-.039.056-.078.085-.117a.157.157,0,0,1,.024-.028.032.032,0,0,1,.042.006c.018.016.009.032.005.047a.413.413,0,0,1-.057.1,3.215,3.215,0,0,1-.474.668,2.34,2.34,0,0,1-.4.35.828.828,0,0,1-.1.056,2.542,2.542,0,0,1-.683.239,1.458,1.458,0,0,1-.743-.11,1.308,1.308,0,0,1-.478-.342,1.106,1.106,0,0,1-.2-.335,1.723,1.723,0,0,1-.131-.674,1.669,1.669,0,0,1,.228-.788,4.106,4.106,0,0,1,.394-.6,1.673,1.673,0,0,1,.318-.292,1.721,1.721,0,0,1,.4-.252c.1-.039.2-.069.306-.1a.318.318,0,0,0,.128-.064c.023-.021.02-.04-.005-.065a.352.352,0,0,0-.124-.088,2.165,2.165,0,0,0-.436-.1c-.092-.008-.184-.009-.276-.013a.144.144,0,0,1-.038,0,.046.046,0,0,1-.03-.074c.074-.081.126-.19.22-.246a.627.627,0,0,1,.194-.094l.027-.009a.207.207,0,0,0,.147-.186c.012-.092.029-.181.034-.275.01-.194.026-.386.052-.573a2.172,2.172,0,0,1,.129-.57.786.786,0,0,1,.045-.1c.091-.141.176-.288.276-.418a.112.112,0,0,1,.014-.018c.021-.018.041-.061.07-.029s0,.062-.018.084a1.513,1.513,0,0,0-.16.528c-.04.216-.05.444-.085.663a3.374,3.374,0,0,1-.157.584,1.691,1.691,0,0,1-.188.373.058.058,0,0,0-.012.054" transform="translate(-93.26 -54.236)" fill="#fff"/>
          <path id="Path_69115" data-name="Path 69115" d="M178.226,103.762a2.087,2.087,0,0,1,.159-.326,1.226,1.226,0,0,1,.378-.44,1.3,1.3,0,0,1,.564-.249c.1-.021.2-.034.3-.051a.124.124,0,0,0,.087-.036.5.5,0,0,0-.176-.123,2.372,2.372,0,0,0-.575-.125.346.346,0,0,1-.1-.019.079.079,0,0,1-.039-.121.132.132,0,0,1,.021-.029,1.5,1.5,0,0,1,.581-.368,1.424,1.424,0,0,1,.417-.066.235.235,0,0,0,.039-.008c0-.036-.021-.054-.038-.076a1.016,1.016,0,0,1-.112-.177.289.289,0,0,1-.029-.16.419.419,0,0,1,.174-.311c.067-.053.137-.1.206-.149a.114.114,0,0,1,.147.015.518.518,0,0,1,.146.159c.037.066.078.131.112.2a.483.483,0,0,1,.032.41.667.667,0,0,1-.336.363.332.332,0,0,1-.206,0,2.593,2.593,0,0,0-.328-.042.482.482,0,0,0-.209.035c-.068.029-.138.056-.214.087a.113.113,0,0,0,.09.043c.055.01.111.025.166.04a1.053,1.053,0,0,1,.232.1.538.538,0,0,1,.144.13.2.2,0,0,1,.047.138.3.3,0,0,1-.077.213.348.348,0,0,1-.2.084c-.12.013-.242.02-.361.037a1.063,1.063,0,0,0-.6.283.374.374,0,0,0-.073.088.1.1,0,0,0,.017.125,1.076,1.076,0,0,0,.21.185c.036.029.073.054.108.084a.223.223,0,0,1,.076.254,2.844,2.844,0,0,1-.193.465.31.31,0,0,1-.049.073.364.364,0,0,1-.376.112c-.058-.015-.116-.026-.175-.044a.621.621,0,0,1-.376-.394,1.361,1.361,0,0,1-.092-.273c-.013-.073-.048-.087-.088-.04a.36.36,0,0,0-.049.063.377.377,0,0,1-.257.165c-.136.041-.276.067-.414.1-.021.005-.042.01-.058-.021a.055.055,0,0,1,.01-.062.428.428,0,0,1,.161-.146,2.186,2.186,0,0,0,.307-.186,1.554,1.554,0,0,0,.55-.735,2.563,2.563,0,0,1,.163-.374.653.653,0,0,1,.046-.066.025.025,0,0,1,.043,0,.061.061,0,0,1,.013.057.567.567,0,0,1-.026.074c-.041.075-.064.164-.1.241a.828.828,0,0,0,.163.784.063.063,0,0,0,.016.009" transform="translate(-102.589 -58.527)" fill="#fff"/>
          <path id="Path_69116" data-name="Path 69116" d="M132.786,89.228a.705.705,0,0,0,.231.1,4.144,4.144,0,0,0,.467.084,1.462,1.462,0,0,1,.2.043c.088.026.108.074.078.163a.523.523,0,0,1-.2.275c-.3.2-.594.429-.9.631a1.821,1.821,0,0,0-.189.154,1.824,1.824,0,0,1-.149.113.256.256,0,0,1-.249.037c-.112-.038-.223-.077-.337-.105a.732.732,0,0,0-.609.115,2.194,2.194,0,0,0-.429.391,4.084,4.084,0,0,1-.857.772,2.5,2.5,0,0,1-.926.354.077.077,0,0,1-.076-.019c.013-.055.057-.069.1-.087q.292-.127.571-.281a3.055,3.055,0,0,0,.838-.717c.146-.173.286-.351.424-.53a1.934,1.934,0,0,1,.783-.627,1.293,1.293,0,0,1,.567-.1.978.978,0,0,1,.4.129.219.219,0,0,0,.264-.011c.116-.091.239-.172.37-.265a1.258,1.258,0,0,0-.248-.077,1.16,1.16,0,0,1-.315-.113.461.461,0,0,1-.118-.093.162.162,0,0,1-.039-.185.892.892,0,0,1,.379-.431c.157-.084.308-.177.472-.245s.32-.135.484-.194a1.122,1.122,0,0,0,.469-.325,5.277,5.277,0,0,0,.474-.671.927.927,0,0,1,.153-.2.3.3,0,0,1,.037-.029c.017-.011.036-.03.058-.014s.021.051.019.078a.5.5,0,0,1-.087.266c-.168.236-.333.475-.5.713a1.239,1.239,0,0,1-.685.515,4.327,4.327,0,0,0-.9.359c-.009.005-.02.007-.018.03" transform="translate(-74.725 -50.611)" fill="#fff"/>
          <path id="Path_69117" data-name="Path 69117" d="M156,92.519a.113.113,0,0,1-.028.072q-.155.19-.312.378a.149.149,0,0,1-.034.029c-.027.016-.052.015-.07-.03a.848.848,0,0,0-.215-.287c-.034-.034-.071-.066-.1-.1s-.052-.034-.077,0c-.063.081-.131.158-.2.236a.527.527,0,0,1-.047.05c-.057.049-.082.046-.141-.024a2.568,2.568,0,0,0-.281-.288c-.083-.072-.089-.117-.031-.194a2.245,2.245,0,0,1,.228-.248c.042-.04.082-.083.126-.121s.047-.035.093.012a2.422,2.422,0,0,1,.29.319c.029.043.047.029.068.006.076-.082.152-.162.228-.243.016-.017.031-.034.047-.048.049-.044.05-.041.108.021s.119.121.18.179a.729.729,0,0,1,.152.209.121.121,0,0,1,.019.075" transform="translate(-89.565 -53.34)" fill="#fff"/>
          <path id="Path_69118" data-name="Path 69118" d="M149.824,102.163a.148.148,0,0,1-.025.059c-.11.133-.207.282-.31.423a.136.136,0,0,1-.029.027c-.035.027-.052.024-.089-.021a2.371,2.371,0,0,0-.315-.3c-.035-.03-.055-.03-.078.008a1.875,1.875,0,0,1-.154.242c-.072.088-.108.09-.193-.01a2.351,2.351,0,0,0-.334-.305c-.081-.065-.091-.115-.031-.189s.129-.152.193-.227c.047-.055.094-.11.142-.164s.06-.055.126.005.156.136.233.206a.845.845,0,0,1,.071.073c.053.061.052.061.1.007a3.231,3.231,0,0,1,.219-.252c.026-.026.044-.032.081,0q.154.127.3.268a.528.528,0,0,1,.083.1.069.069,0,0,1,.013.047" transform="translate(-85.973 -58.968)" fill="#fff"/>
          <path id="Path_69119" data-name="Path 69119" d="M129.26,86.36a.142.142,0,0,1-.029.059c-.121.132-.228.28-.343.42a.135.135,0,0,1-.031.027c-.038.026-.056.022-.1-.025a2.591,2.591,0,0,0-.336-.313c-.037-.031-.06-.033-.084,0a1.8,1.8,0,0,1-.171.241c-.079.087-.118.088-.208-.017a2.609,2.609,0,0,0-.356-.324c-.086-.069-.1-.121-.031-.194s.142-.15.213-.225c.052-.054.1-.109.156-.162s.066-.054.136.009.166.145.249.219a.874.874,0,0,1,.076.077c.057.064.056.064.105.011a3.315,3.315,0,0,1,.241-.249c.029-.025.049-.031.088,0q.165.135.32.284a.543.543,0,0,1,.088.107.069.069,0,0,1,.013.049" transform="translate(-73.969 -49.771)" fill="#fff"/>
          <path id="Path_69120" data-name="Path 69120" d="M153.852,102.4c.07-.078.139-.156.208-.233.033-.036.057-.092.1-.1s.085.066.126.1a1.49,1.49,0,0,1,.244.244c.085.12.087.141.005.226a3.658,3.658,0,0,0-.243.3c-.013.016-.026.033-.04.049-.07.08-.074.079-.149-.026a2.209,2.209,0,0,0-.271-.272c-.023-.023-.038-.013-.052.007-.05.069-.1.138-.152.2a.476.476,0,0,1-.109.112.049.049,0,0,1-.077-.016,1.762,1.762,0,0,0-.309-.313c-.108-.1-.117-.149-.035-.244.105-.125.21-.25.323-.365.049-.05.055-.048.108.015a2.4,2.4,0,0,0,.2.192l.122.119" transform="translate(-88.769 -59.185)" fill="#fff"/>
          <path id="Path_69121" data-name="Path 69121" d="M134.852,97.98c.077-.08.152-.16.23-.239.037-.037.063-.094.115-.1s.091.069.134.107a1.56,1.56,0,0,1,.26.256c.09.125.092.146,0,.234a3.746,3.746,0,0,0-.268.306c-.014.017-.029.034-.044.05-.077.082-.081.081-.161-.029a2.255,2.255,0,0,0-.289-.285c-.025-.024-.041-.013-.056.007-.055.071-.111.142-.168.21a.52.52,0,0,1-.12.115.054.054,0,0,1-.084-.017,1.817,1.817,0,0,0-.33-.328c-.115-.105-.124-.155-.034-.254.117-.128.232-.257.357-.375.054-.051.061-.05.117.017a2.611,2.611,0,0,0,.209.2l.131.125" transform="translate(-77.708 -56.61)" fill="#fff"/>
          <path id="Path_69122" data-name="Path 69122" d="M128.922,95.655c.071-.072.14-.144.211-.214.034-.033.058-.084.106-.091s.083.062.123.1a1.423,1.423,0,0,1,.237.232c.082.113.084.132,0,.211a3.5,3.5,0,0,0-.247.274c-.013.016-.026.031-.041.045-.071.074-.074.073-.147-.027a2.064,2.064,0,0,0-.263-.258c-.023-.022-.037-.012-.052.006-.051.063-.1.127-.155.189a.473.473,0,0,1-.11.1.05.05,0,0,1-.076-.016,1.659,1.659,0,0,0-.3-.3c-.1-.1-.113-.141-.031-.229.108-.115.214-.23.328-.336.05-.046.055-.045.107.016a2.349,2.349,0,0,0,.19.182l.119.113" transform="translate(-74.311 -55.282)" fill="#fff"/>
          <path id="Path_69123" data-name="Path 69123" d="M128.563,91.748a.2.2,0,0,1,.138.107.156.156,0,0,0,.118.088.293.293,0,0,0,.249-.045.608.608,0,0,0,.168-.21.329.329,0,0,1,.05-.08.031.031,0,0,1,.038-.009.043.043,0,0,1,.018.043.519.519,0,0,1-.01.093,1.84,1.84,0,0,1-.291.658.76.76,0,0,1-.284.243.463.463,0,0,1-.324.031.2.2,0,0,1-.146-.113.145.145,0,0,0-.121-.082.3.3,0,0,0-.2.039.825.825,0,0,0-.189.153l-.024.025c-.022.022-.048.051-.081.021s-.01-.064,0-.088c.039-.084.079-.166.125-.244a1.826,1.826,0,0,1,.39-.509.6.6,0,0,1,.216-.121.281.281,0,0,1,.155,0" transform="translate(-74.044 -53.126)" fill="#fff"/>
          <path id="Path_69124" data-name="Path 69124" d="M139.013,97.89a.171.171,0,0,1,.009-.1,6,6,0,0,0,.169-.845c.04-.259.077-.518.115-.777.014-.1.033-.193.043-.292a1.476,1.476,0,0,1,.119-.438,5.179,5.179,0,0,1,.281-.556c.02-.035.039-.106.087-.073s0,.079-.011.116c-.069.269-.112.549-.159.828-.07.409-.117.828-.207,1.23a2.013,2.013,0,0,1-.376.85c-.018.023-.033.053-.071.059" transform="translate(-80.626 -54.984)" fill="#fff"/>
          <path id="Path_69125" data-name="Path 69125" d="M157.962,102.127a3.058,3.058,0,0,1,.087-.475,1.918,1.918,0,0,0,.052-.332c.021-.287.047-.573.072-.858.01-.119.013-.24.032-.355a1.876,1.876,0,0,1,.194-.616c.047-.086.086-.181.129-.271a.221.221,0,0,1,.017-.026c.017-.025.03-.069.068-.036s.019.066.01.1c-.029.116-.069.225-.091.345a2.387,2.387,0,0,0-.045.322c-.012.261-.046.515-.073.772a4.475,4.475,0,0,1-.2.988,3.654,3.654,0,0,0-.134.392c-.011.051-.05.074-.069.118-.007.016-.017.031-.036.019s-.015-.032-.015-.05,0-.024,0-.036" transform="translate(-91.616 -57.505)" fill="#fff"/>
          <path id="Path_69126" data-name="Path 69126" d="M155.753,89.942c.008.006.017.013.026.022.133.126.262.259.384.4.048.056.054.077.013.12a4.6,4.6,0,0,0-.327.413c-.029.038-.049.035-.091-.008-.1-.1-.193-.2-.291-.3-.027-.028-.057-.053-.086-.08-.06-.056-.066-.083-.024-.141.03-.042.061-.082.094-.121.077-.088.154-.175.233-.26.018-.02.035-.045.069-.041" transform="translate(-90.092 -52.167)" fill="#fff"/>
          <path id="Path_69127" data-name="Path 69127" d="M172.272,105.165a.1.1,0,0,1,.023.018c.071.092.155.165.229.252a1.229,1.229,0,0,1,.078.11.127.127,0,0,1,.01.146,2.591,2.591,0,0,1-.276.393.227.227,0,0,1-.046.034c-.025.018-.05.012-.07-.024a1.874,1.874,0,0,0-.3-.346.125.125,0,0,1-.034-.15.247.247,0,0,1,.037-.058q.144-.174.289-.345c.014-.017.028-.036.056-.03" transform="translate(-99.689 -60.996)" fill="#fff"/>
          <path id="Path_69128" data-name="Path 69128" d="M176.754,110.073a.342.342,0,0,1-.032.061c-.1.125-.194.248-.292.371a.167.167,0,0,1-.037.034c-.02.014-.037.011-.056-.02a1.493,1.493,0,0,0-.315-.37.087.087,0,0,1-.029-.094.188.188,0,0,1,.042-.083l.278-.332c.013-.015.027-.028.04-.041s.038-.016.058.007a3.156,3.156,0,0,1,.288.336c.016.025.031.051.045.077a.072.072,0,0,1,.009.052" transform="translate(-102.075 -63.562)" fill="#fff"/>
          <path id="Path_69129" data-name="Path 69129" d="M144.889,96.78l.018.019c.111.131.236.243.355.362l.007.006c.068.071.074.091.029.164-.091.144-.185.286-.278.428a.3.3,0,0,1-.031.037c-.028.029-.052.029-.092-.006-.128-.114-.247-.241-.37-.362a.116.116,0,0,1-.012-.164q.106-.157.215-.31a1.052,1.052,0,0,1,.109-.152c.013-.013.024-.03.048-.022" transform="translate(-83.804 -56.132)" fill="#fff"/>
          <path id="Path_69130" data-name="Path 69130" d="M137.587,87.278l.018.019c.114.133.241.249.362.37l.007.007c.069.072.075.093.028.164-.094.142-.191.282-.287.423a.227.227,0,0,1-.032.037c-.028.028-.053.028-.094-.008-.13-.117-.251-.247-.377-.37a.114.114,0,0,1-.011-.165c.073-.1.147-.2.222-.306a1.11,1.11,0,0,1,.113-.15c.013-.013.025-.029.05-.021" transform="translate(-79.561 -50.62)" fill="#fff"/>
          <path id="Path_69131" data-name="Path 69131" d="M183.23,109.417a.565.565,0,0,1,.167.065.12.12,0,0,1,.068.148.359.359,0,0,1-.09.19,1.045,1.045,0,0,1-.184.193.1.1,0,0,0-.019.021c-.05.067-.042.107.035.16a.437.437,0,0,0,.226.071.86.86,0,0,0,.3-.023.108.108,0,0,1,.033,0,.029.029,0,0,1,.028.024.032.032,0,0,1-.01.035.46.46,0,0,1-.209.116.688.688,0,0,1-.392,0,.294.294,0,0,1-.106-.061.169.169,0,0,1-.057-.207.677.677,0,0,1,.211-.312.561.561,0,0,0,.079-.079c.039-.047.034-.069-.021-.1a.513.513,0,0,0-.281-.074c-.016,0-.032.005-.044-.018a.056.056,0,0,1,0-.049c.006-.017.015-.032.022-.049a.119.119,0,0,1,.168-.078c.021.008.042.012.074.021" transform="translate(-106.117 -63.444)" fill="#fff"/>
          <path id="Path_69132" data-name="Path 69132" d="M171.816,96.74a.1.1,0,0,1-.019.046c-.08.119-.081.115-.214.148-.232.057-.475.075-.707.136a3.751,3.751,0,0,0-.514.145c-.012.005-.024.017-.039,0s-.005-.031,0-.047a.223.223,0,0,1,.156-.166,8.328,8.328,0,0,1,.993-.211,1.327,1.327,0,0,0,.306-.073c.011,0,.021-.01.032.005a.066.066,0,0,1,.006.021" transform="translate(-98.784 -56.092)" fill="#fff"/>
          <path id="Path_69133" data-name="Path 69133" d="M135.334,85.817a.1.1,0,0,1-.024.048c-.1.125-.1.12-.255.152-.273.055-.559.067-.833.125a4.773,4.773,0,0,0-.607.141c-.014.005-.029.017-.046-.006s-.005-.033,0-.05a.252.252,0,0,1,.189-.173,10.653,10.653,0,0,1,1.171-.2,1.667,1.667,0,0,0,.36-.069c.013,0,.026-.01.037.007a.062.062,0,0,1,.006.023" transform="translate(-77.467 -49.754)" fill="#fff"/>
          <path id="Path_69134" data-name="Path 69134" d="M160.251,90.907a.756.756,0,0,1-.081.237,1.256,1.256,0,0,1-.784.575.506.506,0,0,1-.051.008.031.031,0,0,1-.031-.026c0-.014.008-.018.016-.022l.172-.076a1.687,1.687,0,0,0,.394-.244.433.433,0,0,0,.043-.04c.068-.072.068-.076-.009-.171a.4.4,0,0,1-.037-.053c-.076-.134-.076-.183,0-.28a.424.424,0,0,1,.231-.156c.07-.016.1,0,.116.093.011.054.013.108.018.152m-.168.121a.28.28,0,0,0,0-.116c-.009-.062-.026-.074-.07-.058s-.031.034-.014.067a.333.333,0,0,0,.079.106" transform="translate(-92.397 -52.581)" fill="#fff"/>
          <path id="Path_69135" data-name="Path 69135" d="M180.362,99.574a.031.031,0,0,1-.02-.041.29.29,0,0,1,.121-.173,2.587,2.587,0,0,1,.537-.184,1.875,1.875,0,0,0,.234-.066,1.4,1.4,0,0,0,.165-.04.019.019,0,0,1,.026.008.031.031,0,0,1,0,.038c-.026.047-.052.093-.079.139a.063.063,0,0,1-.042.031c-.118.026-.237.051-.354.081a3.477,3.477,0,0,0-.438.133.394.394,0,0,0-.111.062.035.035,0,0,1-.037.011" transform="translate(-104.598 -57.46)" fill="#fff"/>
          <path id="Path_69136" data-name="Path 69136" d="M176.933,97.579l-.222-.087a.089.089,0,0,0-.092.013c-.011.008-.02.021-.035.018s-.032-.016-.023-.035a.367.367,0,0,1,.162-.194c.047-.021.1.014.152.039a.553.553,0,0,0,.224.069c.026,0,.034.018.036.045a.206.206,0,0,1-.031.113.547.547,0,0,1-.249.213.879.879,0,0,1-.354.084c-.022,0-.055.014-.067-.033s.018-.05.041-.06c.08-.037.17-.046.251-.077.048-.018.1-.034.145-.053a.092.092,0,0,0,.063-.055" transform="translate(-102.33 -56.428)" fill="#fff"/>
          <path id="Path_69137" data-name="Path 69137" d="M180.846,101.57a.235.235,0,0,1-.026.161c-.018.042-.042.078-.063.118a.163.163,0,0,1-.163.092.07.07,0,0,1-.06-.024c-.035-.054-.054-.026-.08-.006a.181.181,0,0,1-.113.055.169.169,0,0,1-.137-.2.523.523,0,0,1,.105-.214.1.1,0,0,1,.028-.018.088.088,0,0,1-.012.087.091.091,0,0,0,.055.131.111.111,0,0,0,.139-.073,1.008,1.008,0,0,1,.051-.089c.007-.013.018-.026.034-.01a.051.051,0,0,1,.013.048c0,.016-.008.032-.011.047a.05.05,0,0,0,.029.063.087.087,0,0,0,.115-.045.574.574,0,0,1,.067-.123c.005-.008.013-.012.028-.005" transform="translate(-104.517 -58.893)" fill="#fff"/>
          <path id="Path_69138" data-name="Path 69138" d="M149.556,91.236a2.207,2.207,0,0,0,.526-.228l-.251-.091c-.051-.018-.083.013-.119.036-.013.008-.026.021-.041,0s0-.029.005-.04a.533.533,0,0,1,.159-.178.116.116,0,0,1,.12,0,.8.8,0,0,0,.219.076c.058.011.069.031.064.095a.224.224,0,0,1-.05.121.571.571,0,0,1-.344.236c-.062.013-.126.02-.189.027-.04.005-.04,0-.1-.048" transform="translate(-86.743 -52.615)" fill="#fff"/>
          <path id="Path_69139" data-name="Path 69139" d="M132.57,89.768a2.45,2.45,0,0,0,.57-.235l-.269-.095c-.055-.02-.09.013-.129.037-.013.008-.028.021-.044,0s0-.03.006-.042a.571.571,0,0,1,.173-.184.129.129,0,0,1,.129,0,.852.852,0,0,0,.235.079c.062.012.074.033.068.1a.232.232,0,0,1-.055.126.629.629,0,0,1-.375.244c-.067.013-.136.02-.2.028-.043.005-.044,0-.106-.05" transform="translate(-76.891 -51.753)" fill="#fff"/>
          <path id="Path_69140" data-name="Path 69140" d="M143.822,89.4a.05.05,0,0,1,.013.063.856.856,0,0,1-.155.3c-.041.043-.077.039-.127-.013a.368.368,0,0,1-.078-.3,1.863,1.863,0,0,1,.24-.531c.023-.037.046-.074.07-.11.008-.012.017-.034.037-.018s.007.034,0,.047l-.063.116c-.055.1-.1.208-.151.316a.283.283,0,0,0,0,.205.121.121,0,0,0,.074.091c.036.01.049-.023.065-.048.025-.04.035-.094.076-.118" transform="translate(-83.212 -51.493)" fill="#fff"/>
          <path id="Path_69141" data-name="Path 69141" d="M127.23,89.179a.051.051,0,0,1,.013.066.889.889,0,0,1-.171.312c-.045.045-.084.04-.137-.014a.368.368,0,0,1-.079-.312,1.923,1.923,0,0,1,.266-.551c.025-.039.05-.077.076-.113.009-.013.019-.036.04-.019s.007.034,0,.049c-.023.04-.047.079-.069.12-.06.105-.115.216-.167.328a.283.283,0,0,0,0,.213.124.124,0,0,0,.079.094c.038.01.053-.024.07-.05.027-.042.039-.1.084-.122" transform="translate(-73.572 -51.354)" fill="#fff"/>
          <path id="Path_69142" data-name="Path 69142" d="M127.4,89.593c-.007,0-.016.006-.02,0s-.006-.019,0-.028l.021.026" transform="translate(-73.877 -51.949)" fill="#fff"/>
          <path id="Path_69143" data-name="Path 69143" d="M145.675,92.305c.019.007.041-.04.06-.081a.223.223,0,0,0,.029-.082.2.2,0,0,0-.138-.183c-.04,0-.068.025-.1.063a.391.391,0,0,0-.063.1.836.836,0,0,0-.05.123c-.057.182-.075.484-.1.479s-.023-.154-.091-.393a.748.748,0,0,0-.2-.383c-.062-.052-.1-.044-.1-.042-.037.01-.052.062-.064.1a.178.178,0,0,0-.012.093c.006.031.041.068.109.14.036.038.059.059.084.059s.018-.005.028,0c.028.011.041.071.047.094.018.079.053.155.068.234a1.267,1.267,0,0,0,.091.386c.031.009.065-.123.088-.214.051-.2.042-.291.1-.462.06-.186.1-.194.117-.191s.055.04.07.064c.03.048.025.087.041.093" transform="translate(-84.005 -53.306)" fill="#fff"/>
          <path id="Path_69144" data-name="Path 69144" d="M146.106,77.049q.035-.367.38-.262a2.148,2.148,0,0,1,.315.142,2.135,2.135,0,0,0,.717.231c.1.013.13.047.1.1l-.091.185a.056.056,0,0,1-.064.035,1.327,1.327,0,0,0-.283-.035q.071.142.427.223c.057.013.09.058.1.136a.321.321,0,0,1-.025.167c-.023.052-.053.073-.09.063a.92.92,0,0,1-.469-.259.439.439,0,0,1-.077-.332,1.125,1.125,0,0,0-.449.047.655.655,0,0,0-.381.286.7.7,0,0,0-.1.42.9.9,0,0,0,.517.735,3.478,3.478,0,0,0,1.082.331c.072.012.107.038.1.076s-.041.047-.118.052a.594.594,0,0,0-.225.06.933.933,0,0,1-.139.06.158.158,0,0,1-.06,0,1.765,1.765,0,0,1-1.126-.53,1.032,1.032,0,0,1-.178-.8,1.071,1.071,0,0,1,.641-.968.69.69,0,0,0-.45-.079c-.048.011-.069-.017-.063-.084m.715-.858c.012-.013.028-.013.047,0a.871.871,0,0,1,.19.194.049.049,0,0,1,0,.057l-.145.187c-.016.016-.032.013-.05-.009s-.08-.089-.187-.2c-.018-.019-.02-.037-.006-.053Z" transform="translate(-84.66 -44.186)" fill="#fff"/>
          <path id="Path_69145" data-name="Path 69145" d="M150.238,79.652a.35.35,0,0,0,.161.174.121.121,0,0,1,.082.089.436.436,0,0,1-.01.126.4.4,0,0,1-.035.121.048.048,0,0,1-.06.024.528.528,0,0,1-.28-.284.392.392,0,0,1-.379.076.11.11,0,0,1-.067-.1l-.016-.131a.131.131,0,0,1,.026-.1.074.074,0,0,1,.08-.032q.322.075.4-.052c.017-.026.035-.036.054-.029a.056.056,0,0,1,.038.063c0,.033,0,.052,0,.055m-.092.6c.012-.013.027-.013.047,0a.866.866,0,0,1,.189.192.05.05,0,0,1,0,.058l-.143.189c-.016.016-.031.014-.047-.006s-.062-.07-.137-.148l-.1.135q-.023.025-.049-.009c-.017-.022-.08-.088-.187-.2a.037.037,0,0,1-.006-.053l.144-.178c.011-.013.027-.013.047,0a.881.881,0,0,1,.145.135Z" transform="translate(-86.788 -46.129)" fill="#fff"/>
          <path id="Path_69146" data-name="Path 69146" d="M151.655,78.464c.017-.038.042-.045.076-.02s.034.063.005.114c-.008.015-.017.03-.027.046q.283.209.425-.046c.019-.038.043-.045.073-.022a.077.077,0,0,1,.016.1.288.288,0,0,0-.029.089c0,.043.034.08.1.11s.11.032.132.006a.535.535,0,0,0,.073-.186c.007-.026.022-.035.046-.027a.066.066,0,0,1,.046.05.459.459,0,0,0,.227.346.158.158,0,0,1,.074.134.381.381,0,0,1-.013.174c-.017.046-.045.064-.081.052a.48.48,0,0,1-.306-.408,1.115,1.115,0,0,1-.1.2.106.106,0,0,1-.125.059.447.447,0,0,1-.281-.227.279.279,0,0,1-.26.034.409.409,0,0,1-.227-.172.273.273,0,0,1-.224.03q-.075-.024-.086-.176c0-.026,0-.062,0-.108s.023-.077.068-.081a.13.13,0,0,1,.043,0q.29.068.352-.08m.552-.733c.012-.013.027-.013.047,0a.869.869,0,0,1,.186.192.049.049,0,0,1,0,.057l-.14.186c-.014.017-.029.016-.045,0s-.055-.064-.117-.13l-.092.123c-.015.016-.032.013-.049-.009s-.079-.088-.184-.2a.037.037,0,0,1-.006-.053l.142-.176q.034-.04.172.114Zm-.168-.4c.011-.013.027-.013.046,0a.864.864,0,0,1,.187.192.049.049,0,0,1,0,.057l-.141.186c-.015.016-.031.013-.048-.009s-.079-.088-.184-.2c-.017-.018-.019-.036-.006-.051Z" transform="translate(-87.693 -44.849)" fill="#fff"/>
          <path id="Path_69147" data-name="Path 69147" d="M155.246,77.492a7.076,7.076,0,0,1,.009,1.237q-.074.485-.335.452c-.044-.006-.068-.045-.07-.115a1.128,1.128,0,0,1,.008-.164c.007-.063.034-.09.082-.081q.147.028.193-.043c0-.048-.023-.5-.073-1.357-.006-.079-.011-.133-.016-.162a.173.173,0,0,1,.009-.136L155.13,77c.028-.047.052-.026.074.064a.643.643,0,0,0,.108.238q.051.069,0,.118Z" transform="translate(-89.814 -44.644)" fill="#fff"/>
          <path id="Path_69148" data-name="Path 69148" d="M156.819,77.693q.061-.115.066.082l.022.747a3.119,3.119,0,0,1-.106,1.224c-.019.032-.037.042-.053.03s-.02-.063-.013-.152q.016-.23-.034-1.069l-.029-.514a.209.209,0,0,1,.024-.117Z" transform="translate(-90.87 -45.038)" fill="#fff"/>
          <path id="Path_69149" data-name="Path 69149" d="M160.012,79.375c.011-.013.026-.013.045,0a.853.853,0,0,1,.182.188.049.049,0,0,1,0,.056l-.135.184c-.014.016-.029.013-.045-.007s-.06-.068-.131-.144l-.1.131c-.015.016-.03.013-.047-.008s-.077-.086-.18-.194a.037.037,0,0,1-.006-.052l.136-.173c.011-.013.026-.013.045,0a.844.844,0,0,1,.139.132Zm.208.543c.042-.042.065-.007.068.1l.037.733c.01.192.059.3.148.326a.12.12,0,0,1,.081.094.33.33,0,0,1-.013.179c-.022.066-.05.093-.084.084a.362.362,0,0,1-.224-.168.883.883,0,0,1-.076-.352q-.107.135-.147.145a.252.252,0,0,1-.132-.027.56.56,0,0,1-.207-.143.164.164,0,0,1-.044-.145.525.525,0,0,1,.069-.173.575.575,0,0,1,.09-.125.945.945,0,0,1,.326-.174c-.005-.158,0-.25.027-.273Zm-.1.58a.361.361,0,0,0-.279.105c-.008.01-.007.021,0,.033a.449.449,0,0,0,.289.1q-.005-.1-.014-.241" transform="translate(-92.566 -46.02)" fill="#fff"/>
          <path id="Path_69150" data-name="Path 69150" d="M161.881,83.239c.016-.037.04-.044.072-.02s.033.061.006.112l-.025.045q.272.2.406-.048c.018-.037.041-.045.07-.022a.078.078,0,0,1,.016.1.266.266,0,0,0-.026.088c0,.042.033.078.1.107s.105.03.126.005a.533.533,0,0,0,.068-.184c.006-.025.021-.034.044-.027a.064.064,0,0,1,.044.05.452.452,0,0,0,.22.338.155.155,0,0,1,.071.131.371.371,0,0,1-.011.171c-.016.046-.042.063-.077.052a.469.469,0,0,1-.3-.4,1.113,1.113,0,0,1-.089.2.1.1,0,0,1-.119.059.431.431,0,0,1-.27-.221.261.261,0,0,1-.248.036.4.4,0,0,1-.218-.167.255.255,0,0,1-.213.031c-.048-.015-.076-.073-.084-.173,0-.025,0-.06,0-.106s.021-.076.064-.08a.13.13,0,0,1,.041,0q.277.065.336-.081" transform="translate(-93.636 -48.259)" fill="#fff"/>
          <path id="Path_69151" data-name="Path 69151" d="M165.435,84.12q.079.026,0,.159a.357.357,0,0,0,.173.122c.113.038.212-.053.3-.272.013-.034.032-.042.056-.024a.072.072,0,0,1,.026.077l-.027.095a.541.541,0,0,0,.119.112.439.439,0,0,0,.121.066.78.78,0,0,0-.033-.144.1.1,0,0,1,.011-.094l.084-.123c.028-.024.048.006.059.092a1.042,1.042,0,0,1-.02.391q-.047.177-.139.215a.07.07,0,0,1-.036,0,.543.543,0,0,1-.3-.215.3.3,0,0,1-.263.183q-.161,0-.311-.245c-.108.108-.193.153-.254.135-.036-.011-.058-.051-.068-.119,0-.039-.008-.073-.009-.1,0-.1.026-.145.089-.133a.323.323,0,0,0,.372-.144c.014-.024.029-.033.044-.028" transform="translate(-95.66 -48.771)" fill="#fff"/>
          <path id="Path_69152" data-name="Path 69152" d="M169.015,84.51q-.112.53-.5.612a.4.4,0,0,1-.207-.006.841.841,0,0,1-.329-.312c-.024-.031-.031-.055-.021-.071s.031-.012.062.012a.5.5,0,0,0,.509.05.636.636,0,0,0,.379-.333.693.693,0,0,1-.263-.15.282.282,0,0,1-.053-.275q.069-.271.186-.318t.2.1a.9.9,0,0,1,.068.341.134.134,0,0,1,.1.137.464.464,0,0,1-.019.156c-.016.053-.039.076-.071.067l-.042-.012m-.092-1.218a1.636,1.636,0,0,0-.191-.009,1.935,1.935,0,0,0-.212.032.063.063,0,0,1-.068-.041c-.021-.051.006-.095.084-.131a.284.284,0,0,1-.081-.147.37.37,0,0,1,.1-.274.2.2,0,0,1,.243-.087.121.121,0,0,1,.079.142.3.3,0,0,1-.042.137.164.164,0,0,1-.041.041c-.025.011-.045,0-.061-.035a.128.128,0,0,0-.063-.068c-.026-.011-.046-.01-.059,0a.035.035,0,0,0,0,.049.447.447,0,0,0,.225.165.311.311,0,0,0,.075.01.263.263,0,0,1,.077.012.081.081,0,0,1,.042.1q-.057.11-.107.107m-.024.839q-.042-.138-.114-.158a.067.067,0,0,0-.063.014.043.043,0,0,0,0,.052.258.258,0,0,0,.169.11c.01,0,.014,0,.012-.019" transform="translate(-97.414 -47.92)" fill="#fff"/>
          <path id="Path_69153" data-name="Path 69153" d="M171.075,85.161q.183.061.231.616a.1.1,0,0,1-.019.076l-.129.148a.063.063,0,0,1-.088.008,1,1,0,0,1-.319-.313c-.079.231-.177.33-.293.3-.032-.009-.055-.045-.067-.106a.73.73,0,0,1-.017-.163c0-.047.02-.075.057-.083a.094.094,0,0,1,.042,0,.208.208,0,0,0,.231-.091c.02-.025.073-.109.16-.252q.105-.174.213-.137m-.19.271a.633.633,0,0,0,.216.206.219.219,0,0,0-.063-.189.119.119,0,0,0-.152-.017" transform="translate(-98.817 -49.39)" fill="#fff"/>
          <path id="Path_69154" data-name="Path 69154" d="M144.2,113.659a1.6,1.6,0,0,1,.375.095.561.561,0,0,1,.262.183.27.27,0,0,1,.031.2.638.638,0,0,1-.1.287.718.718,0,0,1-.17.137,1.22,1.22,0,0,1-1.029.184q-.723-.235-.443-1.136a1.1,1.1,0,0,1,.225-.413c.028-.029.053-.031.074,0s.016.063-.016.1a.832.832,0,0,0-.19.47.556.556,0,0,0,.479.6,1.185,1.185,0,0,0,.976-.211,1.332,1.332,0,0,0-.52-.2.056.056,0,0,1-.045-.048.1.1,0,0,1,0-.058Z" transform="translate(-82.97 -65.64)" fill="#fff"/>
          <path id="Path_69155" data-name="Path 69155" d="M145.97,110.423q.093,1.059.077,1.193a1.309,1.309,0,0,1-.033.2q-.056.194-.189.221a.749.749,0,0,1-.222,0l-.04-.007,0-.046a.28.28,0,0,1,.024-.128.131.131,0,0,1,.06-.071.688.688,0,0,1,.111-.031l.1-.024q-.018-.35-.061-.8t-.052-.582l-.023-.187a.173.173,0,0,1,.006-.087c.029-.071.048-.121.057-.149s.031-.038.064-.031a.094.094,0,0,1,.068.078.738.738,0,0,0,.109.242.1.1,0,0,1,0,.136Z" transform="translate(-84.425 -63.738)" fill="#fff"/>
          <path id="Path_69156" data-name="Path 69156" d="M148.271,110.406q.061-.093.067.039.021.611,0,1.112t-.021.613a.322.322,0,0,0,.248.336.128.128,0,0,1,.092.122.458.458,0,0,1-.014.118.471.471,0,0,1-.039.119.053.053,0,0,1-.062.03.489.489,0,0,1-.394-.541q0-.2.021-.687a6.841,6.841,0,0,0-.037-.955.2.2,0,0,1,.022-.13Z" transform="translate(-85.917 -64.014)" fill="#fff"/>
          <path id="Path_69157" data-name="Path 69157" d="M150,114.979a.142.142,0,0,1,.115.13.311.311,0,0,1,0,.068q-.04.21-.134.187a.844.844,0,0,1-.5-.454q-.34.25-.522.206c-.066-.016-.1-.08-.113-.192s.016-.176.076-.194a.136.136,0,0,1,.061,0,.513.513,0,0,0,.307-.016.6.6,0,0,0-.225-.134c-.039-.016-.053-.05-.042-.1a.352.352,0,0,1,.173-.218q.275-.168.583.125c.1.1.144.191.123.269a.31.31,0,0,1-.2.186.69.69,0,0,0,.3.139" transform="translate(-86.328 -66.235)" fill="#fff"/>
          <path id="Path_69158" data-name="Path 69158" d="M151.815,113.388q.018-.022.048,0a.8.8,0,0,1,.193.188.052.052,0,0,1,0,.06l-.145.21c-.016.018-.031.017-.048,0s-.063-.069-.139-.145l-.1.149c-.016.018-.032.017-.05-.005s-.081-.087-.191-.194a.039.039,0,0,1-.006-.056l.147-.2c.012-.015.028-.016.048,0a.788.788,0,0,1,.148.13Zm-.213.8.09-.18c.032-.064.057-.072.075-.024a.987.987,0,0,1,.026.637q-.093.334-.376.265c-.038-.009-.063-.052-.074-.127a.819.819,0,0,1-.012-.18.078.078,0,0,1,.065-.079.1.1,0,0,1,.044,0,.264.264,0,0,0,.237-.017.4.4,0,0,0-.058-.16.134.134,0,0,1-.018-.135" transform="translate(-87.772 -65.759)" fill="#fff"/>
          <path id="Path_69159" data-name="Path 69159" d="M155.9,115.926q.067.021.082.13a.546.546,0,0,1-.009.207c-.016.066-.047.1-.092.091q-.236-.03-.3-.333c-.045.05-.084.075-.116.075a.517.517,0,0,1-.391-.155.17.17,0,0,1-.026-.179.569.569,0,0,1,.208-.285.6.6,0,0,1,.291-.112l0-.119a.428.428,0,0,1,.056-.147,1.339,1.339,0,0,1,.078-.137.035.035,0,0,1,.055-.008.066.066,0,0,1,.035.05c0,.018,0,.029,0,.034s0,.011,0,.018,0,.018,0,.032,0,.085-.007.214,0,.249,0,.361a.377.377,0,0,0,.058.225.146.146,0,0,0,.068.039m-.351-.31a.488.488,0,0,0-.181.063.53.53,0,0,0,.1.033.146.146,0,0,0,.079,0q0-.035,0-.1" transform="translate(-89.924 -66.668)" fill="#fff"/>
          <path id="Path_69160" data-name="Path 69160" d="M157.207,109.922c.021-.052.049-.046.083.015a1.214,1.214,0,0,1,.133.909c-.008.029-.021.042-.038.04-.035,0-.054-.024-.055-.064a1.439,1.439,0,0,0-.174-.617.121.121,0,0,1-.011-.095Z" transform="translate(-91.142 -63.735)" fill="#fff"/>
          <path id="Path_69161" data-name="Path 69161" d="M157.5,112.427c.01-.055.031-.079.062-.068s.048.038.049.083a.159.159,0,0,1,0,.016.833.833,0,0,1-.07.276c-.042.086-.1.124-.171.113a.181.181,0,0,1-.115-.092.224.224,0,0,1-.1.078.157.157,0,0,1-.148-.025q-.166-.127-.019-.482c.018-.042.044-.053.076-.032l.006,0a.088.088,0,0,1,.021.1.6.6,0,0,0-.015.06c-.011.065,0,.105.032.121s.087-.021.125-.118c.01-.026.02-.054.03-.086s.032-.057.061-.045l0,0a.064.064,0,0,1,.037.067.06.06,0,0,1,0,.012v0a.368.368,0,0,0-.007.051c0,.053.009.086.039.1l.01,0c.043.012.072-.021.089-.1a.2.2,0,0,0,.007-.036" transform="translate(-91.012 -65.125)" fill="#fff"/>
          <path id="Path_69162" data-name="Path 69162" d="M157.514,115.784a.169.169,0,0,1,.089.147.62.62,0,0,1-.007.2c-.013.06-.028.094-.043.1a.07.07,0,0,1-.04.008.321.321,0,0,1-.2-.126,1.124,1.124,0,0,1-.121-.221.36.36,0,0,1-.145.176.333.333,0,0,1-.186.01.172.172,0,0,1-.123-.136.353.353,0,0,1,0-.217.108.108,0,0,1,.145-.073q.162.04.221-.066c0-.024-.007-.068-.013-.132l-.037-.373c-.018-.155-.028-.263-.032-.324a.2.2,0,0,1,.024-.133l.088-.124a.055.055,0,0,1,.039-.026c.038,0,.062.031.072.1,0,.021.01.1.021.247a3.748,3.748,0,0,0,.1.785.287.287,0,0,0,.15.171" transform="translate(-90.896 -66.398)" fill="#fff"/>
          <path id="Path_69163" data-name="Path 69163" d="M158.485,114.843l.1.777c.014.117.022.2.023.247a.975.975,0,0,1-.011.16q-.059.411-.247.368a.27.27,0,0,1-.165-.2q-.052-.174.01-.242a.112.112,0,0,1,.147-.022.163.163,0,0,0,.058.02c-.005-.07-.022-.207-.051-.411s-.05-.381-.066-.53a.377.377,0,0,1,.092-.241.064.064,0,0,1,.045-.028c.038,0,.06.037.067.1" transform="translate(-91.733 -66.549)" fill="#fff"/>
          <path id="Path_69164" data-name="Path 69164" d="M160.148,113.664q.062-.126.067.081l.024.785a3.478,3.478,0,0,1-.1,1.3c-.019.035-.037.047-.053.036s-.021-.064-.014-.158q.016-.244-.037-1.123l-.031-.54a.24.24,0,0,1,.024-.125Z" transform="translate(-92.8 -65.898)" fill="#fff"/>
          <path id="Path_69165" data-name="Path 69165" d="M163.648,116.468c.043-.048.066-.013.069.1l.04.768c.01.2.061.311.151.33a.111.111,0,0,1,.082.092.365.365,0,0,1-.013.189c-.022.071-.05.1-.085.1a.331.331,0,0,1-.228-.157.911.911,0,0,1-.078-.365c-.072.1-.122.157-.149.165a.24.24,0,0,1-.134-.017.5.5,0,0,1-.211-.132.166.166,0,0,1-.045-.148.616.616,0,0,1,.069-.188.692.692,0,0,1,.091-.139,1.051,1.051,0,0,1,.33-.212.6.6,0,0,1,.027-.291Zm-.095.619a.391.391,0,0,0-.283.135.024.024,0,0,0,.005.034.413.413,0,0,0,.293.083c0-.068-.009-.152-.015-.252" transform="translate(-94.567 -67.54)" fill="#fff"/>
          <path id="Path_69166" data-name="Path 69166" d="M165.639,119.329a1.136,1.136,0,0,1-.448-.3q-.123.265-.262.231c-.045-.012-.073-.053-.085-.124q-.038-.226.053-.251a.1.1,0,0,1,.049,0,.193.193,0,0,0,.185-.034.688.688,0,0,1,.2-.295.183.183,0,0,1,.11-.01.336.336,0,0,1,.264.2.514.514,0,0,1,.08.339.476.476,0,0,1-.079.186c-.032.039-.054.058-.066.055m-.111-.5q-.145-.148-.213-.053a.882.882,0,0,0,.318.215.4.4,0,0,0-.1-.163" transform="translate(-95.604 -68.757)" fill="#fff"/>
          <path id="Path_69167" data-name="Path 69167" d="M166.369,117.342a.435.435,0,0,1,.181.105q.086.08.177.183a1.879,1.879,0,0,0,.622.451.067.067,0,0,1,.041.048.2.2,0,0,1,0,.079.506.506,0,0,1-.077.149.053.053,0,0,1-.081.016,2.685,2.685,0,0,0-.484-.256,1.072,1.072,0,0,0-.388-.071.675.675,0,0,1-.316-.061.143.143,0,0,1-.062-.057c-.014-.024-.008-.047.019-.068a.683.683,0,0,1,.488-.047.563.563,0,0,0-.417-.194.047.047,0,0,1-.047-.026.09.09,0,0,1,0-.108.332.332,0,0,1,.343-.142" transform="translate(-96.264 -68.054)" fill="#fff"/>
          <path id="Path_69168" data-name="Path 69168" d="M169.88,119.373q.021-.079.1.06a1.293,1.293,0,0,1,.122.384,1.1,1.1,0,0,1-.191.915.553.553,0,0,1-.4.23.2.2,0,0,1-.145-.039q-.222-.173-.344-.28c-.029-.024-.037-.048-.027-.071s.03-.026.058-.008a.514.514,0,0,0,.276.1.808.808,0,0,0,.289-.091.7.7,0,0,0,.383-.343.056.056,0,0,0,0-.016,1.242,1.242,0,0,0-.2-.444.079.079,0,0,1-.009-.063Z" transform="translate(-98.014 -69.22)" fill="#fff"/>
        </g>
      </g>
    </g>
  </g>
</svg>
