<svg xmlns="http://www.w3.org/2000/svg" width="15.653" height="15.653" viewBox="0 0 15.653 15.653"><defs><style>.a{fill:#afafaf;}</style></defs><g transform="translate(0)"><path class="a" d="M15.58,1.7h-.529V1.181a1.291,1.291,0,0,0-2.572,0V1.7H11.16V1.181a1.291,1.291,0,0,0-2.572,0V1.7H7.268V1.181A1.238,1.238,0,0,0,5.982,0,1.238,1.238,0,0,0,4.7,1.181V1.7H4.021A1.948,1.948,0,0,0,1.974,3.52V13.828a1.948,1.948,0,0,0,2.047,1.825H15.58a1.948,1.948,0,0,0,2.047-1.825V3.52A1.948,1.948,0,0,0,15.58,1.7ZM13.2,1.181a.564.564,0,0,1,1.127,0v2.1a.564.564,0,0,1-1.127,0Zm-3.892,0a.564.564,0,0,1,1.127,0v2.1a.564.564,0,0,1-1.127,0Zm-3.892,0a.564.564,0,0,1,1.127,0v2.1a.564.564,0,0,1-1.127,0Zm11,12.647a.8.8,0,0,1-.843.752H4.021a.8.8,0,0,1-.843-.752V4.38H16.423Z" transform="translate(-1.974)"/><rect class="a" width="2.213" height="1.756" transform="translate(2.288 6.281)"/><rect class="a" width="2.214" height="1.756" transform="translate(5.242 6.281)"/><rect class="a" width="2.213" height="1.756" transform="translate(8.198 6.281)"/><rect class="a" width="2.214" height="1.756" transform="translate(11.152 6.281)"/><rect class="a" width="2.213" height="1.755" transform="translate(2.288 8.625)"/><rect class="a" width="2.214" height="1.755" transform="translate(5.242 8.625)"/><rect class="a" width="2.213" height="1.755" transform="translate(8.198 8.625)"/><rect class="a" width="2.214" height="1.755" transform="translate(11.152 8.625)"/><rect class="a" width="2.213" height="1.755" transform="translate(2.288 10.969)"/><rect class="a" width="2.214" height="1.755" transform="translate(5.242 10.969)"/><rect class="a" width="2.213" height="1.755" transform="translate(8.198 10.969)"/><rect class="a" width="2.214" height="1.755" transform="translate(11.152 10.969)"/></g></svg>