<svg xmlns="http://www.w3.org/2000/svg" width="48" height="48" viewBox="0 0 48 48">
  <g id="ic_message" transform="translate(4.2 6.154)">
    <g id="XMLID_41_" transform="translate(-1.732 -1.596)">
      <path id="XMLID_4218_" d="M310.081,127.63a.845.845,0,1,0,1.2-1.2l-.011-.011a.845.845,0,0,0-1.2,1.2Z" transform="translate(-283.643 -117.205)" fill="#fff"/>
      <path id="XMLID_4221_" d="M40.07,38.42l2.945-2.945a.845.845,0,0,0-.6-1.442h-6.1A18.421,18.421,0,1,0,5.4,51.445a18.553,18.553,0,0,0,3.386,2.679l-2.546,4.5a.845.845,0,0,0,.735,1.261h4.352a.845.845,0,0,0,.735-.429l1.8-3.18a18.643,18.643,0,0,0,9.125,0l1.8,3.18a.845.845,0,0,0,.735.429H29.87a.845.845,0,0,0,.735-1.261l-2.546-4.5a18.556,18.556,0,0,0,3.386-2.679,18.358,18.358,0,0,0,4.867-8.638h6.105a.845.845,0,0,0,.6-1.442Zm-1.545-.845h-5.9l1.853-1.853h5.9ZM10.83,58.193H8.42l1.839-3.249a18.168,18.168,0,0,0,1.942.826Zm17.591,0h-2.41l-1.372-2.423a18.167,18.167,0,0,0,1.942-.826Zm1.83-7.942a16.806,16.806,0,0,1-3.7,2.8c-.017.008-.033.016-.05.025l-.029.019a16.512,16.512,0,0,1-3.24,1.357.836.836,0,0,0-.131.038,16.895,16.895,0,0,1-9.351,0,.838.838,0,0,0-.131-.038,16.51,16.51,0,0,1-3.24-1.357l-.029-.019c-.016-.009-.033-.017-.05-.025a16.8,16.8,0,0,1-3.7-2.8A16.73,16.73,0,1,1,34.568,34.033h-.438a.845.845,0,0,0-.6.247l-2.243,2.243a13.018,13.018,0,0,0-1.473-4.388.845.845,0,0,0-1.479.817A11.221,11.221,0,0,1,29.7,37.575H25.977a7.607,7.607,0,1,0,0,1.69H29.7A11.311,11.311,0,1,1,23.889,28.5a.845.845,0,0,0,.817-1.479,13.106,13.106,0,0,0-8.025-1.5,13.013,13.013,0,1,0,14.612,14.8l2.24,2.24a.845.845,0,0,0,.6.247h.437A16.676,16.676,0,0,1,30.251,50.251ZM21.18,36.827a.845.845,0,0,0-1.154-.309L18,37.689a.845.845,0,0,0,0,1.463l2.028,1.171a.844.844,0,0,0,1.2-1.058h3.048A5.869,5.869,0,0,1,22.6,42.6h0a5.913,5.913,0,1,1,1.672-5.027H21.227A.843.843,0,0,0,21.18,36.827Zm13.3,4.291-1.853-1.853h5.9l1.853,1.853Z" transform="translate(0 -20)" fill="#fff"/>
    </g>
    <rect id="Rectangle_12552" data-name="Rectangle 12552" width="48" height="48" transform="translate(-4.2 -6.154)" fill="none"/>
  </g>
</svg>
