<svg id="ic_play-button" xmlns="http://www.w3.org/2000/svg" width="96" height="96" viewBox="0 0 96 96">
  <path id="Path_25089" data-name="Path 25089" d="M60.045,38.084,24.524,14.276a1.643,1.643,0,0,0-1.665-.092,1.584,1.584,0,0,0-.859,1.4V63.2a1.582,1.582,0,0,0,.861,1.4,1.635,1.635,0,0,0,1.663-.092L60.045,40.706a1.571,1.571,0,0,0,0-2.622ZM25.229,60.2V18.591L56.27,39.4Z" transform="translate(12.986 8.605)" fill="#fff"/>
  <path id="Path_25090" data-name="Path 25090" d="M48,0A48,48,0,1,0,96,48,48.054,48.054,0,0,0,48,0Zm0,92.8A44.8,44.8,0,1,1,92.8,48,44.851,44.851,0,0,1,48,92.8Z" fill="#fff"/>
</svg>
