<svg id="ic_values" xmlns="http://www.w3.org/2000/svg" width="48" height="48" viewBox="0 0 48 48">
  <g id="Group_3738" data-name="Group 3738" transform="translate(0)">
    <path id="Path_22075" data-name="Path 22075" d="M249.188,3.335a.688.688,0,0,0,.688-.688V.688a.688.688,0,0,0-1.377,0V2.647A.688.688,0,0,0,249.188,3.335Z" transform="translate(-225.188 0)" fill="#fff"/>
    <path id="Path_22076" data-name="Path 22076" d="M249.188,475.67a.688.688,0,0,0-.688.688v1.958a.688.688,0,1,0,1.377,0v-1.958A.688.688,0,0,0,249.188,475.67Z" transform="translate(-225.188 -431.005)" fill="#fff"/>
    <path id="Path_22077" data-name="Path 22077" d="M362.116,36.075a.688.688,0,0,0,.94-.254l.976-1.7a.688.688,0,1,0-1.193-.687l-.976,1.7A.689.689,0,0,0,362.116,36.075Z" transform="translate(-327.818 -30.055)" fill="#fff"/>
    <path id="Path_22078" data-name="Path 22078" d="M126.6,445.506a.688.688,0,0,0-.94.253l-.976,1.7a.688.688,0,1,0,1.194.687l.976-1.7A.688.688,0,0,0,126.6,445.506Z" transform="translate(-112.898 -403.527)" fill="#fff"/>
    <path id="Path_22079" data-name="Path 22079" d="M446.856,128.375a.684.684,0,0,0,.339-.09l1.7-.965a.688.688,0,1,0-.679-1.2l-1.7.965a.689.689,0,0,0,.34,1.288Z" transform="translate(-404.21 -114.204)" fill="#fff"/>
    <path id="Path_22080" data-name="Path 22080" d="M34.324,360.542l-1.7.965a.688.688,0,1,0,.679,1.2l1.7-.965a.688.688,0,1,0-.679-1.2Z" transform="translate(-29.309 -326.623)" fill="#fff"/>
    <path id="Path_22081" data-name="Path 22081" d="M125.659,35.824a.688.688,0,1,0,1.194-.687l-.976-1.7a.688.688,0,1,0-1.194.687Z" transform="translate(-112.897 -30.057)" fill="#fff"/>
    <path id="Path_22082" data-name="Path 22082" d="M363.056,445.76a.688.688,0,0,0-1.194.687l.976,1.7a.688.688,0,1,0,1.194-.687Z" transform="translate(-327.817 -403.527)" fill="#fff"/>
    <path id="Path_22083" data-name="Path 22083" d="M32.62,127.322l1.7.965a.688.688,0,1,0,.679-1.2l-1.7-.965a.688.688,0,1,0-.679,1.2Z" transform="translate(-29.309 -114.206)" fill="#fff"/>
    <path id="Path_22084" data-name="Path 22084" d="M448.9,361.506l-1.7-.965a.688.688,0,0,0-.679,1.2l1.7.965a.688.688,0,1,0,.679-1.2Z" transform="translate(-404.21 -326.623)" fill="#fff"/>
    <path id="Path_22085" data-name="Path 22085" d="M478.316,248.5h-1.958a.688.688,0,0,0,0,1.377h1.958a.688.688,0,1,0,0-1.377Z" transform="translate(-431.005 -225.188)" fill="#fff"/>
    <path id="Path_22086" data-name="Path 22086" d="M3.335,249.188a.688.688,0,0,0-.688-.688H.688a.688.688,0,0,0,0,1.377H2.647A.689.689,0,0,0,3.335,249.188Z" transform="translate(0 -225.188)" fill="#fff"/>
    <path id="Path_22087" data-name="Path 22087" d="M101.488,120.181a1.589,1.589,0,0,0-.247-.62s-5.316-7.923-5.343-7.956a1.582,1.582,0,0,0-.5-.414l-.032-.016a1.571,1.571,0,0,0-.69-.16H90.656a.714.714,0,0,0,0,1.429H93.81l-4.5,6.824-4.5-6.824h2.737a.714.714,0,0,0,0-1.429H72.294a1.56,1.56,0,0,0-.723.178,1.576,1.576,0,0,0-.583.526L65.8,119.586A1.594,1.594,0,0,0,66,121.563l5.767,5.849a.7.7,0,0,0,1,0,.719.719,0,0,0,0-1.01l-5.062-5.134h9.436l4.718,14.356-6.895-6.993a.7.7,0,0,0-1,0,.719.719,0,0,0,0,1.01l8.405,8.525a1.555,1.555,0,0,0,.892.452,1.591,1.591,0,0,0,.222.016,1.63,1.63,0,0,0,.209-.014H83.7a1.56,1.56,0,0,0,.889-.449l16.457-16.6a1.594,1.594,0,0,0,.437-1.387Zm-1.768-.339h-9.09l4.508-6.832Zm-26.566-7.4H82.16l-4.5,6.824Zm10.328.575,4.5,6.824H78.979Zm-16.154,6.825,4.5-6.825,4.5,6.825Zm21,1.428-1.087,3.306a.716.716,0,0,0,.449.9.707.707,0,0,0,.9-.453l1.234-3.755h9.524L85.095,135.643,87.606,128a.716.716,0,0,0-.449-.9.707.707,0,0,0-.9.453l-2.78,8.459-4.844-14.74Z" transform="translate(-59.527 -100.823)" fill="#fff"/>
  </g>
</svg>
