<svg id="info" xmlns="http://www.w3.org/2000/svg" width="32" height="32" viewBox="0 0 32 32">
  <g id="Group_28745" data-name="Group 28745">
    <g id="Group_28744" data-name="Group 28744">
      <path id="Exclusion_2" data-name="Exclusion 2" d="M16,32A16,16,0,0,1,4.687,4.687,16,16,0,0,1,27.314,27.313,15.89,15.89,0,0,1,16,32ZM13.827,15.043a1.4,1.4,0,0,1,.775.233,1.064,1.064,0,0,1,.238.794,3.5,3.5,0,0,1-.08.73c-.054.264-.12.536-.2.807L13.7,20.581a8,8,0,0,0-.167.839,4.977,4.977,0,0,0-.052.727,1.893,1.893,0,0,0,.727,1.509,2.944,2.944,0,0,0,1.778.6c.056,0,.114,0,.175-.005h.09a4.451,4.451,0,0,0,1.367-.213c.415-.14.971-.343,1.653-.6l.234-.917a3.942,3.942,0,0,1-.575.19,2.893,2.893,0,0,1-.62.068c-.051,0-.1,0-.14,0s-.1.007-.148.007a1.532,1.532,0,0,1-.79-.22.979.979,0,0,1-.271-.8,4.486,4.486,0,0,1,.087-.727c.052-.284.114-.551.189-.817l.862-2.957a4.552,4.552,0,0,0,.174-.9,4.4,4.4,0,0,1,.03-.489l0-.025c.007-.07.013-.126.013-.172a1.909,1.909,0,0,0-.679-1.521,2.856,2.856,0,0,0-1.728-.589c-.062,0-.129,0-.2.007a4.947,4.947,0,0,0-1.457.238c-.5.158-1.036.346-1.624.576l-.248.961c.179-.062.405-.133.6-.2a2.579,2.579,0,0,1,.686-.1A1.469,1.469,0,0,1,13.827,15.043ZM17.585,8.2a2.1,2.1,0,0,0-1.419.547,1.746,1.746,0,0,0-.18,2.458,1.643,1.643,0,0,0,.18.18,2.182,2.182,0,0,0,2.914,0,1.748,1.748,0,0,0,.171-2.467,1.811,1.811,0,0,0-.171-.17A2.072,2.072,0,0,0,17.674,8.2h-.089Z" fill="#d9bb96"/>
    </g>
  </g>
</svg>
