<svg id="job" xmlns="http://www.w3.org/2000/svg" width="28.125" height="32" viewBox="0 0 28.125 32">
  <path id="Path_16338" data-name="Path 16338" d="M215.688,245.75a3.75,3.75,0,0,1,7.5,0h4.688v1.875c0,2.917-5.458,3.75-8.437,3.75s-8.437-.829-8.437-3.75V245.75Zm5.625,0a1.875,1.875,0,0,0-3.75,0Z" transform="translate(-211 -226.875)" fill="#d9bb96"/>
  <path id="Path_16339" data-name="Path 16339" d="M218.5,391.663h1.875v-1.894c2.452-.1,5.545-.643,7.5-2.128v7.772H211V387.64c1.946,1.479,5.036,2.027,7.5,2.128Z" transform="translate(-211 -363.413)" fill="#d9bb96"/>
  <path id="Path_16340" data-name="Path 16340" d="M36.126,15.125h8V13.25H34.75V14A5.62,5.62,0,0,0,31,13.329V0H51.625V30.125H42.25V17H37.241a5.631,5.631,0,0,0-1.114-1.875Zm8-9.375H34.75V7.625h9.375Zm0,3.75H34.75v1.875h9.375ZM46,15.125h1.875V13.25H46Zm0-3.75h1.875V9.5H46Zm0-3.75h1.875V5.75H46Z" transform="translate(-23.5 0)" fill="#d9bb96"/>
</svg>
