<svg xmlns="http://www.w3.org/2000/svg" xmlns:xlink="http://www.w3.org/1999/xlink" width="332.736" height="146.012" viewBox="0 0 332.736 146.012">
  <defs>
    <clipPath id="clip-path">
      <rect id="Rectangle_12509" data-name="Rectangle 12509" width="332.736" height="146.012" fill="none"/>
    </clipPath>
  </defs>
  <g id="Saee_mainlogo" transform="translate(0 0)">
    <path id="Path_25055" data-name="Path 25055" d="M38.19,42.251V5.61L28.88,3.37V51.562H46.445v-9.31Z" transform="translate(95.03 11.09)" fill="#fff"/>
    <path id="Path_25056" data-name="Path 25056" d="M52.083,8.836v22.8H43.248v9.31H61.393V6.6Z" transform="translate(142.311 21.704)" fill="#fff"/>
    <g id="Group_29797" data-name="Group 29797" transform="translate(0 0)">
      <g id="Group_29796" data-name="Group 29796" clip-path="url(#clip-path)">
        <path id="Path_25057" data-name="Path 25057" d="M46.863,28.108a.623.623,0,0,1-.622.622H38.153v9.31h8.088a9.947,9.947,0,0,0,9.933-9.933V7.479l-9.311,2.24Z" transform="translate(125.544 24.61)" fill="#fff"/>
        <path id="Path_25058" data-name="Path 25058" d="M49.493,20.961a.623.623,0,0,0,.622.622h4.763v9.31H50.116a9.947,9.947,0,0,1-9.933-9.933V12.723l9.311-3.072Z" transform="translate(132.224 31.757)" fill="#fff"/>
        <path id="Path_25059" data-name="Path 25059" d="M115.776,29.053H68.627L63.41,7.381H47.3a10.278,10.278,0,0,0-6.938,2.536,9.923,9.923,0,0,0-3.021,9.718L41.794,38.14H9.31V30.7a.623.623,0,0,1,.622-.622H29.515l-2.24-9.31H9.933A9.933,9.933,0,0,0,0,30.7v6.822A9.93,9.93,0,0,0,9.933,47.45H53.61l-7.217-30a.586.586,0,0,1,.116-.528.594.594,0,0,1,.489-.24h9.079L61.29,38.363h52.246Z" transform="translate(0 24.288)" fill="#fff"/>
        <path id="Path_25060" data-name="Path 25060" d="M33.986,16.723H48.66l2.24-9.31H33.986a15.231,15.231,0,0,0-15.21,15.21v.429c0,9.577,10.718,14.5,20.449,14.5l-1.768-8.6H33.986a5.907,5.907,0,0,1-5.9-5.9v-.429a5.907,5.907,0,0,1,5.9-5.9" transform="translate(61.783 24.393)" fill="#fff"/>
        <path id="Path_25061" data-name="Path 25061" d="M3.418,19.515l2.059,8.564H37.271l-2.059-8.564Z" transform="translate(11.248 64.215)" fill="#fff"/>
        <path id="Path_25062" data-name="Path 25062" d="M44.6,25.37a.623.623,0,0,1-.622.622H32.346V35.3H43.973a9.947,9.947,0,0,0,9.933-9.933V8.311l-9.31,2.24Z" transform="translate(106.436 27.348)" fill="#fff"/>
        <path id="Path_25063" data-name="Path 25063" d="M44.511,20.961a.623.623,0,0,0,.622.622H49.9v9.31H45.134A9.947,9.947,0,0,1,35.2,20.961V12.723l9.31-3.072Z" transform="translate(115.831 31.757)" fill="#fff"/>
        <path id="Path_25064" data-name="Path 25064" d="M25.8,41.032a6.653,6.653,0,0,0,6.148,4.153H47.317a5.961,5.961,0,0,1-1.124-3.493v-.734a6.037,6.037,0,0,1,6.024-6.024h.159a6.029,6.029,0,0,1,5.985,6.024v5.5l-1.249,1.249H31.948A9.188,9.188,0,0,1,23.637,42.4Zm26.576-3.565h-.159a3.5,3.5,0,0,0-3.493,3.493v.734a3.5,3.5,0,0,0,3.493,3.493h3.617V40.959a3.475,3.475,0,0,0-3.458-3.493M50.2,30.078l2.115-2.051,2.047,2.051-2.047,2.111Z" transform="translate(77.779 92.224)" fill="#fff"/>
        <path id="Path_25065" data-name="Path 25065" d="M32.626,44.379V27.7h3.866v2.527H35.157V44.379a1.894,1.894,0,0,0,1.888,1.892h1.888V48.8H37.045a4.427,4.427,0,0,1-4.419-4.419" transform="translate(107.357 91.138)" fill="#fff"/>
        <path id="Path_25066" data-name="Path 25066" d="M51.04,40.844v5.5L49.791,47.6h-14.6c-.931,0-1.635-.545-1.635-1.279s.7-1.249,1.635-1.249h4.8a5.962,5.962,0,0,1-1.124-3.493v-.734a6.034,6.034,0,0,1,6.024-6.02h.159a6.026,6.026,0,0,1,5.99,6.02M40.824,30.113l2.111-2.051,1.892,1.892,1.888-1.892,2.115,2.051-2.115,2.111-1.888-1.952-1.892,1.952Zm4.226,7.238h-.159A3.5,3.5,0,0,0,41.4,40.844v.734a3.5,3.5,0,0,0,3.492,3.493h3.617V40.844a3.494,3.494,0,0,0-3.458-3.493" transform="translate(110.431 92.339)" fill="#fff"/>
        <path id="Path_25067" data-name="Path 25067" d="M50.4,35.658v6.8a6.014,6.014,0,0,1-6.02,6.024h-4.3V45.955h4.3a3.5,3.5,0,0,0,3.488-3.493v-.051H44.378a6.007,6.007,0,0,1-5.99-6.02v-.734a6,6,0,1,1,12.009,0m-6.02,4.226h3.488V35.658a3.473,3.473,0,1,0-6.946,0v.734a3.491,3.491,0,0,0,3.458,3.493" transform="translate(126.318 97.525)" fill="#fff"/>
        <path id="Path_25068" data-name="Path 25068" d="M43.544,31.053a2.783,2.783,0,0,1,2.433-4.106h2.3v2.218H46.9v-.789h-.927a1.339,1.339,0,1,0,0,2.677h2.609v1.433H42.3V31.053ZM56.952,46.847a4.427,4.427,0,0,1-4.419,4.419H42.012V48.739h5.621L44.749,35.627h2.561l2.918,13.112h2.3a1.9,1.9,0,0,0,1.892-1.892V30.165h3.862v2.527H56.952Z" transform="translate(138.243 88.67)" fill="#fff"/>
        <path id="Path_25069" data-name="Path 25069" d="M49.1,30.225V48.8H46.577V27.7h3.861v2.527Z" transform="translate(153.263 91.141)" fill="#fff"/>
        <path id="Path_25070" data-name="Path 25070" d="M60.619,33.729H33.34a4.619,4.619,0,0,1-1.888-.416v.468a6.011,6.011,0,0,1-6.02,6.02H23.665V37.273h1.768a3.5,3.5,0,0,0,3.488-3.493V21.591h3.866v2.531H31.452V29.31A1.914,1.914,0,0,0,33.34,31.2H60.619l.493,1.219Z" transform="translate(77.871 71.046)" fill="#fff"/>
        <path id="Path_25071" data-name="Path 25071" d="M26.04,32.447l.738-1.249H54.632a1.921,1.921,0,0,0,1.922-1.892V21.592H60.42v2.527H59.086v5.187a4.438,4.438,0,0,1-4.454,4.424H26.778ZM55.5,38.42l-1.888,1.888L51.5,38.256l2.115-2.111L55.5,38.1l1.888-1.952,2.115,2.111-2.115,2.051Z" transform="translate(85.686 71.049)" fill="#fff"/>
        <path id="Path_25072" data-name="Path 25072" d="M46.635,34.216v.051a6.014,6.014,0,0,1-6.02,6.024h-4.3V37.76h4.3A3.5,3.5,0,0,0,44.1,34.267v-.051H40.616a6.007,6.007,0,0,1-5.99-6.02v-.734a6,6,0,1,1,12.009,0v4.226h2.21v2.527Zm-6.02-2.527H44.1V27.463a3.473,3.473,0,1,0-6.946,0V28.2a3.491,3.491,0,0,0,3.458,3.493" transform="translate(113.939 70.559)" fill="#fff"/>
        <path id="Path_25073" data-name="Path 25073" d="M64,40.6H62.735a4.431,4.431,0,0,1-3.686-1.952A6.42,6.42,0,0,1,54.442,40.6H39.36c-1.124,0-1.957-.545-1.957-1.279s.832-1.249,1.957-1.249h3.458V19.5H46.68v2.531H45.346v8.645a9.1,9.1,0,0,1,6.629-2.853h2.467a6.422,6.422,0,0,1,6.4,6.406v1.952a1.9,1.9,0,0,0,1.892,1.892H64l.6,1.15Zm-5.681-6.371a3.867,3.867,0,0,0-3.874-3.874H51.975a6.649,6.649,0,0,0-6.629,6.663v1.055h9.1a3.861,3.861,0,0,0,3.874-3.844" transform="translate(123.08 64.172)" fill="#fff"/>
        <path id="Path_25074" data-name="Path 25074" d="M54.711,38.593H52.823a4.433,4.433,0,0,1-3.171-1.347,4.381,4.381,0,0,1-3.171,1.347h-2.5L43.2,37.225l.789-1.163h2.5A1.92,1.92,0,0,0,48.4,34.174V27.691h2.527v6.483a1.891,1.891,0,0,0,1.892,1.888h1.888l.515,1.244ZM45.04,22.165l2.115-2.051,1.888,1.892,1.888-1.892,2.115,2.051-2.115,2.111-1.888-1.952-1.888,1.952Z" transform="translate(142.135 66.186)" fill="#fff"/>
        <path id="Path_25075" data-name="Path 25075" d="M45.654,39.324l.618-1.249h1.42a1.9,1.9,0,0,0,1.922-1.892V19.5h3.862v2.531H52.141v14.15A4.43,4.43,0,0,1,47.692,40.6h-1.42Z" transform="translate(150.227 64.172)" fill="#fff"/>
        <path id="Path_25076" data-name="Path 25076" d="M65.4,44.257a15.84,15.84,0,0,1,7.144-13.266L102.3,11.336l29.764,19.655A15.859,15.859,0,0,1,139.2,44.257v23.83l9.461-3.2V44.257a25.3,25.3,0,0,0-11.383-21.165L102.3,0,67.333,23.092A25.286,25.286,0,0,0,55.942,44.257V64.826l9.461,3.2Z" transform="translate(184.08 0)" fill="#fff"/>
        <path id="Path_25077" data-name="Path 25077" d="M102.3,33.2l-46.359-16.2V27.29l46.351,16.188,46.364-16.12V17.083Z" transform="translate(184.08 55.958)" fill="#fff"/>
        <path id="Path_25078" data-name="Path 25078" d="M89.988,20.71,67.75,5.268V61.762l24.486-8.272V25.009a5.241,5.241,0,0,0-2.248-4.3" transform="translate(222.935 17.335)" fill="#fff"/>
        <path id="Path_25079" data-name="Path 25079" d="M60.035,53.428l24.486,8.337V5.267L62.283,20.713a5.235,5.235,0,0,0-2.248,4.3Z" transform="translate(197.548 17.331)" fill="#fff"/>
      </g>
    </g>
  </g>
</svg>
