<svg xmlns="http://www.w3.org/2000/svg" width="16.457" height="18.725" viewBox="0 0 16.457 18.725">
  <defs>
    <style>
      .a {
        fill: #b28d70;
      }
    </style>
  </defs>
  <g transform="translate(-31)">
    <g transform="translate(33.194)">
      <path class="a"
        d="M97.034,0a6.031,6.031,0,0,0-4.9,9.545l4.443,6.933a.548.548,0,0,0,.924,0l4.462-6.957A6.034,6.034,0,0,0,97.034,0Zm0,8.777a2.743,2.743,0,1,1,2.743-2.743A2.746,2.746,0,0,1,97.034,8.777Z"
        transform="translate(-91)" />
    </g>
    <g transform="translate(31 12.606)">
      <path class="a"
        d="M43.517,344.7l-2.762,4.319a1.814,1.814,0,0,1-3.053,0L34.935,344.7C32.5,345.259,31,346.29,31,347.522c0,2.138,4.24,3.291,8.229,3.291s8.229-1.153,8.229-3.291C47.457,346.289,45.954,345.258,43.517,344.7Z"
        transform="translate(-31 -344.695)" />
    </g>
  </g>
</svg>