<svg xmlns="http://www.w3.org/2000/svg" width="16" height="15.999" viewBox="0 0 16 15.999"><defs><style>.a{fill:#b28d70;}</style></defs><g transform="translate(0 0)"><g transform="translate(0 0)"><path class="a" d="M7.623,9.417a6.457,6.457,0,0,1-1.95-3.666.548.548,0,0,1,.158-.459L7.066,4.057a.552.552,0,0,0,.078-.683L5.176.319a.552.552,0,0,0-.715-.2L1.3,1.605a.549.549,0,0,0-.3.548A15.269,15.269,0,0,0,5.649,11.39a15.264,15.264,0,0,0,9.236,4.649.549.549,0,0,0,.548-.3l1.488-3.159a.552.552,0,0,0-.2-.714L13.665,9.9a.552.552,0,0,0-.683.077l-1.235,1.236a.548.548,0,0,1-.459.158,6.457,6.457,0,0,1-3.666-1.95Z" transform="translate(-0.997 -0.043)"/><path class="a" d="M33.252,15.8a.553.553,0,0,1-.553-.553,4.151,4.151,0,0,0-4.146-4.146.553.553,0,1,1,0-1.106A5.258,5.258,0,0,1,33.8,15.252.553.553,0,0,1,33.252,15.8Z" transform="translate(-20.56 -7.245)"/><path class="a" d="M36.016,8.569a.553.553,0,0,1-.553-.553,6.918,6.918,0,0,0-6.91-6.91.553.553,0,1,1,0-1.106,8.025,8.025,0,0,1,8.016,8.016.553.553,0,0,1-.553.553Z" transform="translate(-20.569)"/></g></g></svg>