<svg id="mobile-app" xmlns="http://www.w3.org/2000/svg" width="22.661" height="32" viewBox="0 0 22.661 32">
  <g id="Group_28757" data-name="Group 28757">
    <path id="Path_16334" data-name="Path 16334" d="M131.815,0H113.154a1.893,1.893,0,0,0-2,1.745V30.255a1.894,1.894,0,0,0,2,1.745h18.661a1.892,1.892,0,0,0,2-1.745V1.745A1.892,1.892,0,0,0,131.815,0Zm-8.832,30.252a1.615,1.615,0,1,1,1.833-1.6A1.729,1.729,0,0,1,122.983,30.252Zm8.539-4.944H113.446V3.926h18.076V25.308Zm-9.832-15.03h-5.373V6.459h5.373Zm7.248,0h-5.375V6.459h5.375Zm-7.248,6.158h-5.373V12.619h5.373Zm7.248,0h-5.375V12.619h5.375Zm-7.248,6.277h-5.373V18.9h5.373Zm7.248,0h-5.375V18.9h5.375Z" transform="translate(-111.153 0)" fill="#d9bb96"/>
  </g>
</svg>
