<svg xmlns="http://www.w3.org/2000/svg" width="63.098" height="63.098" viewBox="0 0 63.098 63.098">
  <defs>
    <style>
      .a {
        fill: #887650;
      }
    </style>
  </defs>
  <g transform="translate(0)">
    <path class="a"
      d="M249.424,4.477a.924.924,0,0,0,.924-.924V.924a.924.924,0,0,0-1.849,0V3.553A.924.924,0,0,0,249.424,4.477Z"
      transform="translate(-217.875 0)" />
    <path class="a"
      d="M249.424,475.67a.924.924,0,0,0-.924.924v2.629a.924.924,0,1,0,1.849,0v-2.629A.924.924,0,0,0,249.424,475.67Z"
      transform="translate(-217.875 -417.05)" />
    <path class="a"
      d="M362.235,37.1a.924.924,0,0,0,1.262-.34l1.311-2.279a.924.924,0,1,0-1.6-.922l-1.311,2.279A.924.924,0,0,0,362.235,37.1Z"
      transform="translate(-317.187 -29.014)" />
    <path class="a"
      d="M127.287,445.538a.924.924,0,0,0-1.262.34l-1.311,2.279a.924.924,0,1,0,1.6.922l1.311-2.279A.924.924,0,0,0,127.287,445.538Z"
      transform="translate(-109.237 -390.523)" />
    <path class="a"
      d="M447.092,129.177a.919.919,0,0,0,.455-.12l2.287-1.3a.924.924,0,1,0-.911-1.609l-2.287,1.3a.924.924,0,0,0,.456,1.729Z"
      transform="translate(-391.182 -110.501)" />
    <path class="a" d="M35.027,360.572l-2.287,1.3a.924.924,0,1,0,.911,1.608l2.287-1.3a.924.924,0,1,0-.911-1.608Z"
      transform="translate(-28.294 -316.031)" />
    <path class="a" d="M126.025,36.759a.924.924,0,1,0,1.6-.922l-1.311-2.279a.924.924,0,1,0-1.6.922Z"
      transform="translate(-109.236 -29.016)" />
    <path class="a" d="M363.5,445.878a.924.924,0,0,0-1.6.922l1.311,2.279a.924.924,0,1,0,1.6-.922Z"
      transform="translate(-317.187 -390.523)" />
    <path class="a" d="M32.74,127.763l2.287,1.3a.924.924,0,1,0,.911-1.608l-2.287-1.3a.924.924,0,1,0-.911,1.608Z"
      transform="translate(-28.294 -110.503)" />
    <path class="a" d="M449.834,361.868l-2.287-1.3a.924.924,0,0,0-.911,1.609l2.287,1.3a.924.924,0,1,0,.911-1.608Z"
      transform="translate(-391.182 -316.031)" />
    <path class="a" d="M479.223,248.5h-2.629a.924.924,0,1,0,0,1.849h2.629a.924.924,0,1,0,0-1.849Z"
      transform="translate(-417.05 -217.875)" />
    <path class="a"
      d="M4.477,249.424a.924.924,0,0,0-.924-.924H.924a.924.924,0,0,0,0,1.849H3.553A.924.924,0,0,0,4.477,249.424Z"
      transform="translate(0 -217.875)" />
    <path class="a"
      d="M112.457,122.875a2.046,2.046,0,0,0-.322-.8s-6.939-10.252-6.973-10.295a2.061,2.061,0,0,0-.654-.536l-.042-.02a2.065,2.065,0,0,0-.9-.208H98.319a.924.924,0,0,0,0,1.849h4.117l-5.877,8.83-5.877-8.83h3.572a.924.924,0,1,0,0-1.849h-19.9a2.054,2.054,0,0,0-1.7.911l-6.776,10.181a2.05,2.05,0,0,0,.268,2.558l7.527,7.568a.924.924,0,0,0,1.311-1.3l-6.607-6.643H80.686l6.157,18.575-9-9.048a.924.924,0,0,0-1.311,1.3L87.5,146.145a2.036,2.036,0,0,0,1.165.585,2.1,2.1,0,0,0,.289.02,2.146,2.146,0,0,0,.273-.018l.015,0a2.042,2.042,0,0,0,1.161-.581l21.48-21.48a2.05,2.05,0,0,0,.571-1.795Zm-2.308-.439H98.285l5.884-8.84Zm-34.673-9.574H87.231l-5.877,8.83Zm13.48.743,5.877,8.829H83.08Zm-21.084,8.83,5.878-8.83,5.877,8.83Zm27.406,1.848-1.418,4.277a.924.924,0,1,0,1.755.582l1.611-4.858h12.431l-18.6,18.6,3.278-9.889a.924.924,0,0,0-1.755-.582l-3.629,10.945-6.322-19.072Z"
      transform="translate(-57.467 -97.333)" />
  </g>
</svg>