<svg xmlns="http://www.w3.org/2000/svg" width="67.527" height="53.373" viewBox="0 0 67.527 53.373">
  <defs>
    <style>
      .a {
        fill: #887650;
      }
    </style>
  </defs>
  <g transform="translate(0)">
    <g transform="translate(24.407 26.686)">
      <g transform="translate(0)">
        <path class="a" d="M188.529,256.432a1.482,1.482,0,1,0,0,2.1A1.481,1.481,0,0,0,188.529,256.432Z"
          transform="translate(-185.997 -255.998)" />
      </g>
    </g>
    <g transform="translate(29.316 29.652)">
      <path class="a"
        d="M230.448,276a4.448,4.448,0,1,0,4.448,4.448A4.453,4.453,0,0,0,230.448,276Zm0,5.93a1.483,1.483,0,1,1,1.483-1.483A1.484,1.484,0,0,1,230.448,281.93Z"
        transform="translate(-226 -276)" />
    </g>
    <g transform="translate(21.903 22.239)">
      <path class="a"
        d="M187.861,226a11.762,11.762,0,0,0-4.763,1,1.483,1.483,0,1,0,1.193,2.715,8.815,8.815,0,0,1,3.569-.745,8.9,8.9,0,1,1-8.9,8.9c0-.051,0-.1,0-.151a1.483,1.483,0,0,0-2.964-.069c0,.074,0,.146,0,.22A11.861,11.861,0,1,0,187.861,226Z"
        transform="translate(-176 -226)" />
    </g>
    <g transform="translate(32.281)">
      <g transform="translate(0)">
        <path class="a"
          d="M247.483,76A1.483,1.483,0,0,0,246,77.483v8.9a1.483,1.483,0,0,0,2.965,0v-8.9A1.483,1.483,0,0,0,247.483,76Z"
          transform="translate(-246 -76)" />
      </g>
    </g>
    <g transform="translate(10.99 4.268)">
      <g transform="translate(0 0)">
        <path class="a"
          d="M93.609,111.513l-6.289-6.289a1.483,1.483,0,1,0-2.1,2.1l6.289,6.289a1.483,1.483,0,0,0,2.1-2.1Z"
          transform="translate(-84.789 -104.789)" />
      </g>
    </g>
    <g transform="translate(47.283 4.268)">
      <g transform="translate(0 0)">
        <path class="a"
          d="M373.61,105.223a1.483,1.483,0,0,0-2.1,0l-6.289,6.289a1.483,1.483,0,0,0,2.1,2.1l6.289-6.289A1.483,1.483,0,0,0,373.61,105.223Z"
          transform="translate(-364.79 -104.789)" />
      </g>
    </g>
    <g transform="translate(0 14.826)">
      <g transform="translate(0 0)">
        <path class="a"
          d="M67.2,195.527C58.819,184.865,46.378,176,33.764,176S8.707,184.867.33,195.527a1.614,1.614,0,0,0,.115,2.093,1.22,1.22,0,0,0,1.862-.13q.422-.537.861-1.068c6.517,11.07,18.332,18.125,30.6,18.125s24.078-7.056,30.6-18.125q.437.532.861,1.068a1.22,1.22,0,0,0,1.862.13A1.614,1.614,0,0,0,67.2,195.527ZM33.764,211.582c-11.6,0-22.747-6.772-28.711-17.343,4.7-5.176,15.556-15.274,28.711-15.274s24.012,10.1,28.711,15.273C56.511,204.81,45.359,211.582,33.764,211.582Z"
          transform="translate(0 -176)" />
      </g>
    </g>
  </g>
</svg>