<svg xmlns="http://www.w3.org/2000/svg" width="67.527" height="53.373" viewBox="0 0 57.896 53.373">
  <defs>
    <style>
      .a {
        fill: #887650;
      }
    </style>
  </defs>
  <g transform="translate(0.001)">
    <g transform="translate(-0.001)">
      <path class="a" d="M310.169,128.122a1.131,1.131,0,1,0,1.6-1.6l-.015-.015a1.131,1.131,0,1,0-1.6,1.6Z"
        transform="translate(-274.788 -114.17)" />
      <path class="a"
        d="M53.624,44.651l3.941-3.941a1.131,1.131,0,0,0-.8-1.93H48.6A24.652,24.652,0,1,0,7.22,62.082a24.828,24.828,0,0,0,4.532,3.585L8.345,71.685a1.131,1.131,0,0,0,.984,1.688h5.824a1.131,1.131,0,0,0,.984-.574l2.409-4.256a24.949,24.949,0,0,0,12.211,0L33.166,72.8a1.131,1.131,0,0,0,.984.574h5.824a1.131,1.131,0,0,0,.984-1.688l-3.407-6.019a24.833,24.833,0,0,0,4.532-3.585A24.568,24.568,0,0,0,48.6,50.523h8.17a1.131,1.131,0,0,0,.8-1.93ZM51.556,43.52H43.665l2.479-2.479h7.892ZM14.493,71.112H11.268l2.461-4.348a24.314,24.314,0,0,0,2.6,1.105Zm23.541,0H34.809l-1.836-3.243a24.314,24.314,0,0,0,2.6-1.105Zm2.449-10.629a22.491,22.491,0,0,1-4.958,3.75c-.022.011-.045.021-.066.033l-.039.025a22.1,22.1,0,0,1-4.336,1.816,1.119,1.119,0,0,0-.176.051,22.609,22.609,0,0,1-12.514,0,1.122,1.122,0,0,0-.176-.051,22.1,22.1,0,0,1-4.335-1.816l-.039-.025c-.022-.012-.044-.023-.066-.033a22.488,22.488,0,0,1-4.958-3.75,22.39,22.39,0,1,1,37.442-21.7h-.586a1.131,1.131,0,0,0-.8.331l-3,3A17.422,17.422,0,0,0,39.9,36.239a1.131,1.131,0,1,0-1.98,1.093,15.016,15.016,0,0,1,1.827,6.188H34.764a10.18,10.18,0,1,0,0,2.261h4.981a15.138,15.138,0,1,1-7.775-14.4,1.131,1.131,0,0,0,1.093-1.98,17.539,17.539,0,0,0-10.739-2.006,17.415,17.415,0,1,0,19.555,19.8l3,3a1.131,1.131,0,0,0,.8.331h.585A22.317,22.317,0,0,1,40.483,60.483ZM28.344,42.519a1.131,1.131,0,0,0-1.545-.414l-2.714,1.567a1.131,1.131,0,0,0,0,1.959L26.8,47.2a1.13,1.13,0,0,0,1.607-1.415h4.079a7.855,7.855,0,0,1-2.238,4.466h0a7.914,7.914,0,1,1,2.238-6.728H28.407A1.128,1.128,0,0,0,28.344,42.519Zm17.8,5.742-2.479-2.479h7.892l2.479,2.479Z"
        transform="translate(0 -20)" />
    </g>
  </g>
</svg>