<svg xmlns="http://www.w3.org/2000/svg" xmlns:xlink="http://www.w3.org/1999/xlink" width="24.5" height="28.867"><defs><linearGradient id="a" x1="-1.628" y1="10.378" x2="-1.628" y2="7.774" gradientUnits="objectBoundingBox"><stop offset="0" stop-color="#ff5252"/><stop offset="1" stop-color="#d50000"/></linearGradient><linearGradient id="b" x1="-.219" y1="2.287" x2="-.219" y2="1.918" xlink:href="#a"/><linearGradient id="c" x1="-2.809" y1="13.079" x2="-2.809" y2="12.112" xlink:href="#a"/><style>.f{fill:#fff}</style></defs><path d="M23.525 28.367h-20.4a.456.456 0 01-.469-.436v-27A.456.456 0 013.13.5h15.492a.5.5 0 01.335.128l4.9 4.5a.418.418 0 01.139.308v22.495a.456.456 0 01-.471.436z" fill="none" stroke="#bebebe"/><path d="M56 250.371l2.125-.939 1.483 2.276H56z" transform="translate(-56 -237.423)" fill="url(#a)"/><path d="M17.665.241v5.507a.593.593 0 00.624.555h6.2L21.43 3.029z" fill="#bebebe"/><path d="M75.773 287.161H56.9a.919.919 0 01-.9-.939v-8.508h19.773a.92.92 0 01.9.94v7.568a.919.919 0 01-.9.94z" transform="translate(-56 -264.342)" fill="url(#b)"/><path d="M58.125 249.432h-1.186a.939.939 0 00-.939.938.939.939 0 00.938.939h1.187z" transform="translate(-56 -237.409)" fill="url(#c)"/><path class="f" d="M3.503 20.009v-3.644a.461.461 0 01.461-.462 14.936 14.936 0 012.113.069 1.284 1.284 0 01.922 1.336 1.319 1.319 0 01-1.018 1.373 9.7 9.7 0 01-1.408.065.148.148 0 00-.148.148v1.112a.461.461 0 01-.461.461.461.461 0 01-.461-.461zm.921-3.182v1a.148.148 0 00.148.148 4.04 4.04 0 001.084-.072.623.623 0 00-.124-1.192 9.014 9.014 0 00-.96-.031.148.148 0 00-.148.149zM7.753 16.369a.461.461 0 01.461-.462 10.35 10.35 0 012.091.087 1.722 1.722 0 011.124 1.16 3.373 3.373 0 01.149 1.078 2.993 2.993 0 01-.14.971 1.664 1.664 0 01-1.136 1.169 11.088 11.088 0 01-2.088.1.461.461 0 01-.461-.46zm.921.459v2.726a.148.148 0 00.148.148 5.8 5.8 0 001.1-.044.788.788 0 00.613-.631 2.979 2.979 0 00.094-.836 2.728 2.728 0 00-.094-.812.884.884 0 00-.691-.657 7.632 7.632 0 00-1.022-.044.148.148 0 00-.146.149zM12.365 20.01v-3.641a.462.462 0 01.462-.462h2.282a.386.386 0 01.386.386.386.386 0 01-.386.386h-1.671a.148.148 0 00-.148.148v.783a.148.148 0 00.148.149h1.371a.386.386 0 110 .772h-1.371a.148.148 0 00-.148.148v1.331a.462.462 0 01-.924 0z"/></svg>