<svg xmlns="http://www.w3.org/2000/svg" width="40.998" height="41" viewBox="0 0 40.998 41"><defs><style>.a{fill:#b28d70;fill-rule:evenodd;}</style></defs><path class="a" d="M.016,0H28.285V17.76a1.52,1.52,0,0,0-1.252,1.493v.412H23.557v-.412a1.521,1.521,0,0,0-1.52-1.518h-.927a1.521,1.521,0,0,0-1.521,1.518v.412h-.956a2.519,2.519,0,0,0-2.6,2.428V39.935A2.291,2.291,0,0,0,16.3,41H.016Zm41,39.935V25.96H17.4V39.935A1.172,1.172,0,0,0,18.632,41H39.784a1.158,1.158,0,0,0,1.23-1.065ZM28.554,19.1a.156.156,0,0,0-.155.153v2.695a.156.156,0,0,0,.155.152h.927a.156.156,0,0,0,.155-.152V19.253a.156.156,0,0,0-.155-.153Zm-7.445,3h.927a.156.156,0,0,0,.155-.152V19.253a.156.156,0,0,0-.155-.153h-.927a.156.156,0,0,0-.155.153v2.695A.156.156,0,0,0,21.109,22.1ZM31,21.03v.918a1.521,1.521,0,0,1-1.521,1.518h-.927a1.521,1.521,0,0,1-1.521-1.518V21.03H23.557v.918a1.521,1.521,0,0,1-1.52,1.518h-.927a1.521,1.521,0,0,1-1.521-1.518V21.03h-.956a1.157,1.157,0,0,0-1.23,1.063v2.5H41.013v-2.5a1.157,1.157,0,0,0-1.23-1.063H38.447v.918a1.521,1.521,0,0,1-1.521,1.518H36a1.521,1.521,0,0,1-1.52-1.518V21.03Zm4.842.918A.156.156,0,0,0,36,22.1h.927a.156.156,0,0,0,.155-.152V19.253a.156.156,0,0,0-.155-.153H36a.156.156,0,0,0-.155.153Zm.961,15.592V35.4h-2.14V37.54Zm.683-3.5a.683.683,0,0,1,.683.683v3.5a.683.683,0,0,1-.683.683H33.982a.683.683,0,0,1-.683-.683v-3.5a.683.683,0,0,1,.683-.683Zm-.683-2.479V29.42h-2.14v2.138Zm.683-3.5a.683.683,0,0,1,.683.683v3.5a.683.683,0,0,1-.683.683H33.982a.683.683,0,0,1-.683-.683v-3.5a.683.683,0,0,1,.683-.683ZM30.218,37.54V35.4H28.08V37.54Zm.683-3.5a.683.683,0,0,1,.683.683v3.5a.683.683,0,0,1-.683.683H27.4a.683.683,0,0,1-.683-.683v-3.5a.683.683,0,0,1,.683-.683Zm-7.147,3.5V35.4h-2.14V37.54Zm.683-3.5a.683.683,0,0,1,.683.683v3.5a.683.683,0,0,1-.683.683H20.93a.683.683,0,0,1-.683-.683v-3.5a.683.683,0,0,1,.683-.683Zm5.782-2.479V29.42H28.08v2.138Zm.683-3.5a.683.683,0,0,1,.683.683v3.5a.683.683,0,0,1-.683.683H27.4a.683.683,0,0,1-.683-.683v-3.5a.683.683,0,0,1,.683-.683Zm-7.147,3.5V29.42h-2.14v2.138Zm1.366-2.821v3.5a.683.683,0,0,1-.683.683H20.93a.683.683,0,0,1-.683-.683v-3.5a.683.683,0,0,1,.683-.683h3.506A.683.683,0,0,1,25.119,28.737Zm-8.4-20.878H25.6a.683.683,0,0,0,0-1.366H16.719a.683.683,0,1,0,0,1.366Zm0-3.668H25.6a.683.683,0,0,0,0-1.366H16.719a.683.683,0,1,0,0,1.366ZM12.365,31.446l-3.3,2.989-1.1-1.1a.683.683,0,1,0-.965.966l1.557,1.554a.683.683,0,0,0,.941.023l1.27-1.152v2.077H4.207v-5.97h7.251a.683.683,0,0,0,0-1.366H3.524a.683.683,0,0,0-.683.683v7.336a.683.683,0,0,0,.683.683h7.934a.683.683,0,0,0,.683-.683v-4l1.141-1.035a.683.683,0,0,0-.917-1.012Zm-8.841-6.6h7.934a.683.683,0,0,0,.683-.683v-4l1.142-1.036a.683.683,0,0,0-.918-1.011l-3.3,2.991-1.1-1.1a.683.683,0,0,0-.966.966L8.564,22.54a.683.683,0,0,0,.942.023l1.27-1.153v2.076H4.207V17.515h7.251a.683.683,0,1,0,0-1.366H3.524a.683.683,0,0,0-.683.683v7.336a.683.683,0,0,0,.683.683Zm0-13.321h7.934a.683.683,0,0,0,.683-.683v-4L13.283,5.81A.683.683,0,0,0,12.365,4.8l-3.3,2.991-1.1-1.1a.683.683,0,0,0-.965.966L8.564,9.216a.683.683,0,0,0,.941.022l1.27-1.153v2.078H4.207V4.191h7.251a.683.683,0,1,0,0-1.366H3.524a.683.683,0,0,0-.683.683v7.339a.683.683,0,0,0,.683.683Z" transform="translate(-0.016)"/></svg>