<svg id="shopping" xmlns="http://www.w3.org/2000/svg" width="36.409" height="32" viewBox="0 0 36.409 32">
  <path id="Path_16335" data-name="Path 16335" d="M11.8,21.333H31.075a1.063,1.063,0,0,0,1.025-.774L36.367,5.626a1.065,1.065,0,0,0-1.025-1.359h-26L8.579.836A1.067,1.067,0,0,0,7.538,0H1.067a1.067,1.067,0,1,0,0,2.133H6.682l3.852,17.333A3.2,3.2,0,0,0,11.8,25.6H31.075a1.067,1.067,0,1,0,0-2.133H11.8a1.067,1.067,0,1,1,0-2.133Zm0,0" transform="translate(0 0)" fill="#d9bb96"/>
  <path id="Path_16336" data-name="Path 16336" d="M151,363.2a3.2,3.2,0,1,0,3.2-3.2A3.2,3.2,0,0,0,151,363.2Zm0,0" transform="translate(-140.262 -334.404)" fill="#d9bb96"/>
  <path id="Path_16337" data-name="Path 16337" d="M362,363.2a3.2,3.2,0,1,0,3.2-3.2A3.2,3.2,0,0,0,362,363.2Zm0,0" transform="translate(-336.262 -334.404)" fill="#d9bb96"/>
</svg>
