<svg xmlns="http://www.w3.org/2000/svg" xmlns:xlink="http://www.w3.org/1999/xlink" width="338" height="141" viewBox="0 0 338 141">
  <defs>
    <filter id="Rectangle_5522" x="0" y="0" width="338" height="141" filterUnits="userSpaceOnUse">
      <feOffset dy="3" input="SourceAlpha"/>
      <feGaussianBlur stdDeviation="3" result="blur"/>
      <feFlood flood-opacity="0.251"/>
      <feComposite operator="in" in2="blur"/>
      <feComposite in="SourceGraphic"/>
    </filter>
    <filter id="Path_16191" x="29.024" y="43.849" width="85.174" height="62.129" filterUnits="userSpaceOnUse">
      <feOffset dy="3" input="SourceAlpha"/>
      <feGaussianBlur stdDeviation="3" result="blur-2"/>
      <feFlood flood-opacity="0.251"/>
      <feComposite operator="in" in2="blur-2"/>
      <feComposite in="SourceGraphic"/>
    </filter>
    <filter id="Path_16192" x="113.007" y="44.048" width="56.541" height="61.744" filterUnits="userSpaceOnUse">
      <feOffset dy="3" input="SourceAlpha"/>
      <feGaussianBlur stdDeviation="3" result="blur-3"/>
      <feFlood flood-opacity="0.251"/>
      <feComposite operator="in" in2="blur-3"/>
      <feComposite in="SourceGraphic"/>
    </filter>
    <filter id="Path_16193" x="92.458" y="43.624" width="44.572" height="63.231" filterUnits="userSpaceOnUse">
      <feOffset dy="3" input="SourceAlpha"/>
      <feGaussianBlur stdDeviation="3" result="blur-4"/>
      <feFlood flood-opacity="0.251"/>
      <feComposite operator="in" in2="blur-4"/>
      <feComposite in="SourceGraphic"/>
    </filter>
    <filter id="Path_16194" x="148.914" y="48.879" width="49.437" height="47.78" filterUnits="userSpaceOnUse">
      <feOffset dy="3" input="SourceAlpha"/>
      <feGaussianBlur stdDeviation="3" result="blur-5"/>
      <feFlood flood-opacity="0.251"/>
      <feComposite operator="in" in2="blur-5"/>
      <feComposite in="SourceGraphic"/>
    </filter>
    <filter id="Path_16195" x="50.823" y="78.901" width="30.39" height="25.251" filterUnits="userSpaceOnUse">
      <feOffset dy="3" input="SourceAlpha"/>
      <feGaussianBlur stdDeviation="3" result="blur-6"/>
      <feFlood flood-opacity="0.251"/>
      <feComposite operator="in" in2="blur-6"/>
      <feComposite in="SourceGraphic"/>
    </filter>
    <filter id="Path_16196" x="69.191" y="46.909" width="30.369" height="25.32" filterUnits="userSpaceOnUse">
      <feOffset dy="3" input="SourceAlpha"/>
      <feGaussianBlur stdDeviation="3" result="blur-7"/>
      <feFlood flood-opacity="0.251"/>
      <feComposite operator="in" in2="blur-7"/>
      <feComposite in="SourceGraphic"/>
    </filter>
    <filter id="Path_16197" x="66.644" y="76.292" width="30.4" height="25.399" filterUnits="userSpaceOnUse">
      <feOffset dy="3" input="SourceAlpha"/>
      <feGaussianBlur stdDeviation="3" result="blur-8"/>
      <feFlood flood-opacity="0.251"/>
      <feComposite operator="in" in2="blur-8"/>
      <feComposite in="SourceGraphic"/>
    </filter>
    <filter id="Path_16198" x="83.248" y="65.032" width="21.85" height="39.326" filterUnits="userSpaceOnUse">
      <feOffset dy="3" input="SourceAlpha"/>
      <feGaussianBlur stdDeviation="3" result="blur-9"/>
      <feFlood flood-opacity="0.251"/>
      <feComposite operator="in" in2="blur-9"/>
      <feComposite in="SourceGraphic"/>
    </filter>
    <filter id="Path_16199" x="71.561" y="41.449" width="24.887" height="24.557" filterUnits="userSpaceOnUse">
      <feOffset dy="3" input="SourceAlpha"/>
      <feGaussianBlur stdDeviation="3" result="blur-10"/>
      <feFlood flood-opacity="0.251"/>
      <feComposite operator="in" in2="blur-10"/>
      <feComposite in="SourceGraphic"/>
    </filter>
    <filter id="Path_16200" x="38.5" y="69.249" width="24.272" height="24.55" filterUnits="userSpaceOnUse">
      <feOffset dy="3" input="SourceAlpha"/>
      <feGaussianBlur stdDeviation="3" result="blur-11"/>
      <feFlood flood-opacity="0.251"/>
      <feComposite operator="in" in2="blur-11"/>
      <feComposite in="SourceGraphic"/>
    </filter>
    <filter id="Path_16201" x="130.687" y="71.595" width="24.388" height="24.432" filterUnits="userSpaceOnUse">
      <feOffset dy="3" input="SourceAlpha"/>
      <feGaussianBlur stdDeviation="3" result="blur-12"/>
      <feFlood flood-opacity="0.251"/>
      <feComposite operator="in" in2="blur-12"/>
      <feComposite in="SourceGraphic"/>
    </filter>
    <filter id="Path_16202" x="146.086" y="80.792" width="24.357" height="24.816" filterUnits="userSpaceOnUse">
      <feOffset dy="3" input="SourceAlpha"/>
      <feGaussianBlur stdDeviation="3" result="blur-13"/>
      <feFlood flood-opacity="0.251"/>
      <feComposite operator="in" in2="blur-13"/>
      <feComposite in="SourceGraphic"/>
    </filter>
    <filter id="Path_16203" x="85.601" y="39.499" width="25.225" height="26.911" filterUnits="userSpaceOnUse">
      <feOffset dy="3" input="SourceAlpha"/>
      <feGaussianBlur stdDeviation="3" result="blur-14"/>
      <feFlood flood-opacity="0.251"/>
      <feComposite operator="in" in2="blur-14"/>
      <feComposite in="SourceGraphic"/>
    </filter>
    <filter id="Path_16204" x="171.247" y="75.132" width="25.405" height="25.14" filterUnits="userSpaceOnUse">
      <feOffset dy="3" input="SourceAlpha"/>
      <feGaussianBlur stdDeviation="3" result="blur-15"/>
      <feFlood flood-opacity="0.251"/>
      <feComposite operator="in" in2="blur-15"/>
      <feComposite in="SourceGraphic"/>
    </filter>
    <filter id="Path_16205" x="123.875" y="46.199" width="30.779" height="24.252" filterUnits="userSpaceOnUse">
      <feOffset dy="3" input="SourceAlpha"/>
      <feGaussianBlur stdDeviation="3" result="blur-16"/>
      <feFlood flood-opacity="0.251"/>
      <feComposite operator="in" in2="blur-16"/>
      <feComposite in="SourceGraphic"/>
    </filter>
    <filter id="Path_16206" x="145.849" y="44.734" width="24.023" height="22.434" filterUnits="userSpaceOnUse">
      <feOffset dy="3" input="SourceAlpha"/>
      <feGaussianBlur stdDeviation="3" result="blur-17"/>
      <feFlood flood-opacity="0.251"/>
      <feComposite operator="in" in2="blur-17"/>
      <feComposite in="SourceGraphic"/>
    </filter>
    <filter id="Path_16207" x="160.601" y="44.843" width="27.196" height="23.958" filterUnits="userSpaceOnUse">
      <feOffset dy="3" input="SourceAlpha"/>
      <feGaussianBlur stdDeviation="3" result="blur-18"/>
      <feFlood flood-opacity="0.251"/>
      <feComposite operator="in" in2="blur-18"/>
      <feComposite in="SourceGraphic"/>
    </filter>
    <filter id="Path_16208" x="160.451" y="53.591" width="23.301" height="21.65" filterUnits="userSpaceOnUse">
      <feOffset dy="3" input="SourceAlpha"/>
      <feGaussianBlur stdDeviation="3" result="blur-19"/>
      <feFlood flood-opacity="0.251"/>
      <feComposite operator="in" in2="blur-19"/>
      <feComposite in="SourceGraphic"/>
    </filter>
    <filter id="Path_16209" x="55.388" y="46.469" width="22.6" height="22.027" filterUnits="userSpaceOnUse">
      <feOffset dy="3" input="SourceAlpha"/>
      <feGaussianBlur stdDeviation="3" result="blur-20"/>
      <feFlood flood-opacity="0.251"/>
      <feComposite operator="in" in2="blur-20"/>
      <feComposite in="SourceGraphic"/>
    </filter>
  </defs>
  <g id="site_shikh" transform="translate(77 -350)">
    <g transform="matrix(1, 0, 0, 1, -77, 350)" filter="url(#Rectangle_5522)">
      <path id="Rectangle_5522-2" data-name="Rectangle 5522" d="M0,0H258.5A61.5,61.5,0,0,1,320,61.5v0A61.5,61.5,0,0,1,258.5,123H0a0,0,0,0,1,0,0V0A0,0,0,0,1,0,0Z" transform="translate(9 6)" fill="#403226"/>
    </g>
    <path id="Path_72187" data-name="Path 72187" d="M-54.979,1.241a3.084,3.084,0,0,1-2.151-.7,2.511,2.511,0,0,1-.77-1.958,2.756,2.756,0,0,1,.854-2.14,3.273,3.273,0,0,1,2.3-.781h.758v-.725h.983v5.4H-51.7q.056,0,.056.045v.8a.05.05,0,0,1-.056.056Zm.989-.9V-3.444h-.725a2.244,2.244,0,0,0-1.6.531,1.94,1.94,0,0,0-.565,1.486,1.708,1.708,0,0,0,.489,1.314A1.961,1.961,0,0,0-55,.342Zm-1.584-6.465a.675.675,0,0,1-.458-.163.664.664,0,0,1-.188-.528.664.664,0,0,1,.188-.528.675.675,0,0,1,.458-.163.625.625,0,0,1,.466.177.7.7,0,0,1,.174.514.712.712,0,0,1-.171.511A.617.617,0,0,1-55.575-6.123Zm1.989,0a.626.626,0,0,1-.472-.18.7.7,0,0,1-.174-.511.712.712,0,0,1,.171-.511.624.624,0,0,1,.475-.18.608.608,0,0,1,.477.188.725.725,0,0,1,.169.5.725.725,0,0,1-.169.5A.608.608,0,0,1-53.586-6.123Zm1.775,7.364a.05.05,0,0,1-.056-.056v-.8q0-.045.056-.045h1.427a5.59,5.59,0,0,1-.427-1.966A3.927,3.927,0,0,1-50.4-3.455a3.338,3.338,0,0,1,.966-.562,3.157,3.157,0,0,1,1.135-.208,2.465,2.465,0,0,1,1.264.317,2.109,2.109,0,0,1,.837.9A2.924,2.924,0,0,1-45.9-1.68a3.455,3.455,0,0,1-.329,1.562A2.362,2.362,0,0,1-47.157.89a2.652,2.652,0,0,1-1.368.351Zm2.033-3.061a5.723,5.723,0,0,0,.1,1.048A5.7,5.7,0,0,0-49.34.342h.814a1.411,1.411,0,0,0,1.18-.522,2.4,2.4,0,0,0,.41-1.511,1.754,1.754,0,0,0-.4-1.185,1.226,1.226,0,0,0-.963-.461,2.059,2.059,0,0,0-.716.129,2.323,2.323,0,0,0-.626.343,1.759,1.759,0,0,0-.118.492Q-49.778-2.124-49.778-1.82ZM-44.632.342h2.578l-1.483-6.291h1.067L-40.987.342h1.534V-7.5h1.022V.342h1.494q.062,0,.062.045v.8q0,.056-.062.056h-7.7Zm13.184.9A4.179,4.179,0,0,1-32.488,1.1a4.866,4.866,0,0,1-1.09-.43,4.276,4.276,0,0,1-2.14.573h-1.331a.05.05,0,0,1-.056-.056v-.8q0-.045.056-.045h1.32a3.538,3.538,0,0,0,1.371-.23,4.531,4.531,0,0,1-.907-.924,6.852,6.852,0,0,1-.786-1.3,5.129,5.129,0,0,1-.424-1.328,4.835,4.835,0,0,1,1.418-.927,4.062,4.062,0,0,1,1.609-.337,4.869,4.869,0,0,1,1.46.23,4.706,4.706,0,0,1,1.286.612,4.792,4.792,0,0,1-.55,2.247A4.666,4.666,0,0,1-32.769.1a3.592,3.592,0,0,0,1.275.242H-30.1q.056,0,.056.045v.8a.05.05,0,0,1-.056.056ZM-33.566-.4a4.335,4.335,0,0,0,1.32-1.32,3.578,3.578,0,0,0,.489-1.657,3.489,3.489,0,0,0-1.657-.427,3.444,3.444,0,0,0-1.955.668,4.446,4.446,0,0,0,.652,1.505A5.007,5.007,0,0,0-33.566-.4Zm3.353,1.646a.05.05,0,0,1-.056-.056v-.8q0-.045.056-.045H-28.7V-7.5h1.022v8.74Zm4.842-8.74h1.022v8.74h-1.022Zm8.993,12.431A2.51,2.51,0,0,1-18.13,4.35a2.1,2.1,0,0,1-.64-1.637,2.277,2.277,0,0,1,.433-1.343A3.936,3.936,0,0,1-16.984.253a12.994,12.994,0,0,1,2.539-.977,7.868,7.868,0,0,1-.23-1.039,2.562,2.562,0,0,0-.565-1.351,1.454,1.454,0,0,0-1.115-.441,3.689,3.689,0,0,0-.989.166,5.037,5.037,0,0,0-1.022.407l-.4-.792a4.276,4.276,0,0,1,1.112-.483,4.643,4.643,0,0,1,1.314-.2q2.2,0,2.578,2.427a7.877,7.877,0,0,0,.354,1.522,1.487,1.487,0,0,0,.455.635,1.174,1.174,0,0,0,.73.213h.062q.056,0,.056.045v.8a.05.05,0,0,1-.056.056h-.062a2.147,2.147,0,0,1-1.1-.272A2.158,2.158,0,0,1-14.12.09a12.476,12.476,0,0,0-2.135.75,3.221,3.221,0,0,0-1.112.817,1.517,1.517,0,0,0-.354.966A1.309,1.309,0,0,0-17.293,3.7a2.1,2.1,0,0,0,1.331.345,11.187,11.187,0,0,0,1.691-.185l.124.792q-.815.174-1.292.225A8.906,8.906,0,0,1-16.378,4.932Zm-.067-10.364a.626.626,0,0,1-.472-.18.7.7,0,0,1-.174-.511.712.712,0,0,1,.171-.511.624.624,0,0,1,.475-.18.608.608,0,0,1,.477.188.725.725,0,0,1,.169.5.725.725,0,0,1-.169.5A.608.608,0,0,1-16.445-5.432Zm4.162,6.673a.05.05,0,0,1-.056-.056v-.8q0-.045.056-.045h1.865V-4.337H-9.4V.342h1.724q.056,0,.056.045v.8a.05.05,0,0,1-.056.056Zm1.416,2.3a.675.675,0,0,1-.458-.163.664.664,0,0,1-.188-.528.664.664,0,0,1,.188-.528.675.675,0,0,1,.458-.163.625.625,0,0,1,.466.177.7.7,0,0,1,.174.514.712.712,0,0,1-.171.511A.617.617,0,0,1-10.867,3.544Zm1.989,0a.626.626,0,0,1-.472-.18.7.7,0,0,1-.174-.511.712.712,0,0,1,.171-.511.624.624,0,0,1,.475-.18.608.608,0,0,1,.477.188.725.725,0,0,1,.169.5.725.725,0,0,1-.169.5A.608.608,0,0,1-8.879,3.544Zm8.594-2.3a2.578,2.578,0,0,1-.952-.171,2.772,2.772,0,0,1-.9-.632,1.924,1.924,0,0,1-.674.579,2.109,2.109,0,0,1-1.005.225H-7.783a.05.05,0,0,1-.056-.056v-.8q0-.045.056-.045h1.646V-3.444h.977V.342h1.241a1.068,1.068,0,0,0,.865-.368,1.448,1.448,0,0,0,.309-.963V-3.444h.977V-.68l-.011.129a1.854,1.854,0,0,0,.626.694,1.7,1.7,0,0,0,.868.2h.7V-4.337H1.4V.342H2.934Q3,.342,3,.387v.8q0,.056-.062.056ZM-2.262-6.982a.621.621,0,0,1-.427-.149.619.619,0,0,1-.169-.486A.62.62,0,0,1-2.688-8.1a.614.614,0,0,1,.427-.152.616.616,0,0,1,.418.154.6.6,0,0,1,.177.48.6.6,0,0,1-.177.486A.629.629,0,0,1-2.262-6.982Zm-.989,1.55a.675.675,0,0,1-.458-.163A.664.664,0,0,1-3.9-6.123a.664.664,0,0,1,.188-.528.675.675,0,0,1,.458-.163.608.608,0,0,1,.477.188.725.725,0,0,1,.169.5.725.725,0,0,1-.169.5A.608.608,0,0,1-3.25-5.432Zm1.989,0a.626.626,0,0,1-.472-.18.7.7,0,0,1-.174-.511.712.712,0,0,1,.171-.511.624.624,0,0,1,.475-.18.608.608,0,0,1,.477.188.725.725,0,0,1,.169.5.725.725,0,0,1-.169.5A.608.608,0,0,1-1.262-5.432ZM2.822,1.241a.05.05,0,0,1-.056-.056v-.8q0-.045.056-.045H4.339V-7.5H5.361v8.74ZM7.664-7.5H8.686v8.74H7.664Zm9.752,8.74a3.084,3.084,0,0,1-2.151-.7,2.511,2.511,0,0,1-.77-1.958,2.756,2.756,0,0,1,.854-2.14,3.273,3.273,0,0,1,2.3-.781H18.4v-.725h.983v5.4H20.7q.056,0,.056.045v.8a.05.05,0,0,1-.056.056Zm.989-.9V-3.444H17.68a2.244,2.244,0,0,0-1.6.531,1.94,1.94,0,0,0-.565,1.486,1.708,1.708,0,0,0,.489,1.314,1.961,1.961,0,0,0,1.387.455ZM16.82-6.123a.675.675,0,0,1-.458-.163.664.664,0,0,1-.188-.528.664.664,0,0,1,.188-.528A.675.675,0,0,1,16.82-7.5a.625.625,0,0,1,.466.177.7.7,0,0,1,.174.514.712.712,0,0,1-.171.511A.617.617,0,0,1,16.82-6.123Zm1.989,0a.626.626,0,0,1-.472-.18.7.7,0,0,1-.174-.511.712.712,0,0,1,.171-.511.624.624,0,0,1,.475-.18.608.608,0,0,1,.477.188.725.725,0,0,1,.169.5.725.725,0,0,1-.169.5A.608.608,0,0,1,18.809-6.123Zm1.775,7.364a.05.05,0,0,1-.056-.056v-.8q0-.045.056-.045H22.1V-7.5h1.022V.342h1.5q.056,0,.056.045v.8a.05.05,0,0,1-.056.056Zm3.921,0a.05.05,0,0,1-.056-.056v-.8q0-.045.056-.045H26.37V-4.337h1.022V.342h1.724q.056,0,.056.045v.8a.05.05,0,0,1-.056.056Zm1.416,2.3a.675.675,0,0,1-.458-.163.664.664,0,0,1-.188-.528.664.664,0,0,1,.188-.528.675.675,0,0,1,.458-.163.625.625,0,0,1,.466.177.7.7,0,0,1,.174.514.712.712,0,0,1-.171.511A.617.617,0,0,1,25.92,3.544Zm1.989,0a.626.626,0,0,1-.472-.18.7.7,0,0,1-.174-.511.712.712,0,0,1,.171-.511.624.624,0,0,1,.475-.18.608.608,0,0,1,.477.188.725.725,0,0,1,.169.5.725.725,0,0,1-.169.5A.608.608,0,0,1,27.909,3.544Zm1.1-2.3a.05.05,0,0,1-.056-.056v-.8q0-.045.056-.045h1.4V-3.994h.977v2.129A4.789,4.789,0,0,1,32.739-3.8a2.856,2.856,0,0,1,1.831-.652,2.576,2.576,0,0,1,1.969.708,3.144,3.144,0,0,1,.666,2.213V.342h1.517q.062,0,.062.045v.8q0,.056-.062.056Zm7.224-.9V-1.483a2.24,2.24,0,0,0-.463-1.562,1.821,1.821,0,0,0-1.4-.5q-1.769,0-2.977,2.943V.342ZM34.262-5.432a.626.626,0,0,1-.472-.18.7.7,0,0,1-.174-.511.712.712,0,0,1,.171-.511.624.624,0,0,1,.475-.18.608.608,0,0,1,.477.188.725.725,0,0,1,.169.5.725.725,0,0,1-.169.5A.608.608,0,0,1,34.262-5.432ZM43.44.342V-3.444h-.494a2.24,2.24,0,0,0-1.592.534,1.961,1.961,0,0,0-.57,1.505q0,1.747,1.573,1.747Zm-4.831.9a.05.05,0,0,1-.056-.056v-.8q0-.045.056-.045h1.747a2.229,2.229,0,0,1-.444-.8,3.035,3.035,0,0,1-.152-.932,2.81,2.81,0,0,1,.845-2.146,3.224,3.224,0,0,1,2.306-.8h1.505V1.241Zm3.623-6.673a.626.626,0,0,1-.472-.18.7.7,0,0,1-.174-.511.712.712,0,0,1,.171-.511.624.624,0,0,1,.475-.18.608.608,0,0,1,.477.188.725.725,0,0,1,.169.5.725.725,0,0,1-.169.5A.608.608,0,0,1,42.233-5.432Zm8.156,8.145A2.441,2.441,0,0,1,50.8,1.356,4.814,4.814,0,0,1,52.136.09a8.243,8.243,0,0,1-1.387-1.744,5.015,5.015,0,0,1-.7-1.789A4.835,4.835,0,0,1,51.47-4.37a4.062,4.062,0,0,1,1.609-.337,4.869,4.869,0,0,1,1.46.23,4.706,4.706,0,0,1,1.286.612,4.774,4.774,0,0,1-.556,2.132A5.556,5.556,0,0,1,53.731.078a3.309,3.309,0,0,0,1.3.264h1.393q.056,0,.056.045v.8a.05.05,0,0,1-.056.056H55.079a4,4,0,0,1-1.056-.174A5.411,5.411,0,0,1,52.917.629a4.054,4.054,0,0,0-1.152,1,1.715,1.715,0,0,0-.331,1A1.309,1.309,0,0,0,51.861,3.7a2.1,2.1,0,0,0,1.331.345,6.2,6.2,0,0,0,.871-.059q.416-.059.82-.126l.129.792q-.831.174-1.281.225a8.554,8.554,0,0,1-.955.051,2.492,2.492,0,0,1-1.75-.584A2.106,2.106,0,0,1,50.389,2.713Zm.77-5.853a4.267,4.267,0,0,0,.618,1.4,5.605,5.605,0,0,0,1.152,1.3,4.615,4.615,0,0,0,1.328-1.32,3.5,3.5,0,0,0,.514-1.623,3.489,3.489,0,0,0-1.657-.427A3.444,3.444,0,0,0,51.158-3.14ZM61.14.342V-3.444h-.494a2.24,2.24,0,0,0-1.592.534,1.961,1.961,0,0,0-.57,1.505q0,1.747,1.573,1.747Zm-4.831.9a.05.05,0,0,1-.056-.056v-.8q0-.045.056-.045h1.747a2.229,2.229,0,0,1-.444-.8,3.035,3.035,0,0,1-.152-.932,2.81,2.81,0,0,1,.845-2.146,3.224,3.224,0,0,1,2.306-.8h1.505V1.241ZM59.23-5.432a.675.675,0,0,1-.458-.163.664.664,0,0,1-.188-.528.664.664,0,0,1,.188-.528.675.675,0,0,1,.458-.163.625.625,0,0,1,.466.177.7.7,0,0,1,.174.514.712.712,0,0,1-.171.511A.617.617,0,0,1,59.23-5.432Zm1.989,0a.626.626,0,0,1-.472-.18.7.7,0,0,1-.174-.511.712.712,0,0,1,.171-.511.624.624,0,0,1,.475-.18.608.608,0,0,1,.477.188.725.725,0,0,1,.169.5.725.725,0,0,1-.169.5A.608.608,0,0,1,61.219-5.432ZM67.594.342V-3.444H67.1a2.226,2.226,0,0,0-1.592.539,1.98,1.98,0,0,0-.57,1.511,1.884,1.884,0,0,0,.39,1.317A1.542,1.542,0,0,0,66.51.342Zm.977,1.174a2.4,2.4,0,0,1-.694,1.831A2.743,2.743,0,0,1,65.915,4a3.692,3.692,0,0,1-2.073-.59l.461-.77a5.078,5.078,0,0,0,.764.329,2.723,2.723,0,0,0,.871.132,1.714,1.714,0,0,0,1.225-.418,1.46,1.46,0,0,0,.444-1.115V1.241H66.477a2.557,2.557,0,0,1-1.9-.674,2.646,2.646,0,0,1-.671-1.949,2.8,2.8,0,0,1,.859-2.154,3.236,3.236,0,0,1,2.3-.8h1.505V.342h.944q.056,0,.056.045v.8a.05.05,0,0,1-.056.056h-.944Zm.831-.275a.05.05,0,0,1-.056-.056v-.8q0-.045.056-.045H70.83A5.591,5.591,0,0,1,70.4-1.624a3.927,3.927,0,0,1,.416-1.831,3.338,3.338,0,0,1,.966-.562,3.157,3.157,0,0,1,1.135-.208,2.465,2.465,0,0,1,1.264.317,2.109,2.109,0,0,1,.837.9,2.924,2.924,0,0,1,.292,1.326,3.455,3.455,0,0,1-.329,1.562A2.362,2.362,0,0,1,74.057.89a2.652,2.652,0,0,1-1.368.351ZM71.437-1.82a5.723,5.723,0,0,0,.1,1.048A5.7,5.7,0,0,0,71.875.342h.814a1.411,1.411,0,0,0,1.18-.522,2.4,2.4,0,0,0,.41-1.511,1.754,1.754,0,0,0-.4-1.185,1.226,1.226,0,0,0-.963-.461,2.059,2.059,0,0,0-.716.129,2.323,2.323,0,0,0-.626.343,1.76,1.76,0,0,0-.118.492Q71.437-2.124,71.437-1.82Z" transform="translate(27.979 382.369)" fill="#d29e5b"/>
    <g id="Ellipse_53" data-name="Ellipse 53" transform="translate(138 369)" fill="#d9bb96" stroke="#d9bb96" stroke-width="2">
      <ellipse cx="49" cy="48.5" rx="49" ry="48.5" stroke="none"/>
      <ellipse cx="49" cy="48.5" rx="48" ry="47.5" fill="none"/>
    </g>
    <g id="books" transform="translate(161.353 382.465)">
      <path id="Exclusion_4" data-name="Exclusion 4" d="M25.273,69.293h0c-.264-17.635.136-34.073,1.186-48.857C27.275,8.917,28.231,2.207,28.5.424L24.442,3.012l-.229-.375L28.571,0c-.006.031-.026.169-.062.4l0,.026L28.582,0l18.2,10.578a456.42,456.42,0,0,0,3.3,55.644C41.853,66.446,25.438,69.265,25.273,69.293ZM39.089,25.15s-.007,0-.011.008,0,.007,0,.021a.6.6,0,0,0,.06.073.257.257,0,0,0,.068.038.13.13,0,0,0,.035,0,.139.139,0,0,0,.091-.039.241.241,0,0,0,.075-.1l.021-.042a.461.461,0,0,0,.025-.152.519.519,0,0,0-.028-.149l-.118.086a.3.3,0,0,1,0,.2.128.128,0,0,1-.024.045.126.126,0,0,1-.024.037.1.1,0,0,1-.067.027.163.163,0,0,1-.033,0,.166.166,0,0,1-.062-.039C39.1,25.153,39.093,25.15,39.089,25.15Zm-.657-.273h0l.088.025.54.153.07-.1-.027-.006a.065.065,0,0,1-.049-.056l-.018-.09A.25.25,0,0,0,39,24.693a.114.114,0,0,0-.069-.052.128.128,0,0,0-.03,0,.188.188,0,0,0-.078.018.073.073,0,0,0-.02.009l-.015.006-.014.005a.217.217,0,0,0-.038.035.1.1,0,0,1-.024.021l0,.006a.013.013,0,0,0,0,.008l.018.007.01,0a.153.153,0,0,1,.07-.021h.017a.194.194,0,0,1,.038,0,.051.051,0,0,1,.028.021.059.059,0,0,1,.021.022l0,.005a.05.05,0,0,1,.007.021.016.016,0,0,1,0,.007l0,.014.01.077L38.6,24.8l-.041-.011-.066-.018c.01-.153-.014-.239-.07-.257a.064.064,0,0,0-.021,0c-.056,0-.135.057-.239.167l-.1-.027-.08-.024.069-.208a.022.022,0,0,0,0-.022.031.031,0,0,0-.021-.016.17.17,0,0,0-.044,0,.253.253,0,0,0-.05,0,.5.5,0,0,0-.129.045.888.888,0,0,0-.115.056.694.694,0,0,0-.09.059l0,0a.037.037,0,0,0-.009.013c0,.007,0,.014.01.021l.146.115.122-.056-.021.07.223.062.034.01h.007l.014,0a.118.118,0,0,0,.028,0,.051.051,0,0,0,.019-.006.062.062,0,0,0,.02-.015c.038.036.073.068.107.1a.175.175,0,0,0,.063.042l.01,0a.074.074,0,0,0,.016,0,.17.17,0,0,0,.046-.03Zm-1.117-1.091a.1.1,0,0,0-.056.015.094.094,0,0,0-.038.052l-.023.09c-.058.217-.119.427-.187.642l.065.007.04-.112.02-.053c.026-.074.055-.149.079-.227.011-.021.034-.1.077-.24l.041-.018c0-.08,0-.125,0-.131v-.025Zm-.833.6h0a.231.231,0,0,0,.135.086.526.526,0,0,0,.111.018.125.125,0,0,0,.059-.014.318.318,0,0,0,.087-.111c.008-.023.016-.047.022-.071l.008-.024c.006-.019.012-.038.019-.057l0-.018.013-.046c.008-.031.016-.062.024-.093s.017-.066.027-.1c0-.011,0-.022.009-.033s.007-.022.009-.033c.011-.043.025-.1.052-.185a.833.833,0,0,0-.111.045c-.052.247-.1.451-.146.638a.453.453,0,0,1-.061,0,.34.34,0,0,1-.22-.084l.08-.25c.031-.1.059-.2.087-.293a.678.678,0,0,0-.111.044c-.037.146-.071.3-.107.486a.45.45,0,0,1-.053,0,.348.348,0,0,1-.1-.014.258.258,0,0,1-.124-.069l.023-.077.024-.082c.025-.086.053-.18.087-.282l-.023.006H36.3a.193.193,0,0,0-.032.009.229.229,0,0,0-.06.024l-.011.052a.917.917,0,0,0-.163.029l-.007,0a.347.347,0,0,0-.107.052l-.019.021a.389.389,0,0,0-.031.032l0,.006a.157.157,0,0,0-.029.042c0,.011,0,.022.01.038a.213.213,0,0,0,.056.056.264.264,0,0,0,.052.04l.018.012a.566.566,0,0,0,.1.042l.072-.062-.008.045a.106.106,0,0,0,.028.094.343.343,0,0,0,.118.062h.007a.372.372,0,0,0,.094.018.461.461,0,0,0,.1-.011ZM34.768,23.8h0a.159.159,0,0,0,.044.044.272.272,0,0,0,.056.028l.229.062.332.094.108-.323-.136.056-.045.128-.222-.062-.247-.07a.261.261,0,0,1,.087-.038.138.138,0,0,1,.039,0,.129.129,0,0,1,.048.008.271.271,0,0,0-.194-.229.257.257,0,0,0-.071-.01.327.327,0,0,0-.224.1.131.131,0,0,1,.069.042.149.149,0,0,1,.045.076l-.185-.052-.156-.045.118-.336-.076-.115-.18.531.211.059.22.063a.149.149,0,0,0,.058.007.664.664,0,0,0,.07-.014Zm-1.2-.541h0l-.009,0a.3.3,0,0,0-.128.071.268.268,0,0,0-.069.108.241.241,0,0,0,.007.177.245.245,0,0,0,.136.118l.031.01a.411.411,0,0,0,.087.014.224.224,0,0,0,.135-.042.509.509,0,0,0,.048-.052.208.208,0,0,0,.032-.059.06.06,0,0,0,.007-.018.016.016,0,0,0,0-.01l.126.039.177.048.181-.531-.133.055-.114.336L34,23.51l-.294-.083-.08.1.084.024a.031.031,0,0,1,.021.014.034.034,0,0,1,0,.031.161.161,0,0,1-.027.028.2.2,0,0,1-.042.012h-.007a.254.254,0,0,1-.049,0H33.6a.2.2,0,0,1-.036-.009.153.153,0,0,1-.107-.083.143.143,0,0,1-.014-.065.247.247,0,0,1,.009-.055l0-.008,0-.01a.185.185,0,0,1,.038-.067l.01-.009a.7.7,0,0,1,.063-.046c.011,0,.015-.007.015-.011s0-.006,0-.008l0,0Zm3.1.4h0a.067.067,0,0,0,.013.021.156.156,0,0,0,.03.016.047.047,0,0,0,.021,0,.076.076,0,0,0,.042-.014.091.091,0,0,0,.045-.052c0-.013.007-.027.01-.045a.158.158,0,0,0-.007-.056.066.066,0,0,0-.031.011.063.063,0,0,0-.021.021s0,.007,0,.014a.239.239,0,0,1,.007.062.014.014,0,0,1-.008,0h0l-.008,0h-.02a.043.043,0,0,1-.035-.027.137.137,0,0,1,0-.07l-.041.011-.014.048a.042.042,0,0,1-.021.028.074.074,0,0,1-.022,0H36.6a.041.041,0,0,1-.023-.017.036.036,0,0,1,0-.032.042.042,0,0,1,.006-.013l0-.008a.045.045,0,0,0,.008-.014l-.021-.01-.009.011a.213.213,0,0,0-.016.021.067.067,0,0,0-.01.02l0,.007a.058.058,0,0,0,0,.056.053.053,0,0,0,.041.027.035.035,0,0,0,.019,0,.106.106,0,0,0,.025,0,.1.1,0,0,0,.045-.029Zm7.763-.671a.177.177,0,0,0-.106.036c-.022.018-.032.036-.026.052s.031.033.068.034a.16.16,0,0,1,.149.077l-.143.087a.25.25,0,0,1-.068.051c-.041.022-.082.045-.086.079s.019.053.061.088a.311.311,0,0,0,.191.049.656.656,0,0,0,.3-.073c-.05-.008-.1-.014-.142-.019h-.017c-.051-.006-.1-.012-.149-.021a.133.133,0,0,1-.094-.043.081.081,0,0,1,0-.068l.02-.008L44.4,23.3a.222.222,0,0,0,.148-.1.224.224,0,0,1,.027-.017c.034-.021.069-.042.07-.068s-.011-.034-.039-.054A.312.312,0,0,0,44.432,22.984Zm-1.967-.058h0a1.165,1.165,0,0,0-.335.2c0,.009,0,.03.021.058.046.075.145.184.181.189a.871.871,0,0,0,.329-.208c0-.006,0-.019-.018-.048A.593.593,0,0,0,42.465,22.927Zm-1.659-1.493v0c.046.23.046.23-.1.391a1.808,1.808,0,0,0-.25.343.6.6,0,0,0-.063.523.568.568,0,0,0,.391.31,1.438,1.438,0,0,0,.4.056,1.1,1.1,0,0,0,.759-.295,2.264,2.264,0,0,0,.64-.86c.017-.046.038-.07.107-.07H42.7a.411.411,0,0,0,.385-.229c.011-.012.016-.019.013-.025s-.015-.012-.03-.016a.283.283,0,0,1-.2.093.272.272,0,0,1-.139-.041.158.158,0,0,0-.081-.029c-.044,0-.071.034-.1.07a.888.888,0,0,0-.125.277l0,.007c-.012.039-.028.086-.045.129a1.048,1.048,0,0,1-.993.646,1.149,1.149,0,0,1-.405-.073c-.248-.092-.368-.243-.348-.437a.83.83,0,0,1,.269-.448l.022-.024a.073.073,0,0,1,.062-.027.322.322,0,0,1,.043,0l.025,0a1.244,1.244,0,0,0,.137.007,1.282,1.282,0,0,0,.977-.5l.008-.009c.061-.067.134-.148.045-.234a.2.2,0,0,0-.15-.058.569.569,0,0,0-.155.027,1.566,1.566,0,0,0-.573.33.2.2,0,0,1-.131.063.141.141,0,0,1-.111-.062.129.129,0,0,0-.1-.06.24.24,0,0,0-.1.029l-.037.019-.024.012c-.038.018-.07.034-.1.053a.357.357,0,0,1-.185.055.282.282,0,0,1-.2-.082.275.275,0,0,1-.081-.195.539.539,0,0,1,.034-.257l.145-.3.151-.316c.088-.177.18-.364.268-.545l-.042-.018c-.012.017-.025.032-.038.048a.5.5,0,0,0-.053.067,4.913,4.913,0,0,0-.4.7l-.006.011-.012.024c-.02.041-.04.081-.061.121s-.042.085-.064.126l-.006.01a1.657,1.657,0,0,0-.21.565.3.3,0,0,0,.052.248.237.237,0,0,0,.187.07.675.675,0,0,0,.16-.023,1.381,1.381,0,0,0,.432-.208Zm2.31,1.2c.047,0,.071.037.086.126a.376.376,0,0,0,.375.26.029.029,0,0,0,.017,0,.57.57,0,0,0,.49-.316c.046-.1-.022-.136-.089-.174a.25.25,0,0,1-.1-.076c0-.007-.008-.01-.015-.015l-.01-.006c0-.058.038-.08.082-.1l.014-.007a.926.926,0,0,1,.2-.068l.008,0c.032-.008.064-.017.1-.027l.142-.006h.018c.1,0,.2-.008.3-.015.119-.007.2-.063.216-.146s-.09-.128-.163-.156a.3.3,0,0,0-.062-.019.217.217,0,0,1-.144-.076.83.83,0,0,1,.234-.034.992.992,0,0,1,.2.021.7.7,0,0,0,.147.016.482.482,0,0,0,.416-.21c.066-.1.015-.181-.031-.252l-.008-.014-.01-.015c-.03-.044-.071-.1-.136-.1a.115.115,0,0,0-.038.006l-.039.013a.645.645,0,0,0-.314.168c-.056.067-.024.123.01.181a.341.341,0,0,1,.035.072h-.048a1.645,1.645,0,0,0-.7.15c-.031.014-.09.04-.087.083s.037.042.07.048a.144.144,0,0,1,.036.008,1.238,1.238,0,0,0,.147.032.67.67,0,0,1,.308.11c-.067.01-.132.016-.2.022h-.007a1.6,1.6,0,0,0-.311.05.929.929,0,0,0-.424.163c-.04.034-.083.066-.127.1l-.027.021-.026.02a.207.207,0,0,0-.036.038c-.021.025-.04.049-.068.049a.06.06,0,0,1-.021,0c-.06-.02-.062-.088-.064-.139V22.4a.374.374,0,0,1,.094-.239l.011-.013a.088.088,0,0,0,.021-.112c-.055.049-.106.1-.157.15l-.008.008a1.813,1.813,0,0,1-.3.262,1.323,1.323,0,0,1-.25.11l-.007,0a1.045,1.045,0,0,0-.319.156c.057,0,.111.007.162.007a.685.685,0,0,0,.288-.052A.372.372,0,0,1,43.115,22.638ZM40.1,19.484h0a.187.187,0,0,0-.138.061l-.01.007a.088.088,0,0,1-.018.015,1.416,1.416,0,0,0-.458.723.283.283,0,0,1-.246.222.4.4,0,0,0-.277.17.845.845,0,0,0,.238.06.7.7,0,0,1,.338.11,2.149,2.149,0,0,0-.931.344,1.545,1.545,0,0,0-.486.486.517.517,0,0,0-.075.447.576.576,0,0,0,.378.334,1.613,1.613,0,0,0,.545.1,1.558,1.558,0,0,0,.968-.351.781.781,0,0,0,.3-.288,1.687,1.687,0,0,1-.191.111l-.011.006c-.055.029-.1.056-.152.087a1.89,1.89,0,0,1-.684.146,1.244,1.244,0,0,1-.462-.087.449.449,0,0,1-.341-.423.679.679,0,0,1,.247-.5,1.828,1.828,0,0,1,.8-.3.606.606,0,0,0,.341-.135c.04-.038.057-.072.052-.1s-.033-.049-.08-.066c-.107-.035-.211-.07-.344-.115a1.491,1.491,0,0,0,.432-.6,1.971,1.971,0,0,1,.273-.459Zm1.4,2.466h0a.845.845,0,0,0-.335.212s0,.011.01.024a.924.924,0,0,0,.2.215h.007a.72.72,0,0,0,.31-.215.138.138,0,0,0-.029-.074.445.445,0,0,0-.158-.162Zm-3.48-1.41a.045.045,0,0,0-.034.02,1.2,1.2,0,0,0-.347.462c-.064.167-.142.334-.216.5l-.013.026,0,.008-.088.19a.5.5,0,0,1-.032.06.267.267,0,0,0-.054.187,2.841,2.841,0,0,0,.613-1.011l.026-.063c.037-.085.075-.173.116-.259.032-.029.069-.061.048-.107A.018.018,0,0,0,38.025,20.54Zm-1.487.863c.076,0,.135.046.183.146a.446.446,0,0,0,.18-.094l.012-.007a.4.4,0,0,1,.049-.034l.012-.009c.042-.027.087-.058.087-.1s-.015-.046-.05-.073a.311.311,0,0,1-.055-.058c-.037-.043-.073-.085-.124-.085a.171.171,0,0,0-.106.05.211.211,0,0,1-.125.058.154.154,0,0,1-.121-.079.129.129,0,0,0-.1-.063.167.167,0,0,0-.105.049.4.4,0,0,1-.066.048l-.013.008c-.014.01-.028.019-.042.03a.19.19,0,0,1-.034.023c-.028.019-.054.036-.059.058a.043.043,0,0,0,.008.034c.052.07.146.188.2.188a.031.031,0,0,0,.016,0l.021-.01A.6.6,0,0,1,36.538,21.4Zm7.479-.1h0c-.053.059-.107.124-.095.161q.009.021.047.026a.6.6,0,0,1,.071.015.584.584,0,0,0,.133.02.186.186,0,0,0,.149-.069l.011-.008c.037-.025.076-.05.079-.1a.08.08,0,0,0-.08.056h0a.265.265,0,0,1-.09-.018.249.249,0,0,0-.076-.016.137.137,0,0,0-.08.026.043.043,0,0,1-.023.01c-.017,0-.022-.023-.026-.048a.142.142,0,0,0-.02-.056Zm-8.746-.045a.127.127,0,0,1,.094.06l.008.008a.026.026,0,0,0,.008.009c.027.032.063.073.106.073a.086.086,0,0,0,.038-.01,1.035,1.035,0,0,0,.187-.131l.018-.014.07-.053a.215.215,0,0,0-.1-.15c-.021-.018-.037-.032-.053-.047a.1.1,0,0,0-.068-.03.152.152,0,0,0-.081.03.3.3,0,0,0-.047.033.168.168,0,0,1-.094.046.1.1,0,0,1-.072-.044.209.209,0,0,0-.163-.1.367.367,0,0,0-.207.1.413.413,0,0,1-.046.031c-.043.025-.086.051-.065.091a.557.557,0,0,0,.23.206.075.075,0,0,0,.04.015c.031,0,.06-.028.086-.052l.019-.019A.147.147,0,0,1,35.271,21.261ZM34.1,19.441h-.037a.066.066,0,0,0-.033.005,2.85,2.85,0,0,0-.857.944.468.468,0,0,0-.016.364.582.582,0,0,0,.294.334.849.849,0,0,0,.392.086,1.665,1.665,0,0,0,.258-.024,1.805,1.805,0,0,0,1.193-.906l.015-.024c.094-.15.115-.185.242-.185.038,0,.083,0,.152.008l-.008.019c-.023.051-.048.106-.071.166a.438.438,0,0,0,0,.391.529.529,0,0,0,.414.192c.021,0,.04,0,.06,0a.528.528,0,0,0,.464-.284.1.1,0,0,0,.018-.083c-.012-.039-.056-.062-.1-.084a.245.245,0,0,1-.09-.065l-.013-.01-.009-.009a.04.04,0,0,1-.017-.029c0-.01.008-.021.023-.036a.351.351,0,0,1,.22-.071.308.308,0,0,1,.26.12.227.227,0,0,0,.194.125.317.317,0,0,0,.145-.041.271.271,0,0,1,.114-.034.123.123,0,0,1,.067.02.392.392,0,0,0,.211.063.692.692,0,0,0,.313-.1l.023.017a.174.174,0,0,1,.028.022c.1.114.157.157.23.157a.449.449,0,0,0,.221-.087,1.338,1.338,0,0,0,.142-.108,2.164,2.164,0,0,0,.543-.734c.06-.112.114-.212.177-.311a.123.123,0,0,0-.037-.006.088.088,0,0,0-.066.034.083.083,0,0,1-.012.011,1.482,1.482,0,0,0-.437.628.549.549,0,0,1-.413.4.432.432,0,0,1-.092.013.09.09,0,0,1-.074-.026.123.123,0,0,1-.015-.1A.525.525,0,0,0,38.431,20a.116.116,0,0,0,.009-.1c-.028-.088-.213-.168-.386-.168a.483.483,0,0,0-.072.005l-.014,0h-.007a.083.083,0,0,0-.032.007l-.038.023-.019.012a.475.475,0,0,0-.141.107.017.017,0,0,0,0,.015c0,.013.019.026.041.042a.16.16,0,0,1,.055.054,1.355,1.355,0,0,0,.063.134l.007.014.017.033-.027.052a.448.448,0,0,1-.156.03.187.187,0,0,1-.163-.065c-.036-.053-.068-.076-.106-.076a.218.218,0,0,0-.1.038l-.015.008-.017.01a.307.307,0,0,1-.135.039.162.162,0,0,1-.147-.1.21.21,0,0,0-.2-.126.472.472,0,0,0-.109.015,2.07,2.07,0,0,0-.6.253.388.388,0,0,0-.045.037l0,.005a.172.172,0,0,1-.1.057.061.061,0,0,1-.03-.008.224.224,0,0,1-.094-.219.517.517,0,0,1,.094-.274l.01-.016a.223.223,0,0,0,.053-.154l-.023.019a.5.5,0,0,1-.271.134.2.2,0,0,1-.1-.028.237.237,0,0,0-.114-.039c-.069,0-.105.061-.14.121a.709.709,0,0,0-.061.13l0,.008c-.009.025-.02.051-.03.075a1.205,1.205,0,0,1-1.163.734c-.042,0-.087,0-.128,0a.609.609,0,0,1-.435-.2.476.476,0,0,1-.1-.373.635.635,0,0,1,.19-.336,2.429,2.429,0,0,1,.175-.172l.012-.012.011-.01a1.943,1.943,0,0,0,.269-.286Zm10.821,1.394h0l-.177.015a1.255,1.255,0,0,0-.646.165,1.4,1.4,0,0,1,.341-.054.913.913,0,0,0,.481-.126ZM33.489,19.452h0a1.915,1.915,0,0,0-.6.9,4.211,4.211,0,0,1-.219.477,2.146,2.146,0,0,0,.616-.945c.063-.152.125-.3.2-.437Zm9.871.93a.294.294,0,0,0-.211.081c.017,0,.033,0,.051.007a.164.164,0,0,1,.144.069l-.337.063,0,.042h.028a.709.709,0,0,0,.454-.114l.007-.005c.019-.014.038-.028.041-.047a.047.047,0,0,0-.014-.035A.222.222,0,0,0,43.36,20.381Zm-11.207-.07c.06,0,.1.043.132.134a.325.325,0,0,0,.271-.16c.07-.092.008-.155-.049-.211a.579.579,0,0,1-.045-.049c-.014-.019-.025-.027-.041-.027a.111.111,0,0,0-.063.036l0,.005a.2.2,0,0,1-.04.028.233.233,0,0,0-.034.023.1.1,0,0,1-.056.026c-.021,0-.043-.016-.066-.049-.057-.076-.09-.109-.129-.109s-.084.036-.155.1l-.052.045a.622.622,0,0,1-.056.049.093.093,0,0,0-.041.067.084.084,0,0,0,.034.065.512.512,0,0,1,.039.05c.029.04.059.079.1.079a.074.074,0,0,0,.033-.008l.06-.029A.407.407,0,0,1,32.153,20.311Zm10.072-.1h-.031l-.024,0-.194.022-.108.013c-.165.02-.339.041-.509.058a.181.181,0,0,0-.156.111c.276-.047.538-.072.791-.1h.016l.179-.017a.106.106,0,0,0,.075-.029.04.04,0,0,0,.008-.033A.04.04,0,0,0,42.226,20.211Zm-7.86-.281h0a.9.9,0,0,0-.319.226.057.057,0,0,0,.009.035.539.539,0,0,0,.2.2h.007a.727.727,0,0,0,.3-.218.05.05,0,0,0-.008-.038.53.53,0,0,0-.19-.206Zm-1.957-.639a1.322,1.322,0,0,0-.789.272c-.071.051-.144.1-.214.158a4.85,4.85,0,0,1-.489.331l-.671.25h.013a.607.607,0,0,0,.084.006,1.435,1.435,0,0,0,.633-.177,2.487,2.487,0,0,0,.541-.319.9.9,0,0,1,.525-.17,1.125,1.125,0,0,1,.294.042.342.342,0,0,0,.1.021.129.129,0,0,0,.064-.017,3.908,3.908,0,0,1,.387-.186,2.658,2.658,0,0,0,.563-.3.175.175,0,0,1,.03-.019c.034-.021.072-.044.064-.082s-.058-.05-.1-.054a.267.267,0,0,1-.039,0,1.1,1.1,0,0,0-.125-.018h-.008a.518.518,0,0,1-.284-.089c.03-.009.063-.02.09-.029a1.046,1.046,0,0,1,.223-.058,1.844,1.844,0,0,0,1.132-.579c.015-.014.033-.029.056-.046.05-.036.1-.075.1-.115a.062.062,0,0,0-.021-.047.038.038,0,0,0-.031-.014c-.048,0-.121.074-.164.119l-.021.02a1.761,1.761,0,0,1-.957.5,1.265,1.265,0,0,0-.458.167l-.037.02-.006,0a.465.465,0,0,0-.082.053c-.071.058-.1.1-.1.141s.052.076.145.112a.678.678,0,0,0,.07.019.38.38,0,0,1,.148.058l-.01.006a.757.757,0,0,1-.31.1.351.351,0,0,1-.187-.056.151.151,0,0,0-.067-.013h-.03Zm-1.634.448c.026,0,.046.015.064.047s.055.093.114.093a.1.1,0,0,0,.042-.01.309.309,0,0,0,.188-.156.182.182,0,0,0-.08-.211.084.084,0,0,0-.054-.023.125.125,0,0,0-.076.039.337.337,0,0,1-.044.029.129.129,0,0,0-.033.022.086.086,0,0,1-.047.024c-.014,0-.028-.011-.041-.033-.04-.068-.081-.1-.13-.1a.287.287,0,0,0-.168.1l-.014.013c-.064.059-.11.1-.028.2a.141.141,0,0,0,.1.062.188.188,0,0,0,.1-.04l.02-.012A.178.178,0,0,1,30.774,19.739Zm6.675-.369c.06,0,.11.04.153.121.025.045.052.066.084.066a.153.153,0,0,0,.086-.042c.021-.017.044-.032.065-.047l.014-.01.029-.019.011-.008c.047-.035.095-.069.1-.112a.117.117,0,0,0-.05-.088c-.013-.012-.027-.028-.042-.044-.041-.044-.081-.087-.135-.087a.191.191,0,0,0-.125.063.176.176,0,0,1-.11.059.115.115,0,0,1-.087-.049c-.008-.009-.018-.021-.025-.031-.029-.04-.062-.084-.114-.084a.157.157,0,0,0-.087.033c-.052.036-.1.069-.159.1l-.1.063a.227.227,0,0,0,.1.14.528.528,0,0,1,.056.051.12.12,0,0,0,.088.045.136.136,0,0,0,.09-.042A.251.251,0,0,1,37.449,19.37Zm1.538-.537a.239.239,0,0,0-.111.041l-.019.009-.009,0c-.038.02-.088.044-.1.081a.079.079,0,0,0,.022.063.1.1,0,0,1,.029.081c-.007.035-.046.058-.1.086a1.228,1.228,0,0,1-.272.1l-.1.03a.5.5,0,0,0,.1.014.815.815,0,0,0,.607-.309c.036-.053.07-.115.014-.17A.094.094,0,0,0,38.987,18.833Zm-8.523.319a.21.21,0,0,1,.163.085c.017.02.059.024.093.027h.029a.708.708,0,0,0,.447-.235.459.459,0,0,0,.152-.306l-.016.011-.012.007-.027.021c-.095.082-.143.123-.2.123a.485.485,0,0,1-.189-.077l-.008,0a.246.246,0,0,0-.105-.031.125.125,0,0,0-.041.006.959.959,0,0,0-.569.469l.023-.006a.125.125,0,0,0,.037-.011A.5.5,0,0,1,30.464,19.152Zm7.18-.5h-.006l-.06.034a.81.81,0,0,0-.246.177.036.036,0,0,0-.01.028c0,.026.039.053.075.08a.552.552,0,0,1,.06.049.374.374,0,0,1,.026.032c.024.031.051.062.081.062a.048.048,0,0,0,.021,0l.008,0a1.3,1.3,0,0,0,.2-.132l.017-.01.063-.046c.008-.026-.024-.075-.051-.11C37.768,18.737,37.678,18.653,37.644,18.653Zm-1.479,0a.181.181,0,0,0-.151.08l.043.011.01,0c.033.008.068.017.1.029.019.005.028.009.028.016s-.015.021-.052.046l-.012,0h-.012a.106.106,0,0,0-.1.056l.013,0h.007l.034,0a.193.193,0,0,0,.1-.028.22.22,0,0,0,.185-.139c.009-.035-.019-.042-.044-.051l-.016,0A.4.4,0,0,0,36.165,18.65Zm-1.433-.357h0a.59.59,0,0,0-.259.368c0,.035,0,.076.052.083h.021a.149.149,0,0,0,.107-.062l.006-.006,0,0c.011-.009.02-.018.018-.026s-.01-.013-.028-.019c-.038-.011-.058-.025-.063-.043s.014-.052.032-.076l.009-.013.006-.007a1.641,1.641,0,0,1,.1-.132l.03-.038-.035-.024Zm-4.068.053c-.19.029-.349.164-.356.26a.076.076,0,0,0,.065.09.178.178,0,0,0,.042,0,.1.1,0,0,0,.095-.049c.011-.018.015-.029.01-.037s-.021-.01-.039-.011a.068.068,0,0,1-.03,0c-.043-.027-.023-.058-.008-.084,0,0,0-.007.007-.01a.4.4,0,0,1,.177-.138l.007,0Zm1.258.295h.066a.25.25,0,0,0,.114-.024c.091-.051.185-.114.132-.219a.158.158,0,0,0-.157-.088.521.521,0,0,0-.127.019c-.042.014-.084.047-.08.091a.029.029,0,0,0,.033.03l.022,0,.024,0h.017c.075,0,.111.029.111.073s-.052.048-.089.052l-.02,0a.319.319,0,0,1-.083.007.133.133,0,0,0-.033,0c-.008,0-.026,0-.032.009s0,0,0,.009c.009.042.049.046.086.046Zm1.476-.563a.543.543,0,0,0-.3.237c0,.077.068.125.135.172l.043.033a.046.046,0,0,0,.023,0,.425.425,0,0,0,.257-.191.181.181,0,0,0-.025-.14.221.221,0,0,0-.12-.113Zm8.365.11a.016.016,0,0,1,.008,0l.006,0h.016a.19.19,0,0,0,.09-.038.168.168,0,0,0,.045-.038.025.025,0,0,0,.007-.018.048.048,0,0,0,.008-.024c.007-.032.011-.056.014-.08v-.056a.1.1,0,0,0-.069-.094.111.111,0,0,0-.028,0,.573.573,0,0,0-.281.136l-.055-.018-.038-.007-.012,0-.083-.024a.242.242,0,0,0,.018-.065.224.224,0,0,0,0-.067.11.11,0,0,0-.08-.1.136.136,0,0,0-.036,0,.315.315,0,0,0-.151.054.552.552,0,0,0-.09.059.161.161,0,0,0-.05.059.044.044,0,0,0-.007.041c.007.018.027.031.063.042l.163.045a.161.161,0,0,1-.126.064.189.189,0,0,1-.056-.009.192.192,0,0,1-.045-.014l-.009,0a.2.2,0,0,1-.032-.02.03.03,0,0,0-.02-.009h-.007l0,.011a.016.016,0,0,0,.006.01.291.291,0,0,0,.155.115.186.186,0,0,0,.053.007.242.242,0,0,0,.1-.024l.014-.01.008-.007.006,0a.278.278,0,0,0,.028-.022.32.32,0,0,0,.048-.049l.128.035.021.007a.273.273,0,0,0,.056.011.124.124,0,0,0,.053-.017h0a.877.877,0,0,0,.092.076l.063.045,0,.006Zm-10.8-.209a.19.19,0,0,1,.154.1l.007,0,.019.006a.063.063,0,0,0,.026,0,.28.28,0,0,0,.229-.139c.088-.112.014-.2-.062-.267a.11.11,0,0,0-.073-.035.173.173,0,0,0-.1.06l-.01.009-.012.01a.144.144,0,0,1-.084.043c-.025,0-.05-.017-.072-.053-.04-.063-.084-.1-.132-.1a.205.205,0,0,0-.142.082c-.016.017-.033.033-.05.048l-.007.006a.633.633,0,0,0-.069.067c-.054.063-.009.105.031.142l.006.005.019.019.013.014c.023.03.054.067.091.067a.076.076,0,0,0,.046-.019A.289.289,0,0,1,30.958,17.978Zm2.521-.458-.238.112,0,0c-.281.132-.572.27-.9.389a.4.4,0,0,0,.093.011A1.566,1.566,0,0,0,33.479,17.52Zm5.661-.184v0l-.033.057.246.069.832.236.254.07.413.118L41,17.6l-.148.045-.062.111-.1-.027.1-.191-.149.045-.06.114-.118-.034.1-.187-.156.042-.06.115-.156-.045-.087-.025.1-.187-.149.042-.06.115-.125-.035.1-.187-.152.042-.06.114-.128-.034.1-.191-.152.045-.06.111L39.4,17.37l-.135-.038.1-.184a.017.017,0,0,0,0-.017.035.035,0,0,0-.025-.019.263.263,0,0,0-.061-.007.3.3,0,0,0-.047,0,.658.658,0,0,0-.149.032.551.551,0,0,0-.132.042l-.043.018a.677.677,0,0,0-.064.03.039.039,0,0,0-.018.014.02.02,0,0,0,.011.021l.159.111.141-.041Zm2.13.293a.31.31,0,0,1,.122.019l.084-.066a.4.4,0,0,0-.062-.007.605.605,0,0,0-.08,0c-.06-.024-.083-.045-.08-.07a.188.188,0,0,1,.056-.009.1.1,0,0,1,.034.006h0a.033.033,0,0,1,.021.006.032.032,0,0,1,.01.011h.01a.082.082,0,0,0,.027-.005l.015-.005a.067.067,0,0,1,.02-.006l.019-.007a.114.114,0,0,0-.072-.059.127.127,0,0,0-.042,0l-.048.011a.64.64,0,0,0-.077.042.177.177,0,0,0-.055.042l-.011.011a.029.029,0,0,0,0,.025c0,.01.018.017.04.023l.015,0a.156.156,0,0,0-.029.008l-.02.005a.147.147,0,0,0-.034.014l-.009,0a.052.052,0,0,1-.02.011.133.133,0,0,1-.028.021A1.329,1.329,0,0,1,41.271,17.629Zm-2.689-.915-.152.042-.2.389.11.035.246-.465ZM36.3,16.485h0l0,.009-.021.031a.105.105,0,0,0-.012.035.027.027,0,0,0,.012.024c.007.011.023.018.059.028l.33.093.4.111.829.232.239.07.251-.465-.156.042-.156.295-.079-.021-.14-.038.1-.191-.152.045-.06.114-.121-.038.1-.187-.152.045-.063.115-.124-.038.1-.188-.152.046-.06.11-.135-.038.1-.187-.159.042-.062.115-.3-.087-.322-.09c-.011,0-.016,0-.017-.009a.009.009,0,0,1,0-.012l0-.011.007-.01a1.205,1.205,0,0,1,.188.038l.094-.087h-.031l-.031-.01a.212.212,0,0,1-.048-.016l-.021-.008-.023-.012-.009-.005c-.017-.009-.036-.019-.055-.031l-.017-.01-.043-.024-.026-.015-.014-.005a.3.3,0,0,0-.054-.019.1.1,0,0,0-.03-.006l-.008,0h-.017a.211.211,0,0,0-.056.013.288.288,0,0,0-.055.028l-.006,0-.02.02a.181.181,0,0,0-.021.018l-.013.012-.006,0a.282.282,0,0,1,.081-.013.337.337,0,0,1,.087.013.144.144,0,0,1,.045.018.125.125,0,0,1,.032.013l.016.008-.01,0h-.01a.69.69,0,0,0-.229.037.424.424,0,0,0-.1.059l-.007.007a.265.265,0,0,0-.06.072.143.143,0,0,0,.019.174.459.459,0,0,0,.194.1.656.656,0,0,0,.086.018l.031,0,.042,0,.017,0,.194-.07a1.154,1.154,0,0,1-.148-.017l-.047-.011c-.025-.005-.05-.011-.072-.017a.461.461,0,0,1-.151-.069.108.108,0,0,1-.052-.063.066.066,0,0,1,.01-.048.07.07,0,0,1,.027-.034.184.184,0,0,1,.053-.035.448.448,0,0,1,.188-.038ZM11.274,67.017h0c2.631-46.709,5.9-60.5,6.844-63.618l-4.413,2.57-.223-.381L18.31,2.776l.01.016.012-.03L22.77,5.23c-2.408,10.164-3.456,26.208-3.911,37.878-.49,12.571-.415,23.017-.414,23.114-.632,0-6.064.66-7.147.792l-.021,0Zm46.431-1.023H51.6L50.215,55.54l4.55.843,2.94,9.609ZM5.018,63.376H.01c-.134-6.582,1.087-17.551,3.627-32.6C5.589,19.193,7.7,8.926,8.306,6.056L3.7,8.84l-.229-.379,4.962-3a.088.088,0,0,1,0-.01l.007.005.016-.009.023.042,3.595,3.036C9.546,14.642,7.762,29.229,6.71,40.39,5.573,52.465,5.021,63.273,5.018,63.375Zm49.747-8.42h0l-4.684-.93-1.045-8.288,4.574,1.072,1.155,8.144ZM53.609,45.3h0c-.046,0-4.557-.383-4.573-.676-.53-8.955-.753-13.816-.776-14.341v-.018l3.755,1.212,1.6,13.822Zm-1.6-15.035h0l-3.753-1.415-.413-8.08L51.6,22.056l.413,8.206ZM41.5,21.386a.694.694,0,0,1-.07,0,.587.587,0,0,1,.448-.205.414.414,0,0,1,.066,0A.608.608,0,0,1,41.5,21.386Zm10.1-.618h0l-3.754-1.416v-8.08L51.6,13.549v7.219Z" fill="#403226" stroke="rgba(0,0,0,0)" stroke-width="1"/>
    </g>
    <g id="Group_35153" data-name="Group 35153" transform="translate(-38.976 395.499)">
      <g id="Group_28566" data-name="Group 28566" transform="translate(29.805 57.894)">
        <path id="Path_8382" data-name="Path 8382" d="M89.076,245.219l-1.8,1.007.622.449a.788.788,0,0,1,.282,1.027c-.147.3-.4.384-.568.12-.5-.775-1.135-.574-1.8-.333a2.476,2.476,0,0,1-.489.1c-.393.056-.787.1-1.181.156a.631.631,0,0,1-.152.026c-.988-.133-1.871.473-2.848.405-.126-.009-.3,0-.367-.074-.282-.305-.61-.21-.937-.156a4.845,4.845,0,0,1-2.226-.126,1.694,1.694,0,0,1-1.279-1.348c-.386.206-.77.4-1.144.616a.4.4,0,0,0-.169.226.606.606,0,0,1-.732.507,3.785,3.785,0,0,1-1.8-.514,7.832,7.832,0,0,1-.833.467.806.806,0,0,1-1.133-.432c-.231-.515-.373-1.07-.557-1.607-.045-.132-.1-.26-.167-.43-.276.143-.531.258-.762.409-.063.042-.081.2-.069.3.016.139.091.27.122.409a1.294,1.294,0,0,1-.634,1.546,3.919,3.919,0,0,1-3.179.579,1.1,1.1,0,0,1-.88-.927,3.811,3.811,0,0,1,.72-2.823.276.276,0,0,1,.087-.076.33.33,0,0,1,.1-.015c.151.412-.081.771-.169,1.146-.061.263-.168.516-.228.779-.131.578.2.977.953,1.081a3.4,3.4,0,0,0,2.262-.52c.354-.214.349-.5.243-.838a8.294,8.294,0,0,1-.33-1.154,1.734,1.734,0,0,1,.09-.789c.088-.266.3-.261.457-.027.272.4.6.414.908.035.151-.186.277-.393.479-.684.252.691.473,1.287.687,1.885a4.43,4.43,0,0,0,.308.865.938.938,0,0,0,.575.422.645.645,0,0,0,.714-.426,2.973,2.973,0,0,1,1.11-1.307c.089.105.194.18.226.278a.993.993,0,0,0,.716.649A1.933,1.933,0,0,0,75.838,246a1.026,1.026,0,0,0,.329-1.157c-.223-1.036-.463-2.068-.654-3.11a2.783,2.783,0,0,1,.07-.917c.014-.087.146-.155.223-.232.063.074.164.139.182.222.13.591.263,1.183.358,1.781.144.9.239,1.818.394,2.721a4.723,4.723,0,0,0,.36,1.1,1.361,1.361,0,0,0,1.232.69,4.653,4.653,0,0,0,2.685-.413.589.589,0,0,0,.377-.56c.012-.191.2-.371.308-.556.1.2.32.418.291.6a6.333,6.333,0,0,1-.415,1.15c.369-.088.711-.164,1.047-.258.05-.014.087-.112.11-.177s-.006-.139.022-.191c.116-.214.246-.42.371-.629a3.259,3.259,0,0,1,.278.624c.04.18.065.292.278.274s.232-.131.228-.317a2.2,2.2,0,0,1,.089-.645c.026-.091.17-.22.239-.208a.42.42,0,0,1,.272.229c.243.643.518.785,1.243.6a2.041,2.041,0,0,0,.483-.133.98.98,0,0,0,.436-.367,2.724,2.724,0,0,1,1.34-1.181c.873-.5.858-.486.56-1.462a2.11,2.11,0,0,1-.082-1.59c.043-.089.143-.15.217-.223.066.082.17.154.192.247.16.678.291,1.363.455,2.04.185.762.375,1.524.6,2.275.138.459.267.5.718.35.108-.035.212-.081.364-.14-.354-1.237-.7-2.463-1.057-3.686-.1-.35-.232-.693.015-1.031.157-.215.356-.231.426.032.089.337.342.423.6.539.428.191.492.429.122.714-.317.245-.25.5-.165.783.214.729.443,1.455.648,2.188a1.085,1.085,0,0,1-.416,1.244,1.387,1.387,0,0,1-1.465.205c-.37-.183-.4-.6-.465-.973C89.215,246.047,89.148,245.648,89.076,245.219Z" transform="translate(-64.339 -238.905)" fill="#d29e5b"/>
        <path id="Path_8383" data-name="Path 8383" d="M340.932,255.767c-.089.257-.168.518-.269.769a5.3,5.3,0,0,0-.338.778,1.287,1.287,0,0,0,.049.71.548.548,0,0,0,.984.187,4.847,4.847,0,0,0,.7-.924,4.351,4.351,0,0,1,2.326-1.9.765.765,0,0,1,.112-.034,1.331,1.331,0,0,0,1.164-1.126c.1-.556.6-.86,1.049-1.14a.524.524,0,0,1,.745.265,1.983,1.983,0,0,1-.084,1.661,5.34,5.34,0,0,0,2.174-.142c-.112-.372-.235-.717-.315-1.071a1.18,1.18,0,0,1,.02-.535.454.454,0,0,1,.49-.386,7.593,7.593,0,0,0,1.38-.15,1.19,1.19,0,0,0,.939-.725c.037-.093.135-.161.264-.309a1.329,1.329,0,0,1-.183,1.219,2.726,2.726,0,0,1-.875.726,5.016,5.016,0,0,1-1.16.246c.086.4.252.536.652.442.714-.168,1.421-.363,2.133-.54.087-.022.234-.034.265.01a.3.3,0,0,1,.013.282c-.15.2-.3.455-.509.533a32.513,32.513,0,0,1-3.36,1.139,4.738,4.738,0,0,1-2.9-.016,2.251,2.251,0,0,0-1.642.3,5.8,5.8,0,0,0-2.964,2.51,2.958,2.958,0,0,1-.458.577.62.62,0,0,1-.96.034,1.656,1.656,0,0,1-.467-.815,3.288,3.288,0,0,1,.3-2.041,4.348,4.348,0,0,1,.529-.654Zm5.377-1.019a3.656,3.656,0,0,0,.578-.273c.087-.061.179-.248.146-.317-.046-.094-.243-.208-.318-.177a2.427,2.427,0,0,0-.564.379c-.058.047-.116.181-.09.222C346.107,254.657,346.217,254.692,346.309,254.748Z" transform="translate(-261.629 -246.868)" fill="#d29e5b"/>
        <path id="Path_8384" data-name="Path 8384" d="M316.27,253.423c.813,1.051.718,2.333,1.057,3.506a.992.992,0,0,0,.2.053c.683.059.814-.125.554-.751-.217-.522-.433-1.044-.623-1.576a1.509,1.509,0,0,1,.083-1.242c.125-.239.257-.228.395-.013.028.043.07.091.069.136a7.234,7.234,0,0,0,.845,2.59c.308.812.258,1.123-.229,1.493a1.465,1.465,0,0,1-1.848.056,7.07,7.07,0,0,1-.951.5c-.656.234-1.168-.164-1.246-.921-.016-.158-.041-.316-.069-.536a2.367,2.367,0,0,0-.236.188,1.768,1.768,0,0,1-1.9.449c-.352-.13-.648-.339-.668-.726a.934.934,0,0,1,.555-.91c.417-.2.871-.309,1.3-.476.471-.182.51-.3.462-.786a2.615,2.615,0,0,1,.078-.749c.015-.073.145-.181.207-.171a.386.386,0,0,1,.255.186,1.613,1.613,0,0,1,.083.416c.159.9.31,1.8.481,2.7.06.315.22.559.605.5.545-.079.941-.4.871-.8a13.252,13.252,0,0,0-.4-1.482A1.582,1.582,0,0,1,316.27,253.423Zm-2.026,2.215-1.653.8a1.594,1.594,0,0,0,1.289,0C314.367,256.268,314.4,256.133,314.245,255.638Z" transform="translate(-241.457 -247.967)" fill="#d29e5b"/>
        <path id="Path_8385" data-name="Path 8385" d="M183.981,253.957c-.386.27-.711.6-1.208.5a7.827,7.827,0,0,1-1.057-.2.858.858,0,0,1-.466-.477.64.64,0,0,1,.315-.8,8.858,8.858,0,0,1,1.183-.465c.693-.224.815-.412.7-1.144a.766.766,0,0,1,.008-.379c.041-.106.161-.182.246-.271.082.089.213.164.239.267.173.674.312,1.357.488,2.029a6.656,6.656,0,0,0,.379,1.085,1.145,1.145,0,0,0,1.083.566,11.847,11.847,0,0,0,4.136-.519,2.533,2.533,0,0,0,.316-.154c-.206-.262-.388-.5-.581-.736a.686.686,0,0,1-.124-.882c.125-.208.225-.2.4-.092a2.009,2.009,0,0,1,.917,2.177c-.069.223-.407.424-.665.516a11.581,11.581,0,0,1-4.582.637C184.8,255.563,184.345,255.1,183.981,253.957Zm-1.356-.463c.937.09,1.248-.129,1.056-.667Z" transform="translate(-148.027 -246.165)" fill="#d29e5b"/>
        <path id="Path_8386" data-name="Path 8386" d="M238.4,252.329c-.062-.373.122-.365.387-.337a5.278,5.278,0,0,0,3.639-.762,6.517,6.517,0,0,0,.821-.788l-.054-.114c-.315,0-.63,0-.946,0-.543-.008-.749-.234-.7-.779a2.252,2.252,0,0,1,.836-1.52.446.446,0,0,1,.7.029,5.586,5.586,0,0,1,.671.936c.241.428.516.084.773.075s.272-.206.234-.394a18.8,18.8,0,0,0-.824-3.493,4.234,4.234,0,0,1-.1-1.435c0-.071.11-.145.169-.218a1.349,1.349,0,0,1,.213.185.487.487,0,0,1,.11.245.705.705,0,0,0,.672.709c.4.074.228.445.125.543-.554.529-.152,1.058-.054,1.584.118.635.294,1.261.374,1.9.1.82-.15,1.14-.953,1.319a.826.826,0,0,0-.6.524,3.651,3.651,0,0,1-2.937,2.135,3.939,3.939,0,0,1-2.116-.3A1.672,1.672,0,0,0,238.4,252.329Zm4.628-2.993.069-.106c-.131-.1-.265-.279-.393-.275-.152.005-.3.168-.448.263l.044.118Z" transform="translate(-188.965 -241.016)" fill="#d29e5b"/>
        <path id="Path_8387" data-name="Path 8387" d="M289.644,249.644c.082.056.166.081.182.129a.835.835,0,0,0,.857.666c.049,0,.136.163.14.253a.377.377,0,0,1-.115.28c-.546.419-.178.885-.094,1.344.123.672.244,1.346.316,2.024a1.088,1.088,0,0,1-1.04,1.135c-.7.1-.945-.081-1.137-.762-.063-.223-.126-.445-.212-.747-.227.647-.777.643-1.283.725a1.226,1.226,0,0,1-.194.009c-.5,0-.9-.215-.958-.5a1.2,1.2,0,0,1,.668-1.206c.324-.123.663-.21.991-.324.292-.1.518-.258.41-.627-.007-.024-.021-.056-.012-.075.1-.21.194-.419.292-.628a1.933,1.933,0,0,1,.35.545c.14.616.216,1.247.34,1.868a2.348,2.348,0,0,0,.244.643c.179.329.46.25.747.156s.162-.319.147-.487a11.9,11.9,0,0,0-.839-3.083A1.216,1.216,0,0,1,289.644,249.644Zm-2.335,4.076c.717.109,1.163-.149,1.044-.558Z" transform="translate(-223.126 -245.396)" fill="#d29e5b"/>
        <path id="Path_8388" data-name="Path 8388" d="M222.9,251.115a2.617,2.617,0,0,1-1.816.6c-.357-.032-.481-.262-.554-.552a.809.809,0,0,1,.21-.854c.035-.032.273.062.275.106.027.427.332.383.594.346a1.909,1.909,0,0,0,.689-.223.485.485,0,0,0,.166-.406c-.049-.329-.186-.645-.237-.974a2.836,2.836,0,0,1,.011-.8c.012-.088.159-.158.244-.236.066.1.18.2.192.3a6,6,0,0,0,1.061,2.7.652.652,0,0,0,.427.254c.456.039.6-.126.487-.568-.336-1.283-.7-2.557-1.041-3.84a7.311,7.311,0,0,1-.214-1.211c-.014-.161.112-.335.174-.5l.147-.015a6.8,6.8,0,0,0,.367.6,1.05,1.05,0,0,0,.405.382c.381.133.559.461.271.728-.389.36-.234.716-.133,1.092.2.76.462,1.508.607,2.278a3.078,3.078,0,0,1-.072,1.289,1.058,1.058,0,0,1-1.092.767.908.908,0,0,1-.92-.687C223.077,251.514,223,251.34,222.9,251.115Z" transform="translate(-176.152 -242.246)" fill="#d29e5b"/>
        <path id="Path_8389" data-name="Path 8389" d="M263.348,260.181c-.393.029-.724.037-1.051.081-.415.055-.575-.192-.613-.526a2.062,2.062,0,0,1,.532-1.643.611.611,0,0,1,1.048.073,2.567,2.567,0,0,1-.6,3.923,3.349,3.349,0,0,1-3.293.226.653.653,0,0,1-.31-.223,1.6,1.6,0,0,1-.154-.392,1.057,1.057,0,0,1,.392.037c.958.511,3.252-.037,3.8-1.067C263.183,260.514,263.26,260.355,263.348,260.181Zm-1.121-.971c.331.208.557.259.714.022.036-.054-.131-.242-.2-.368Z" transform="translate(-203.661 -251.257)" fill="#d29e5b"/>
        <path id="Path_8390" data-name="Path 8390" d="M158.144,261.475c1.637.137,3.068-.152,3.922-1.9a7.214,7.214,0,0,1-.875.176c-.647.043-1.061-.143-.893-.858a3.674,3.674,0,0,1,.518-1.132c.186-.285.487-.269.791-.087a2.016,2.016,0,0,1,.8,2.405,3.316,3.316,0,0,1-2.209,2.054,2.5,2.5,0,0,1-1.808-.219c-.134-.069-.221-.228-.331-.346Z" transform="translate(-131.444 -251.053)" fill="#d29e5b"/>
        <path id="Path_8391" data-name="Path 8391" d="M129.807,243.143c-.049-.056-.068-.093-.1-.111-.472-.278-.545-.381-.245-.847a4.865,4.865,0,0,1,.987-1.053c.29-.243.535-.108.583.274a1.746,1.746,0,0,1,0,.618,2.42,2.42,0,0,0-.078,1.127c.052.242-.109.456-.447.411a.448.448,0,0,0-.319.15,4.673,4.673,0,0,1-2.4,1.343,1.9,1.9,0,0,1-.655.02.356.356,0,0,1-.226-.219c-.016-.048.1-.182.175-.214a9.825,9.825,0,0,1,.95-.327A3.692,3.692,0,0,0,129.807,243.143Z" transform="translate(-109.14 -239.212)" fill="#d29e5b"/>
        <path id="Path_8392" data-name="Path 8392" d="M281.782,239.851c-.6.394-1.2.811-1.826,1.191a1.39,1.39,0,0,1-.632.153c-.113.006-.233-.108-.35-.167.085-.11.148-.259.259-.324.586-.342,1.2-.636,1.774-1,.45-.286.434-.366.024-.671a.578.578,0,0,1-.124-.8,2.122,2.122,0,0,1,1.122-.974c.219-.091.388.016.4.226.013.343-.045.689-.06,1.034-.008.186-.063.428.029.549.264.343.087.6-.127.812C282.183,239.963,281.923,239.864,281.782,239.851Z" transform="translate(-218.028 -236.505)" fill="#d29e5b"/>
        <path id="Path_8393" data-name="Path 8393" d="M241.179,251.046c-.082-.656-.115-1.207-.226-1.741-.208-1.007-.467-2-.693-3.006-.1-.425-.171-.855-.233-1.285a.705.705,0,0,1,.08-.372,1.069,1.069,0,0,1,.215-.239c.078.093.2.174.227.28.362,1.368.744,2.733,1.049,4.115a2.669,2.669,0,0,1-.1,1.823A3.488,3.488,0,0,1,241.179,251.046Z" transform="translate(-190.138 -241.642)" fill="#d29e5b"/>
        <path id="Path_8394" data-name="Path 8394" d="M341.012,244.632c.173.539.369,1.014.474,1.507.188.884.345,1.776.465,2.671a2.035,2.035,0,0,1-.141.888c-.072.211-.257.2-.368-.01a1.579,1.579,0,0,1-.147-.394c-.193-.891-.376-1.785-.565-2.677a9.364,9.364,0,0,1-.2-.944A1.047,1.047,0,0,1,341.012,244.632Z" transform="translate(-262.101 -241.807)" fill="#d29e5b"/>
        <path id="Path_8395" data-name="Path 8395" d="M201.369,244.766c.146-.563.735-.648,1.155-1.084-.33.047-.553.066-.77.114-.268.06-.35-.046-.344-.3a.62.62,0,0,1,.591-.71c.291-.058.578-.143.871-.174.2-.021.476-.046.595.064a.715.715,0,0,1,.138.828,2.27,2.27,0,0,1-1.233,1.22A1.037,1.037,0,0,1,201.369,244.766Z" transform="translate(-162.459 -240.346)" fill="#d29e5b"/>
        <path id="Path_8396" data-name="Path 8396" d="M79.4,238.384a1.117,1.117,0,0,1-.343.051,1.078,1.078,0,0,1-.57-.177c-.14-.145.1-.7.321-.741a10.19,10.19,0,0,1,1.644-.211c.306-.006.339.346.283.572a1.762,1.762,0,0,1-.365.7,2.746,2.746,0,0,1-1.528.929,1.585,1.585,0,0,1-.505-.063,1.836,1.836,0,0,1,.285-.5,2.917,2.917,0,0,1,.574-.314,2.4,2.4,0,0,0,.234-.165Z" transform="translate(-74.364 -236.561)" fill="#d29e5b"/>
        <path id="Path_8397" data-name="Path 8397" d="M119.924,245.853c.252-.661,1.114-.7,1.464-1.318a7.885,7.885,0,0,1-.874.054,1.611,1.611,0,0,1-.452-.162c.119-.2.2-.533.364-.577a12.254,12.254,0,0,1,1.636-.264c.29-.039.361.111.3.377a2.028,2.028,0,0,1-.988,1.372c-.438.25-.915.43-1.374.641Z" transform="translate(-104.141 -241.053)" fill="#d29e5b"/>
        <path id="Path_8398" data-name="Path 8398" d="M102.72,272.414a3.04,3.04,0,0,1-2.448,2.084,8.8,8.8,0,0,1-1.226.158c-.1.009-.307-.085-.307-.13a.471.471,0,0,1,.143-.363,5.555,5.555,0,0,1,.752-.286c.684-.254,1.381-.48,2.043-.78.264-.12.447-.413.676-.618a2.161,2.161,0,0,1,.29-.19Z" transform="translate(-88.972 -261.61)" fill="#d29e5b"/>
        <path id="Path_8399" data-name="Path 8399" d="M219.2,239.7a1.308,1.308,0,0,1-.561,1.134c-.692.412-1.427.751-2.147,1.116a.248.248,0,0,1-.19.008c-.15-.069-.29-.158-.433-.239.113-.119.2-.279.342-.349.558-.284,1.162-.491,1.687-.823a6.449,6.449,0,0,0,.948-.935,1.039,1.039,0,0,1,.247-.137Z" transform="translate(-172.84 -238.113)" fill="#d29e5b"/>
        <path id="Path_8400" data-name="Path 8400" d="M354.614,238.718c.423-.192.839-.4,1.271-.572a3.625,3.625,0,0,0,1.848-1.458,2.1,2.1,0,0,1,.2-.222,1.366,1.366,0,0,1-.42,1.452,3.644,3.644,0,0,1-2.381,1.072,1.557,1.557,0,0,1-.488-.111Z" transform="translate(-272.19 -235.96)" fill="#d29e5b"/>
        <path id="Path_8401" data-name="Path 8401" d="M300.087,235.7a1.476,1.476,0,0,1-.676,1.659,15.5,15.5,0,0,1-1.99.906c-.118.049-.3-.058-.452-.094l-.047-.144a2.622,2.622,0,0,1,.7-.455,3.6,3.6,0,0,0,2.327-1.773C299.969,235.766,300.025,235.748,300.087,235.7Z" transform="translate(-230.88 -235.414)" fill="#d29e5b"/>
        <path id="Path_8402" data-name="Path 8402" d="M82.868,271.708a.868.868,0,0,1,1.424-.135.513.513,0,0,1-.005.452.664.664,0,0,1-.388.285.631.631,0,0,1-.4-.12c-.2-.119-.285-.038-.391.138-.072.12-.275.29-.342.261a2.466,2.466,0,0,1-.781-.5c-.064-.065.088-.372.184-.545.03-.053.206-.061.3-.035A2.2,2.2,0,0,1,82.868,271.708Z" transform="translate(-76.965 -260.874)" fill="#d29e5b"/>
        <path id="Path_8403" data-name="Path 8403" d="M202.733,270.388c.308-.626.308-.626.726-.446.386.166.512.4.386.706-.137.335-.211.35-.754.158-.351.488-.351.488-1.146.271-.413-.113-.529-.4-.25-.725a.64.64,0,0,1,.465-.124A2.723,2.723,0,0,1,202.733,270.388Z" transform="translate(-162.583 -259.856)" fill="#d29e5b"/>
        <path id="Path_8404" data-name="Path 8404" d="M325.984,245.653c-.376.085-.667.242-.865.164-.139-.055-.218-.437-.2-.663s.125-.516.509-.471c.008.114.015.22.022.325l.11.044a1.69,1.69,0,0,1,.224-.417,1.284,1.284,0,0,1,.406-.178l.252-.3c.1.148.3.3.293.444a2,2,0,0,1-.221.83C326.384,245.684,326.143,245.813,325.984,245.653Z" transform="translate(-250.925 -241.471)" fill="#d29e5b"/>
        <path id="Path_8405" data-name="Path 8405" d="M324.6,234.682c.028,1.381-1.575,2.633-3.005,2.74a2.1,2.1,0,0,1,.292-.331q.759-.532,1.532-1.043a2.3,2.3,0,0,0,.941-1.091C324.4,234.851,324.518,234.773,324.6,234.682Z" transform="translate(-248.547 -234.682)" fill="#d29e5b"/>
        <path id="Path_8406" data-name="Path 8406" d="M170.418,241.453a.84.84,0,0,1,.063,1.045,2.35,2.35,0,0,1-1.925,1.309c-.134.021-.288-.086-.433-.135a1.815,1.815,0,0,1,.313-.3c.365-.216.754-.392,1.112-.617a1.094,1.094,0,0,0,.629-.871C170.184,241.75,170.317,241.625,170.418,241.453Z" transform="translate(-138.654 -239.53)" fill="#d29e5b"/>
        <path id="Path_8407" data-name="Path 8407" d="M360.069,248.22c-.012.456-.224.605-.635.452a1.147,1.147,0,0,1-.256-.076c-.145-.1-.4-.242-.384-.339a.8.8,0,0,1,.32-.515A.668.668,0,0,1,360.069,248.22Z" transform="translate(-275.183 -243.979)" fill="#d29e5b"/>
        <path id="Path_8408" data-name="Path 8408" d="M373.9,245.194a4.108,4.108,0,0,1,.628.613c.065.094-.022.357-.12.477-.067.082-.275.077-.416.064a1.553,1.553,0,0,1-.358-.136c-.22-.08-.39-.166-.334-.471S373.529,245.3,373.9,245.194Z" transform="translate(-285.56 -242.209)" fill="#d29e5b"/>
        <path id="Path_8409" data-name="Path 8409" d="M69.722,246.649c-.015.159-.053.4-.435.362-.532-.052-.856-.224-.789-.483s.042-.6.488-.541S69.744,246.243,69.722,246.649Z" transform="translate(-67.311 -242.773)" fill="#d29e5b"/>
      </g>
      <g id="Group_28683" data-name="Group 28683" transform="translate(0)">
        <g transform="matrix(1, 0, 0, 1, -38.02, -45.5)" filter="url(#Path_16191)">
          <path id="Path_16191-2" data-name="Path 16191" d="M-53.333,350.115c-.03,1.216.751,1.366,1.488,1.435a6.277,6.277,0,0,0,2.1-.06c1.591-.408,1.849-1.228.8-2.443-.748-.865-1.312-2.039-2.759-1.941,1.563-3.578,4.044-4.424,7.674-3.357a1.871,1.871,0,0,1,.868,3,39.945,39.945,0,0,1-2.595,3.24c.571.933,1.193,1.144,2.317.577a6.238,6.238,0,0,0,3.476-5.141,43.462,43.462,0,0,1,.706-5.844,51.8,51.8,0,0,1,2.393-6.111.929.929,0,0,1,.321-.336,1.738,1.738,0,0,1,.4-.146,5.315,5.315,0,0,1-.005.793c-.436,2.678-.854,5.36-1.336,8.031a21.619,21.619,0,0,1-3.812,9.052,8.616,8.616,0,0,1-1.282,1.379,2.648,2.648,0,0,1-3.828.1c-.372-.287-.712-.616-1.19-1.033a14.9,14.9,0,0,0-1.206,1.009,4.6,4.6,0,0,1-4.822,1.406,2.193,2.193,0,0,0-2.316.665c-1.781,1.706-2.648,1.673-4.556.038-1.68-1.439-1.7-1.471-3.652-.352-.893.511-1.7,1.179-2.8,1.962,1.269.548,2.19.957,3.12,1.345,1.469.613,1.527.731.919,2.149-.186.434-.421.848-.584,1.289-1.322,3.572-4.188,4.322-8.2,3.608-1.811-.322-3.4-2.7-3.375-4.787.017-1.445.188-2.889.284-4.242-1.05.3-2.166.58-3.247.96-.224.079-.429.522-.454.814a27.238,27.238,0,0,1-2.828,9.691c-2.632,5.346-6.61,9.175-12.751,10.143a7.933,7.933,0,0,1-9.132-9.244c.813-5.181,3.3-9.632,5.974-14.008a1.658,1.658,0,0,1,.4-.424c.079-.062.215-.05.511-.108a5.222,5.222,0,0,1-.23.887c-1.06,2.238-2.139,4.466-3.205,6.7a8.987,8.987,0,0,0-.97,5.251,6.4,6.4,0,0,0,6.462,5.8c4.678.174,11.123-3.1,13.1-8.282a21.043,21.043,0,0,0,1.434-6.52,20.262,20.262,0,0,1,.761-3.9c.125-.493.455-.843,1.159-.553,1.723.709,3.114.206,4.242-1.416a7.739,7.739,0,0,1,1.1-1.373c-.371,3.267-1.708,6.676,1.906,9.2.338-.441.65-.828.939-1.23a22.371,22.371,0,0,1,6.486-6.106c2.009-1.235,2.851-1.112,4.585.506,1.111,1.037,1.785,1.074,2.972.054C-54.793,351.586-54.078,350.833-53.333,350.115Z" transform="translate(141.33 -283.14)" fill="#fff"/>
        </g>
        <g transform="matrix(1, 0, 0, 1, -38.02, -45.5)" filter="url(#Path_16192)">
          <path id="Path_16192-2" data-name="Path 16192" d="M291.268,349.063c-.746,4.07-1.22,6.227-5.378,7.018.339,3.933-1.046,7.529-2.406,11.133-1.492,3.957-3.711,7.3-7.752,9.049-2.923,1.265-5.945,1.846-9.051.715-3.675-1.338-5.311-3.622-4.757-8.015a40.388,40.388,0,0,1,2.252-7.763c.309-.905.582-1.609-.075-2.468a9.5,9.5,0,0,1-.869-1.9,13.163,13.163,0,0,1-1.682,2.082,22.5,22.5,0,0,1-4.169,2.988c-1.81.895-3.373.131-4.023-1.8a10.138,10.138,0,0,1-.621-3.686,110.5,110.5,0,0,1,3-21.336,10.183,10.183,0,0,1,.492-1.242l.362.038a6.518,6.518,0,0,1,.058,1.089c-.587,5.315-1.2,10.626-1.779,15.943a7.3,7.3,0,0,0,.937,4.548,3.427,3.427,0,0,0,5.638.859c.863-.8,1.667-1.667,2.524-2.476a1.144,1.144,0,0,1,1.825,0c1.183,1.11,2.088.931,2.892-.442a20.142,20.142,0,0,1,5.128-6.1,7.923,7.923,0,0,1,2.466-1.317c1.662-.484,2.764.618,2.481,2.321-.93,5.612-6.429,10.9-12.034,11.608a1.342,1.342,0,0,0-.971.606,32.723,32.723,0,0,0-1.525,5.179,4.864,4.864,0,0,0,3.473,5.825c4.17,1.536,8.04.675,11.631-1.772,3.531-2.405,4.835-5.946,5.048-10.026.092-1.765.124-3.534.253-5.3a2.541,2.541,0,0,1,.528-1.4,1.3,1.3,0,0,1,1.144-.3,3.09,3.09,0,0,0,4.247-1.976C290.77,350.175,291.03,349.624,291.268,349.063Zm-15.439.9c-1.969-.336-5.3,2.32-5.772,4.521C272.733,353.938,274.318,352.148,275.83,349.963Z" transform="translate(-130.72 -283.79)" fill="#fff"/>
        </g>
        <g transform="matrix(1, 0, 0, 1, -38.02, -45.5)" filter="url(#Path_16193)">
          <path id="Path_16193-2" data-name="Path 16193" d="M179.347,352.312c-2.762-1.135-5.288.244-7.94-.144a6.66,6.66,0,0,1,3.034-3.324,2.961,2.961,0,0,0,1.8-2.991c.011-1.767.182-3.534.313-5.3a15.246,15.246,0,0,1,3.1-7.665,7.8,7.8,0,0,1,.909-.852c-.124.617-.179.893-.235,1.169a56.261,56.261,0,0,0-1.28,6.556,21.432,21.432,0,0,1-2.327,8.575,4.465,4.465,0,0,0-.21.621c1.066,0,2.03-.017,2.994.007a8.147,8.147,0,0,1,1.521.153c1.386.3,1.613.856.94,2.084a7.194,7.194,0,0,1-3.566,2.962,17.978,17.978,0,0,0-6.522,4.75,18.866,18.866,0,0,0-2.173,3.2c-2.163,4.109-.067,10.154,5.839,10.466a16.752,16.752,0,0,0,12.911-4.966,44.773,44.773,0,0,0,2.978-3.479,9.86,9.86,0,0,1,.742-.675c-.024.463.03.694-.054.852-1.927,3.637-4.109,7.08-7.493,9.574a16.878,16.878,0,0,1-13.4,3.087c-4.093-.709-6.417-4.5-5.385-8.987a21.252,21.252,0,0,1,10.675-14.16C177.369,353.351,178.23,352.912,179.347,352.312Z" transform="translate(-64.15 -282.41)" fill="#fff"/>
        </g>
        <g transform="matrix(1, 0, 0, 1, -38.02, -45.5)" filter="url(#Path_16194)">
          <path id="Path_16194-2" data-name="Path 16194" d="M425.326,365.168c.648.033,1.3.048,1.944.1a6.894,6.894,0,0,1,2.078.282c.624.267,1.619.953,1.557,1.288a3.88,3.88,0,0,1-1.324,2.282,9.64,9.64,0,0,1-2.95,1.115,14.029,14.029,0,0,0-6.409,3.573c-.861.9-.836,1.279.25,1.888.644.362,1.424.49,2.051.875a1.886,1.886,0,0,1,.914,1.175,6.923,6.923,0,0,1-4.677,6.187,5.237,5.237,0,0,1-5.966-2.705c-.2-.375-.391-.758-.7-1.359-1.835,2.294-4.364,3.081-6.842,3.966l-.3-.274c.341-.445.591-1.045,1.039-1.311a18.477,18.477,0,0,0,8.218-10.13,10.9,10.9,0,0,1,1.144-1.917l.426.213c-.274.7-.557,1.407-.82,2.116a4.777,4.777,0,0,0,.358,4.827,3.819,3.819,0,0,0,.781,1.057c1.529-2.8,2.871-5.344,5.371-6.85,2.4-1.447,4.96-2.643,7.559-4.007a6.04,6.04,0,0,0-1.379-.293c-1.687.032-3.373.147-5.06.2a13.725,13.725,0,0,1-1.594-.161c2.535-3.379,5.789-5.028,9.642-6.087-.324-.3-.516-.508-.736-.679-1.276-.994-1.52-2.224-.457-3.445a25.17,25.17,0,0,1,2.886-2.586,1.064,1.064,0,0,1,.759-.186,4,4,0,0,1,2.618,6.158,6.142,6.142,0,0,1-4.857,2.693,24.856,24.856,0,0,0-4.432,1.025,4.866,4.866,0,0,0-1.16.706Z" transform="translate(-247.04 -299.44)" fill="#fff"/>
        </g>
        <g transform="matrix(1, 0, 0, 1, -38.02, -45.5)" filter="url(#Path_16195)">
          <path id="Path_16195-2" data-name="Path 16195" d="M-1.159,487.873l-3.347-1.691c-.438.694-.886,1.366-1.295,2.062a.912.912,0,0,1-1.449.391c-1.118-.63-2.283-1.175-3.647-1.867,1.048-1.436,1.985-2.776,3-4.052.138-.173.725-.144,1.014-.011.889.409,1.734.914,2.7,1.438.535-.709,1.071-1.371,1.551-2.072a.851.851,0,0,1,1.295-.3c.652.363,1.335.669,2,1.011.87.45,1.1,1.04.463,1.892C.374,485.675-.332,486.712-1.159,487.873Z" transform="translate(70.72 -396.69)" fill="#fff"/>
        </g>
        <g transform="matrix(1, 0, 0, 1, -38.02, -45.5)" filter="url(#Path_16196)">
          <path id="Path_16196-2" data-name="Path 16196" d="M73.321,348.917c.691-.853,1.37-1.655,2.006-2.49.378-.5.73-.622,1.279-.234.737.52,1.568.915,2.265,1.481.286.232.574.918.439,1.141-.819,1.353-1.761,2.632-2.644,3.909-1.034-.76-1.828-1.319-2.595-1.915-.662-.514-1.138-.283-1.568.306-.394.54-.806,1.067-1.187,1.615a1,1,0,0,1-1.509.345q-1.113-.662-2.265-1.259c-.644-.336-.731-.778-.307-1.332.74-.967,1.5-1.922,2.245-2.883a1.029,1.029,0,0,1,1.555-.18Z" transform="translate(11.22 -293.06)" fill="#fff"/>
        </g>
        <g transform="matrix(1, 0, 0, 1, -38.02, -45.5)" filter="url(#Path_16197)">
          <path id="Path_16197-2" data-name="Path 16197" d="M59.043,471.3c.9.5,1.683.872,2.395,1.348a.943.943,0,0,0,1.483-.264c.551-.687,1.351-1.95,1.746-1.845a19.907,19.907,0,0,1,3.91,1.967l-3.041,4.387c-.885-.515-1.669-.934-2.414-1.415a.971.971,0,0,0-1.562.278c-.51.737-1.121,1.405-1.747,2.177-1.08-.593-2.128-1.175-3.183-1.745-.553-.3-.564-.687-.231-1.156C57.257,473.818,58.114,472.607,59.043,471.3Z" transform="translate(19.47 -388.24)" fill="#fff"/>
        </g>
        <g transform="matrix(1, 0, 0, 1, -38.02, -45.5)" filter="url(#Path_16198)">
          <path id="Path_16198-2" data-name="Path 16198" d="M126.632,444.109a7.574,7.574,0,0,1-.055-1.078c.418-4.771.857-9.54,1.274-14.31a12.315,12.315,0,0,1,2.568-5.923c-.973,7.157-.071,14.6-3.452,21.326Z" transform="translate(-34.32 -351.77)" fill="#fff"/>
        </g>
        <g transform="matrix(1, 0, 0, 1, -38.02, -45.5)" filter="url(#Path_16199)">
          <path id="Path_16199-2" data-name="Path 16199" d="M77.02,327.092l3.194-4.274c1.2.716,2.367,1.353,3.452,2.1a1.149,1.149,0,0,1,.165,1.107c-.611,1-1.359,1.918-2.032,2.883a.8.8,0,0,1-1.269.252C79.443,328.477,78.317,327.852,77.02,327.092Z" transform="translate(3.54 -275.37)" fill="#fff"/>
        </g>
        <g transform="matrix(1, 0, 0, 1, -38.02, -45.5)" filter="url(#Path_16200)">
          <path id="Path_16200-2" data-name="Path 16200" d="M-60.748,440.675c1.194.7,2.214,1.286,3.223,1.891a6.091,6.091,0,0,1,.66.56c-.744,1.283-1.452,2.585-2.26,3.823a1.147,1.147,0,0,1-1.056.234c-3.6-1.418-3.609-1.478-1.651-4.738C-61.494,441.881-61.146,441.324-60.748,440.675Z" transform="translate(110.64 -365.43)" fill="#fff"/>
        </g>
        <g transform="matrix(1, 0, 0, 1, -38.02, -45.5)" filter="url(#Path_16201)">
          <path id="Path_16201-2" data-name="Path 16201" d="M331.137,457.051c-.569-.394-1.111-.777-1.662-1.146-.228-.152-.475-.276-.715-.41-1.332-.74-1.375-.957-.428-2.208.189-.251.381-.5.591-.734.622-.691,1.4-2.032,1.85-1.929a9.76,9.76,0,0,1,3.065,1.845.843.843,0,0,1,.193.8c-.747,1.194-1.553,2.352-2.363,3.505C331.573,456.91,331.34,456.949,331.137,457.051Z" transform="translate(-187.99 -373.02)" fill="#fff"/>
        </g>
        <g transform="matrix(1, 0, 0, 1, -38.02, -45.5)" filter="url(#Path_16202)">
          <path id="Path_16202-2" data-name="Path 16202" d="M395.883,489.611l2.895,1.9a.855.855,0,0,1,.238,1.452c-.878,1.1-1.706,2.234-2.635,3.46-1.168-.8-2.247-1.489-3.258-2.268a.992.992,0,0,1-.068-.962C393.931,492,394.884,490.86,395.883,489.611Z" transform="translate(-237.88 -402.82)" fill="#fff"/>
        </g>
        <g transform="matrix(1, 0, 0, 1, -38.02, -45.5)" filter="url(#Path_16203)">
          <path id="Path_16203-2" data-name="Path 16203" d="M136.541,323.175a12.986,12.986,0,0,0,5.021-4.225,1.383,1.383,0,0,0-.175-.359c-1.558-1.512-1.222-3.171.89-4,.327-.129,1.141.137,1.221.384a3.579,3.579,0,0,1,.163,2.125,10.6,10.6,0,0,1-5.57,6.1,5.468,5.468,0,0,1-1.411.269Z" transform="translate(-41.94 -269.05)" fill="#fff"/>
        </g>
        <g transform="matrix(1, 0, 0, 1, -38.02, -45.5)" filter="url(#Path_16204)">
          <path id="Path_16204-2" data-name="Path 16204" d="M502.994,467.385l-3.363-.147c.2-1.1.752-1.759,1.91-1.6.865.12,1.712.362,2.567.55a15.139,15.139,0,0,1-.989,2.264,17.352,17.352,0,0,1-1.7,1.981c.643,1.207,1.682.9,2.6.764.961-.137,1.9-.41,3.016-.66-.153.308-.2.552-.34.661a7.1,7.1,0,0,1-5.4,1.484c-1.117-.158-1.332-.765-.718-1.756C501.268,469.807,502.058,468.745,502.994,467.385Z" transform="translate(-319.38 -384.48)" fill="#fff"/>
        </g>
        <g transform="matrix(1, 0, 0, 1, -38.02, -45.5)" filter="url(#Path_16205)">
          <path id="Path_16205-2" data-name="Path 16205" d="M311.581,343.093a10.861,10.861,0,0,1-2.03,1.674c-3.215,1.452-6.475,2.8-9.721,4.188-.24.1-.5.169-.744.252l-.283-.279c.431-.465.775-1.127,1.308-1.363,3.586-1.587,7.211-3.084,10.827-4.6C310.992,342.938,311.078,342.987,311.581,343.093Z" transform="translate(-165.93 -290.76)" fill="#fff"/>
        </g>
        <g transform="matrix(1, 0, 0, 1, -38.02, -45.5)" filter="url(#Path_16206)">
          <path id="Path_16206-2" data-name="Path 16206" d="M391.958,340.946l4.121-2.058-.109-.372H393.2c.762-2.106,1.667-2.054,4.784-1.289C397.421,339.442,393.55,341.959,391.958,340.946Z" transform="translate(-237.11 -286.01)" fill="#fff"/>
        </g>
        <g transform="matrix(1, 0, 0, 1, -38.02, -45.5)" filter="url(#Path_16207)">
          <path id="Path_16207-2" data-name="Path 16207" d="M463.7,337.207a2.3,2.3,0,0,1-1.578,2.3c-1.5.687-3.04,1.279-4.53,1.981-1.018.479-1.979,1.078-3.056,1.674a1.587,1.587,0,0,1,1.051-1.806C458.182,340,460.8,338.681,463.7,337.207Z" transform="translate(-284.9 -286.36)" fill="#fff"/>
        </g>
        <g transform="matrix(1, 0, 0, 1, -38.02, -45.5)" filter="url(#Path_16208)">
          <path id="Path_16208-2" data-name="Path 16208" d="M454.763,375.363l-.137,1.006c1.274.329,1.692-.584,2.075-1.2.487.232,1.045.693,1.272.565.423-.238.653-.819,1.094-1.441a2.265,2.265,0,0,1-.7,2.281,4.276,4.276,0,0,1-1.63.884,4.931,4.931,0,0,1-1.125.271c-.526.088-1.059.144-1.588.214a6.805,6.805,0,0,1-.144-1.61,3.425,3.425,0,0,1,.621-1.091Z" transform="translate(-284.41 -314.7)" fill="#fff"/>
        </g>
        <g transform="matrix(1, 0, 0, 1, -38.02, -45.5)" filter="url(#Path_16209)">
          <path id="Path_16209-2" data-name="Path 16209" d="M8.76,346.044a2.875,2.875,0,0,1,3.747-1.766c.8.25.565.867.31,1.337a4.823,4.823,0,0,1-4.359,2.512l3.174-1.873-.1-.4Z" transform="translate(55.93 -291.63)" fill="#fff"/>
        </g>
      </g>
    </g>
  </g>
</svg>
