<svg xmlns="http://www.w3.org/2000/svg" width="31.678" height="32" viewBox="0 0 31.678 32">
  <g id="zeara" transform="translate(-2.473)">
    <path id="XMLID_151_" d="M24.378,29.89H4.583V2.11H24.378V9l2.11-2.11V1.055A1.055,1.055,0,0,0,25.433,0H3.528A1.055,1.055,0,0,0,2.473,1.055v29.89A1.055,1.055,0,0,0,3.528,32H25.433a1.055,1.055,0,0,0,1.055-1.055V19.334l-2.11,2.11V29.89Z" fill="#d9bb96"/>
    <path id="XMLID_150_" d="M84.735,71.359H71.161a.806.806,0,0,0,0,1.613H84.734a.806.806,0,0,0,0-1.613Z" transform="translate(-63.467 -66.718)" fill="#d9bb96"/>
    <path id="XMLID_149_" d="M85.541,138.284a.807.807,0,0,0-.806-.806H71.161a.806.806,0,0,0,0,1.613H84.734A.807.807,0,0,0,85.541,138.284Z" transform="translate(-63.467 -128.537)" fill="#d9bb96"/>
    <path id="XMLID_148_" d="M83.6,203.6H71.161a.806.806,0,0,0,0,1.613H81.987Z" transform="translate(-63.467 -190.358)" fill="#d9bb96"/>
    <path id="XMLID_147_" d="M79.091,270.765a4.918,4.918,0,0,1,.455-1.045H71.162a.806.806,0,0,0,0,1.613h7.759Z" transform="translate(-63.468 -252.178)" fill="#d9bb96"/>
    <path id="XMLID_146_" d="M71.161,335.842a.806.806,0,0,0,0,1.613h7.083a2.5,2.5,0,0,1-.115-1.613Z" transform="translate(-63.467 -313.999)" fill="#d9bb96"/>
    <path id="XMLID_145_" d="M238.244,84.417a2.251,2.251,0,0,0-3.184,0l-11.929,11.93a2.771,2.771,0,0,0-.7,1.167l-.951,3.187a.383.383,0,0,0,.477.477l3.186-.951a2.771,2.771,0,0,0,1.167-.7L238.244,87.6a2.251,2.251,0,0,0,0-3.183Z" transform="translate(-204.752 -78.31)" fill="#d9bb96"/>
  </g>
</svg>
