<svg id="appstore" xmlns="http://www.w3.org/2000/svg" width="254.249" height="75.993" viewBox="0 0 254.249 75.993">
  <path id="Path_6608" data-name="Path 6608" d="M8.073.008h238.6a7.713,7.713,0,0,1,7.822,7.6V68.4a7.713,7.713,0,0,1-7.822,7.6H8.073A7.714,7.714,0,0,1,.25,68.4V7.608A7.714,7.714,0,0,1,8.073.008Z" transform="translate(-0.25 -0.008)"/>
  <path id="Path_25143" data-name="Path 25143" d="M1.546,14.859a27.31,27.31,0,0,0,3.073.156c2.548,0,4.57-.661,5.8-1.886a6.933,6.933,0,0,0,1.886-5.1,6.037,6.037,0,0,0-1.848-4.706C9.306,2.257,7.575,1.693,5.144,1.693a24.236,24.236,0,0,0-3.6.272ZM3.238,3.21a9.614,9.614,0,0,1,1.984-.175C8.8,3.035,10.551,5,10.531,8.091c0,3.54-1.964,5.562-5.582,5.562a10.684,10.684,0,0,1-1.711-.1ZM18.505,5.271c-2.606,0-4.668,1.848-4.668,5,0,2.976,1.964,4.843,4.512,4.843a4.6,4.6,0,0,0,4.687-5C23.037,7.236,21.209,5.271,18.505,5.271Zm-.039,1.284c2.023,0,2.82,2.023,2.82,3.617,0,2.12-1.225,3.656-2.859,3.656-1.673,0-2.859-1.556-2.859-3.617C15.569,8.422,16.444,6.555,18.466,6.555Zm5.523-1.07L26.829,14.9h1.556L29.9,10.425a27.853,27.853,0,0,0,.856-3.112H30.8a31.371,31.371,0,0,0,.836,3.092L33.072,14.9h1.556l3.034-9.413H35.97l-1.342,4.726a28.3,28.3,0,0,0-.72,3.053H33.85c-.214-.953-.486-1.945-.836-3.073L31.555,5.485H30.116l-1.536,4.8c-.311,1.011-.622,2.023-.836,2.976h-.058c-.175-.972-.428-1.945-.7-3L25.74,5.485ZM39.373,14.9h1.711V9.239a2.461,2.461,0,0,1,.117-.8A2.432,2.432,0,0,1,43.5,6.691c1.614,0,2.178,1.264,2.178,2.781V14.9h1.711V9.278c0-3.228-2.023-4.006-3.326-4.006a3.461,3.461,0,0,0-3.112,1.77H40.91l-.1-1.556H39.3c.058.778.078,1.575.078,2.548Zm10.794,0h1.711V1.09H50.167Zm8.577-9.627c-2.606,0-4.668,1.848-4.668,5,0,2.976,1.964,4.843,4.512,4.843a4.6,4.6,0,0,0,4.687-5C63.275,7.236,61.447,5.271,58.744,5.271ZM58.7,6.555c2.023,0,2.82,2.023,2.82,3.617,0,2.12-1.225,3.656-2.859,3.656-1.673,0-2.859-1.556-2.859-3.617C55.807,8.422,56.682,6.555,58.7,6.555ZM72.2,14.9a13.253,13.253,0,0,1-.156-2.256V9.122c0-1.886-.7-3.851-3.578-3.851a5.842,5.842,0,0,0-3.092.836l.389,1.128a4.69,4.69,0,0,1,2.45-.7,1.94,1.94,0,0,1,2.139,2.178v.194c-3.637-.019-5.659,1.225-5.659,3.5a2.682,2.682,0,0,0,2.878,2.7,3.506,3.506,0,0,0,2.878-1.4h.058l.136,1.186Zm-1.809-3.17a1.786,1.786,0,0,1-.1.545,2.342,2.342,0,0,1-2.275,1.575,1.515,1.515,0,0,1-1.614-1.634c0-1.828,2.12-2.159,3.987-2.12ZM81.226,1.09V6.711h-.039a3.147,3.147,0,0,0-2.839-1.439c-2.295,0-4.24,1.925-4.22,5.057,0,2.859,1.75,4.784,4.026,4.784a3.482,3.482,0,0,0,3.209-1.848H81.4l.078,1.634h1.536c-.058-.642-.078-1.595-.078-2.431V1.09Zm0,9.86a2.973,2.973,0,0,1-.078.739,2.573,2.573,0,0,1-2.509,2.042c-1.848,0-2.781-1.575-2.781-3.481,0-2.081,1.05-3.637,2.82-3.637A2.517,2.517,0,0,1,81.148,8.6a3.021,3.021,0,0,1,.078.72ZM93.886,5.271c-2.606,0-4.668,1.848-4.668,5,0,2.976,1.964,4.843,4.512,4.843a4.6,4.6,0,0,0,4.687-5C98.418,7.236,96.59,5.271,93.886,5.271Zm-.039,1.284c2.023,0,2.82,2.023,2.82,3.617,0,2.12-1.225,3.656-2.859,3.656-1.673,0-2.859-1.556-2.859-3.617C90.95,8.422,91.825,6.555,93.848,6.555Zm6.729,8.343h1.711V9.239a2.461,2.461,0,0,1,.117-.8,2.432,2.432,0,0,1,2.295-1.75c1.614,0,2.178,1.264,2.178,2.781V14.9h1.711V9.278c0-3.228-2.023-4.006-3.326-4.006a3.461,3.461,0,0,0-3.112,1.77h-.039l-.1-1.556H100.5c.058.778.078,1.575.078,2.548ZM115.882,3.229V5.485h-1.459v1.3h1.459v5.134a3.487,3.487,0,0,0,.661,2.45,2.372,2.372,0,0,0,1.848.72,4.19,4.19,0,0,0,1.517-.233l-.078-1.284a3.807,3.807,0,0,1-.992.117c-.953,0-1.284-.661-1.284-1.828V6.788h2.45v-1.3h-2.45v-2.7ZM121.931,14.9h1.711V9.219a2.072,2.072,0,0,1,.117-.817,2.459,2.459,0,0,1,2.295-1.711c1.614,0,2.178,1.284,2.178,2.8V14.9h1.711V9.3c0-3.248-2.023-4.026-3.287-4.026a3.522,3.522,0,0,0-1.75.486,3.176,3.176,0,0,0-1.225,1.206h-.039V1.09h-1.711Zm18.359-4.4a6.453,6.453,0,0,0,.058-.8c0-1.731-.817-4.434-3.89-4.434-2.742,0-4.415,2.237-4.415,5.076a4.371,4.371,0,0,0,4.629,4.745,7.624,7.624,0,0,0,3.131-.583l-.292-1.225a6.189,6.189,0,0,1-2.606.486,3.016,3.016,0,0,1-3.228-3.267ZM133.7,9.278A2.836,2.836,0,0,1,136.323,6.5c1.925,0,2.392,1.692,2.373,2.781ZM14.6,38.2l2.467,7.264h3.187l-7.881-23.1h-3.6L.925,45.46H4.009l2.4-7.264Zm-7.573-2.33,2.262-6.682c.445-1.4.822-2.81,1.165-4.18h.069c.343,1.336.685,2.707,1.2,4.215l2.262,6.648ZM23.438,52.244h2.981V43.232h.069a5.816,5.816,0,0,0,5.106,2.6c3.906,0,7.538-2.947,7.538-8.909,0-5.037-3.015-8.429-7.025-8.429a6.52,6.52,0,0,0-5.894,3.221h-.069l-.137-2.844H23.3c.069,1.576.137,3.29.137,5.414Zm2.981-16.379a4.89,4.89,0,0,1,.206-1.234A4.812,4.812,0,0,1,31.182,30.9c3.187,0,4.934,2.844,4.934,6.168,0,3.8-1.85,6.408-5.037,6.408a4.653,4.653,0,0,1-4.523-3.529,6.79,6.79,0,0,1-.137-1.234ZM42.935,52.244h2.981V43.232h.069a5.816,5.816,0,0,0,5.106,2.6c3.906,0,7.538-2.947,7.538-8.909,0-5.037-3.015-8.429-7.025-8.429a6.52,6.52,0,0,0-5.894,3.221h-.069L45.5,28.875H42.8c.069,1.576.137,3.29.137,5.414Zm2.981-16.379a4.89,4.89,0,0,1,.206-1.234A4.812,4.812,0,0,1,50.679,30.9c3.187,0,4.934,2.844,4.934,6.168,0,3.8-1.85,6.408-5.037,6.408a4.653,4.653,0,0,1-4.523-3.529,6.79,6.79,0,0,1-.137-1.234Zm22.718,8.464A11.935,11.935,0,0,0,74.528,45.8c5.448,0,8.087-3.084,8.087-6.648,0-3.392-1.987-5.277-5.894-6.785-3.187-1.234-4.592-2.3-4.592-4.455,0-1.576,1.2-3.461,4.352-3.461a9.2,9.2,0,0,1,4.386,1.1l.822-2.433a10.494,10.494,0,0,0-5.106-1.131c-4.489,0-7.47,2.673-7.47,6.271,0,3.255,2.33,5.208,6.1,6.545,3.118,1.2,4.352,2.433,4.352,4.592,0,2.33-1.782,3.941-4.831,3.941a10.564,10.564,0,0,1-5.345-1.508ZM87.172,24.9v3.975H84.6v2.3h2.57v9.046c0,1.953.308,3.427,1.165,4.317A4.179,4.179,0,0,0,91.593,45.8a7.381,7.381,0,0,0,2.673-.411l-.137-2.262a6.707,6.707,0,0,1-1.748.206c-1.679,0-2.262-1.165-2.262-3.221V31.171h4.318v-2.3H90.119V24.112Zm17.476,3.6c-4.592,0-8.224,3.255-8.224,8.806,0,5.243,3.461,8.532,7.95,8.532,4.009,0,8.258-2.673,8.258-8.806C112.632,31.959,109.411,28.5,104.648,28.5Zm-.069,2.262c3.564,0,4.969,3.564,4.969,6.373,0,3.735-2.159,6.442-5.037,6.442-2.947,0-5.037-2.741-5.037-6.373C99.474,34.049,101.016,30.76,104.579,30.76Zm11.856,14.7h2.981V36.619a8.486,8.486,0,0,1,.137-1.4c.411-2.262,1.919-3.872,4.043-3.872a4.53,4.53,0,0,1,1.028.1V28.6a3.262,3.262,0,0,0-.857-.1,4.976,4.976,0,0,0-4.592,3.632h-.137l-.1-3.255H116.3c.1,1.542.137,3.221.137,5.174Zm24.192-7.744a11.371,11.371,0,0,0,.1-1.4c0-3.05-1.439-7.813-6.853-7.813-4.832,0-7.778,3.941-7.778,8.943s3.05,8.361,8.155,8.361a13.433,13.433,0,0,0,5.517-1.028l-.514-2.159a10.9,10.9,0,0,1-4.592.857c-3.015,0-5.62-1.679-5.688-5.757Zm-11.616-2.159c.24-2.09,1.576-4.9,4.626-4.9,3.392,0,4.215,2.981,4.18,4.9Z" transform="translate(77.242 12.307)" fill="#fff"/>
  <path id="Path_6609" data-name="Path 6609" d="M45.516,22.08c5.591,0,9.167,5.21,9.167,5.21s-5.455,2.85-5.455,9.039c0,7.347,6.853,9.485,6.853,9.485S50.672,58.17,44.6,58.17c-3.415,0-3.645-1.893-8.183-1.893-3.942,0-5.271,1.893-8.274,1.893-5.73,0-13.132-12.045-13.132-21.841C15.01,26.155,22.5,22.08,27.2,22.08c4.126,0,5.845,2.338,9.168,2.338C39.166,24.418,41.367,22.08,45.516,22.08Zm-.963-10.374c.824,4.986-3.873,11.154-9.488,10.954C34.239,16.314,40.289,12.039,44.553,11.706Z" transform="translate(4.994 1.159)" fill="#fff"/>
</svg>
