<svg xmlns="http://www.w3.org/2000/svg" width="32" height="32" viewBox="0 0 32 32">
  <g id="ic_shopping-cart" transform="translate(1.188 -1.645)">
    <rect id="Rectangle_12550" data-name="Rectangle 12550" width="32" height="32" transform="translate(-1.188 1.645)" fill="none"/>
    <g id="Group_29896" data-name="Group 29896" transform="translate(1.812 0)">
      <path id="Path_25304" data-name="Path 25304" d="M0,0H1V1H0Z" transform="translate(24.51 29.888)" fill="#2dc1d6"/>
      <path id="Path_25305" data-name="Path 25305" d="M24.029,26.424a2.792,2.792,0,0,0-2.746,2.307H15.227a2.769,2.769,0,0,0-.435-1.078l-.8.538a1.825,1.825,0,1,1-.561-.537l.5-.819a2.788,2.788,0,0,0-4.2,1.9H9.282A1.367,1.367,0,0,1,8.11,26.662l.949-1.584h17.4v-.962h-1.4L26.9,13H23.592l1.059-.641L19.167,3.3l-.822.5,3.713,6.132L16.994,13H12.682L9.039,6.983a.8.8,0,0,1,.27-1.1l7.533-4.562,1,1.644.822-.5L17.166,0,8.811,5.06a1.749,1.749,0,0,0-.731.872H1.9v.962H7.992a1.761,1.761,0,0,0,.225.587L11.558,13H7.829l-.154-1.237a1.715,1.715,0,0,0-1.7-1.5h-.4V9.273H0V12.21H5.572v-.988h.4a.752.752,0,0,1,.745.658l.234,1.881.371,2.985H2.864v.962H7.446l.337,2.714h-3v.962H7.9l.386,3.109-.864,1.442H1.9V26.9H7a2.333,2.333,0,0,0,2.283,2.8h.453a2.787,2.787,0,0,0,5.492,0h6.057a2.788,2.788,0,1,0,2.746-3.269ZM4.611,11.249H.962V10.235H4.611Zm9.086,5.5-.351-2.785h6.149l-.027,2.785h-2.18v.962h2.17l-.027,2.714H14.16l-.342-2.714h2.531v-.962Zm6.722.962h4.727L24.7,20.422h-4.3Zm-1,3.675-.027,2.733H14.626l-.345-2.733Zm.935,2.733.027-2.733h4.153l-.454,2.733Zm4.95-7.37H20.429l.027-2.785h5.313Zm-2.75-5.991.774,1.278L21.736,13H18.851ZM7.949,13.961h4.428l.351,2.785H8.3Zm.466,3.747h4.434l.342,2.714H8.752Zm4.9,3.675.345,2.733H9.211l-.34-2.733Zm10.717,9.655a1.827,1.827,0,1,1,1.827-1.827A1.829,1.829,0,0,1,24.029,31.038Z" transform="translate(0.014 1.645)" fill="#2dc1d6"/>
      <path id="Path_25306" data-name="Path 25306" d="M0,0H1V1H0Z" transform="translate(12.497 29.888)" fill="#2dc1d6"/>
      <path id="Path_25307" data-name="Path 25307" d="M0,3.351,2.075,6.777,7.608,3.426,5.533,0ZM2.412,5.4,1.374,3.688,5.2,1.374,6.234,3.088Z" transform="translate(11.449 3.424)" fill="#2dc1d6"/>
      <path id="Path_25308" data-name="Path 25308" d="M0,0H.925V1H0Z" transform="translate(0 6.172)" fill="#2dc1d6"/>
    </g>
  </g>
</svg>
